<svg width="200" height="56" viewBox="0 0 200 56" fill="none" xmlns="http://www.w3.org/2000/svg">
<g clip-path="url(#clip0_861_11)">
<path d="M31.8702 24.0009H12.1748C13.6814 17.1718 19.5206 12.0221 26.6009 11.6719C25.1802 11.266 23.6892 11.0352 22.1591 11.0352C13.2287 11.0352 6 18.3976 6 27.4951C6 36.5927 13.2287 43.963 22.1513 43.963C23.6892 43.963 25.1724 43.7242 26.5853 43.3263C19.5128 42.9761 13.6736 37.8264 12.167 30.9972H31.8624V24.0009H31.8702Z" fill="#F55353"/>
<path d="M42.5887 24.0019H48.9118C47.249 12.6916 37.7019 4 26.1407 4C20.5358 4 15.3992 6.0376 11.4023 9.43624C14.5405 7.49416 18.2095 6.34801 22.1595 6.34801C32.4326 6.34801 40.9493 13.989 42.5887 24.0019ZM22.1595 48.652C18.2095 48.652 14.5327 47.5058 11.4023 45.5558C15.407 48.9544 20.5436 50.992 26.1485 50.992C37.7097 50.992 47.2568 42.3004 48.9196 30.9902H42.5965C40.9571 41.0031 32.4404 48.644 22.1673 48.644L22.1595 48.652Z" fill="#F55353"/>
<path d="M57.2168 38.1865V18.9727H60.7687V38.1865H57.2168ZM58.497 22.4589V18.9727H69.8396V22.4589H58.497ZM58.497 30.3864V26.9002H68.4111V30.3864H58.497ZM58.497 38.1786V34.6924H69.8396V38.1786H58.497Z" fill="#14166B"/>
<path d="M71.0098 22.4589V18.9727H84.827V22.4589H71.0098ZM76.1385 38.1865V20.5486H79.6904V38.1865H76.1385Z" fill="#14166B"/>
<path d="M86.8965 38.1865V18.9727H90.4484V38.1865H86.8965ZM88.1767 22.4589V18.9727H99.5193V22.4589H88.1767ZM88.1767 30.3864V26.9002H98.0908V30.3864H88.1767ZM88.1767 38.1786V34.6924H99.5193V38.1786H88.1767Z" fill="#14166B"/>
<path d="M102.76 38.1865V18.9727H106.312V38.1865H102.76ZM105.351 35.3849L104.899 30.6809L112.455 18.9727H116.928L105.351 35.3849ZM113.501 38.1865L108.029 28.4602L111.089 26.4942L117.709 38.1865H113.493H113.501Z" fill="#14166B"/>
<path d="M126.92 38.1865V18.9727H130.472V38.1865H126.92ZM128.708 38.1865V34.7003H133.227C134.391 34.7003 135.296 34.4138 135.936 33.8328C136.576 33.2517 136.896 32.4478 136.896 31.4052V25.7461C136.896 24.6954 136.576 23.8915 135.936 23.3185C135.296 22.7454 134.391 22.4589 133.227 22.4589H128.708V18.9727H133.149C135.515 18.9727 137.349 19.5776 138.637 20.7794C139.933 21.9813 140.573 23.6766 140.573 25.8575V31.3017C140.573 32.6707 140.3 33.8646 139.746 34.8993C139.191 35.934 138.364 36.7379 137.263 37.319C136.163 37.892 134.789 38.1865 133.134 38.1865H128.7H128.708Z" fill="#14166B"/>
<path d="M144.078 38.1865V18.9727H147.63V38.1865H144.078ZM145.358 22.4589V18.9727H156.701V22.4589H145.358ZM145.358 30.3864V26.9002H155.272V30.3864H145.358ZM145.358 38.1786V34.6924H156.701V38.1786H145.358Z" fill="#14166B"/>
<path d="M168.206 31.9225L171.797 18.9727H176.473V38.1865H173.249V23.2707L173.382 24.1144L169.775 36.0455H166.637L163.031 24.3771L163.163 23.2707V38.1865H159.939V18.9727H164.615L168.206 31.9225Z" fill="#14166B"/>
<path d="M187.114 38.385C185.732 38.385 184.522 38.0905 183.492 37.5095C182.461 36.9205 181.657 36.1007 181.087 35.0341C180.517 33.9676 180.229 32.7259 180.229 31.3091V25.8649C180.229 24.4402 180.517 23.1906 181.087 22.132C181.657 21.0734 182.461 20.2456 183.492 19.6646C184.522 19.0756 185.732 18.7891 187.114 18.7891C188.495 18.7891 189.705 19.0836 190.736 19.6646C191.766 20.2536 192.57 21.0734 193.14 22.132C193.71 23.1906 193.999 24.4402 193.999 25.8649V31.3091C193.999 32.7259 193.71 33.9676 193.14 35.0341C192.57 36.1007 191.766 36.9284 190.736 37.5095C189.705 38.0985 188.495 38.385 187.114 38.385ZM187.114 34.7635C188.082 34.7635 188.855 34.4531 189.44 33.8402C190.025 33.2273 190.314 32.4075 190.314 31.3967V25.7694C190.314 24.7506 190.025 23.9308 189.44 23.3179C188.855 22.7051 188.082 22.4026 187.114 22.4026C186.146 22.4026 185.373 22.7051 184.787 23.3179C184.202 23.9308 183.913 24.7506 183.913 25.7694V31.3967C183.913 32.4075 184.202 33.2273 184.787 33.8402C185.373 34.461 186.146 34.7635 187.114 34.7635Z" fill="#14166B"/>
</g>
<defs>
<clipPath id="clip0_861_11">
<rect width="188" height="47" fill="white" transform="translate(6 4)"/>
</clipPath>
</defs>
</svg>
