<svg width="32" height="32" viewBox="0 0 32 32" fill="none" xmlns="http://www.w3.org/2000/svg">
<g id="Frame" clip-path="url(#clip0_268_343)">
<g id="Group">
<path id="Vector" d="M16 32C24.8366 32 32 24.8366 32 16C32 7.16344 24.8366 0 16 0C7.16344 0 0 7.16344 0 16C0 24.8366 7.16344 32 16 32Z" fill="url(#paint0_linear_268_343)"/>
<path id="Vector_2" d="M24.437 16C24.437 15.4749 24.8495 15.0625 25.3745 15.0625H28.1495C27.6808 9.10001 22.8995 4.3187 16.937 3.84995V6.62501C16.937 7.14995 16.5246 7.56251 15.9995 7.56251C15.4745 7.56251 15.062 7.14995 15.062 6.62501V3.84995C9.09955 4.3187 4.31836 9.10001 3.84961 15.0625H6.62455C7.14961 15.0625 7.56205 15.4749 7.56205 16C7.56205 16.5249 7.14961 16.9375 6.62455 16.9375H3.84961C4.31836 22.9 9.09961 27.6812 15.062 28.1499V25.375C15.062 24.8499 15.4745 24.4375 15.9995 24.4375C16.5246 24.4375 16.937 24.8499 16.937 25.375V28.1499C22.8995 27.6812 27.6808 22.9 28.1495 16.9375H25.3745C24.8495 16.9375 24.437 16.5249 24.437 16ZM20.4057 20.4063C20.0685 20.7813 19.4307 20.7814 19.0933 20.4063L15.3433 16.6563C15.1936 16.5367 15.062 16.2806 15.062 16V10.375C15.062 9.84995 15.4744 9.43751 15.9995 9.43751C16.5245 9.43751 16.937 9.84995 16.937 10.375V15.6062L20.4057 19.0937C20.7808 19.4499 20.7808 20.0499 20.4057 20.4063Z" fill="url(#paint1_linear_268_343)"/>
</g>
</g>
<defs>
<linearGradient id="paint0_linear_268_343" x1="16" y1="32" x2="16" y2="0" gradientUnits="userSpaceOnUse">
<stop stop-color="#FC6736"/>
<stop offset="1" stop-color="#FC6736"/>
</linearGradient>
<linearGradient id="paint1_linear_268_343" x1="15.9995" y1="28.1499" x2="15.9995" y2="3.84995" gradientUnits="userSpaceOnUse">
<stop stop-color="#FFF4F1"/>
<stop offset="0.503" stop-color="#EAF6FF"/>
<stop offset="1" stop-color="#EAF6FF"/>
</linearGradient>
<clipPath id="clip0_268_343">
<rect width="32" height="32" fill="white"/>
</clipPath>
</defs>
</svg>