<svg width="20" height="20" viewBox="0 0 20 20" fill="none" xmlns="http://www.w3.org/2000/svg">
<g id="Frame">
<g id="Group">
<path id="Vector" d="M9.99935 0C7.78996 0.00242633 5.67175 0.881179 4.10947 2.44346C2.54719 4.00573 1.66844 6.12394 1.66602 8.33333C1.66602 12.735 8.66602 18.7775 9.46102 19.4525L9.99935 19.9075L10.5377 19.4525C11.3327 18.7775 18.3327 12.735 18.3327 8.33333C18.3303 6.12394 17.4515 4.00573 15.8892 2.44346C14.3269 0.881179 12.2087 0.00242633 9.99935 0ZM9.99935 12.5C9.17526 12.5 8.36968 12.2556 7.68447 11.7978C6.99927 11.34 6.46522 10.6892 6.14985 9.92785C5.83449 9.16649 5.75197 8.32871 5.91274 7.52046C6.07352 6.7122 6.47035 5.96977 7.05307 5.38705C7.63579 4.80434 8.37822 4.4075 9.18647 4.24673C9.99473 4.08596 10.8325 4.16847 11.5939 4.48384C12.3552 4.7992 13.006 5.33325 13.4638 6.01846C13.9216 6.70366 14.166 7.50924 14.166 8.33333C14.1647 9.438 13.7253 10.497 12.9442 11.2781C12.1631 12.0593 11.104 12.4987 9.99935 12.5Z" fill="#FC6736"/>
<path id="Vector_2" d="M10 10.8333C11.3807 10.8333 12.5 9.71406 12.5 8.33334C12.5 6.95263 11.3807 5.83334 10 5.83334C8.61929 5.83334 7.5 6.95263 7.5 8.33334C7.5 9.71406 8.61929 10.8333 10 10.8333Z" fill="#FC6736"/>
</g>
</g>
</svg>