<svg width="32" height="32" viewBox="0 0 32 32" fill="none" xmlns="http://www.w3.org/2000/svg">
<g id="Frame" clip-path="url(#clip0_268_354)">
<g id="Group">
<path id="Vector" d="M16 32C24.8366 32 32 24.8366 32 16C32 7.16344 24.8366 0 16 0C7.16344 0 0 7.16344 0 16C0 24.8366 7.16344 32 16 32Z" fill="url(#paint0_linear_268_354)"/>
<path id="Vector_2" d="M24.9617 20.9468C24.9108 20.7933 24.5869 20.5674 23.9902 20.2693C23.8286 20.1754 23.5982 20.0477 23.3001 19.8858C23.0284 19.7385 22.7578 19.5893 22.4882 19.4382C22.2583 19.3095 22.0302 19.1775 21.8042 19.0421C21.7701 19.0165 21.6636 18.9421 21.4846 18.8182C21.3054 18.6947 21.1544 18.6031 21.0305 18.5433C20.907 18.4839 20.7854 18.454 20.6661 18.454C20.4957 18.454 20.2828 18.5755 20.0272 18.8182C19.7707 19.062 19.5355 19.3273 19.3241 19.611C19.1165 19.8902 18.8902 20.155 18.6468 20.4036C18.4081 20.6466 18.2119 20.768 18.0586 20.768C17.9817 20.768 17.8858 20.7465 17.7709 20.7042C17.656 20.6616 17.5686 20.6252 17.5085 20.5957C17.449 20.5656 17.347 20.5062 17.202 20.4164C17.0567 20.3269 16.9759 20.2779 16.9589 20.2693C15.7913 19.6214 14.7899 18.88 13.9546 18.045C13.1195 17.2096 12.3778 16.2083 11.7301 15.0406C11.7216 15.0236 11.6725 14.9425 11.583 14.7978C11.4935 14.6528 11.4338 14.5507 11.4039 14.4909C11.3741 14.4313 11.3379 14.3439 11.2953 14.2289C11.2528 14.1138 11.2314 14.018 11.2314 13.9412C11.2314 13.788 11.3529 13.5918 11.5959 13.3531C11.8444 13.1097 12.1092 12.8834 12.3885 12.6758C12.6722 12.4644 12.9374 12.2293 13.1811 11.9728C13.4239 11.7171 13.5454 11.5042 13.5454 11.3337C13.5454 11.2145 13.5156 11.0929 13.456 10.9694C13.3964 10.8456 13.3047 10.6945 13.1811 10.5154C13.0575 10.3365 12.9829 10.23 12.9573 10.1958C12.822 9.96973 12.6899 9.74177 12.561 9.51199C12.4099 9.24244 12.2607 8.97182 12.1134 8.70016C11.9516 8.40205 11.8238 8.17181 11.73 8.0099C11.4318 7.41345 11.206 7.0894 11.0526 7.03847C10.9929 7.0129 10.9033 7 10.7841 7C10.5539 7 10.2535 7.04252 9.88279 7.12787C9.51191 7.21306 9.22008 7.30246 9.00701 7.39635C8.58086 7.57522 8.12913 8.09509 7.65183 8.95574C7.21728 9.7567 7 10.5495 7 11.3334C7 11.5634 7.01493 11.7871 7.0447 12.0046C7.07455 12.2218 7.1278 12.4669 7.2046 12.7397C7.28125 13.0123 7.34313 13.2149 7.38985 13.3468C7.43665 13.4788 7.52403 13.7153 7.6519 14.0563C7.77963 14.3972 7.85643 14.6059 7.882 14.6827C8.18028 15.5179 8.53398 16.2636 8.94303 16.9199C9.61608 18.0107 10.5345 19.138 11.6979 20.3014C12.8613 21.4647 13.9885 22.3831 15.0795 23.0563C15.7357 23.4653 16.4817 23.819 17.3169 24.1174C17.3936 24.1429 17.6023 24.2195 17.9431 24.3476C18.2841 24.4754 18.5206 24.5628 18.6526 24.6096C18.7847 24.6566 18.9873 24.7185 19.2598 24.7953C19.5328 24.8721 19.7777 24.9253 19.995 24.9554C20.2175 24.9853 20.4417 25.0002 20.6662 25C21.4502 25 22.2431 24.7826 23.0442 24.348C23.9048 23.8709 24.4246 23.4191 24.6035 22.9927C24.6977 22.7798 24.7868 22.4879 24.872 22.1171C24.9575 21.7464 25 21.4461 25 21.2159C25.0004 21.0962 24.9875 21.0069 24.9617 20.9468Z" fill="url(#paint1_linear_268_354)"/>
<g id="Group_2">
<path id="Vector_3" d="M22.5611 16.7022C22.139 16.7022 21.7966 16.3599 21.7966 15.9378C21.7966 12.7764 19.2247 10.2044 16.0633 10.2044C15.6411 10.2044 15.2988 9.86219 15.2988 9.43999C15.2988 9.01778 15.6411 8.67554 16.0633 8.67554C20.0677 8.67554 23.3255 11.9334 23.3255 15.9378C23.3255 16.3599 22.9832 16.7022 22.5611 16.7022Z" fill="white"/>
<path id="Vector_4" d="M19.8855 16.7023C19.4634 16.7023 19.1211 16.36 19.1211 15.9378C19.1211 14.2518 17.7493 12.88 16.0633 12.88C15.6411 12.88 15.2988 12.5378 15.2988 12.1156C15.2988 11.6934 15.6411 11.3511 16.0633 11.3511C18.5924 11.3511 20.65 13.4087 20.65 15.9378C20.65 16.36 20.3076 16.7023 19.8855 16.7023ZM25.2367 16.7023C24.8145 16.7023 24.4722 16.36 24.4722 15.9378C24.4722 11.3011 20.7 7.5289 16.0633 7.5289C15.6411 7.5289 15.2988 7.18665 15.2988 6.76445C15.2988 6.34224 15.6411 6 16.0633 6C21.5431 6 26.0011 10.4581 26.0011 15.9378C26.0011 16.36 25.6588 16.7023 25.2367 16.7023Z" fill="white"/>
</g>
</g>
</g>
<defs>
<linearGradient id="paint0_linear_268_354" x1="4.68631" y1="27.3137" x2="27.3137" y2="4.68631" gradientUnits="userSpaceOnUse">
<stop stop-color="#FC6736"/>
<stop offset="1" stop-color="#FC6736"/>
</linearGradient>
<linearGradient id="paint1_linear_268_354" x1="11.6981" y1="20.3017" x2="18.0267" y2="13.9727" gradientUnits="userSpaceOnUse">
<stop stop-color="#FFF4F1"/>
<stop offset="1" stop-color="#EAF6FF"/>
</linearGradient>
<clipPath id="clip0_268_354">
<rect width="32" height="32" fill="white"/>
</clipPath>
</defs>
</svg>