<svg width="64" height="64" viewBox="0 0 64 64" fill="none" xmlns="http://www.w3.org/2000/svg">
<g id="Frame" clip-path="url(#clip0_321_295)">
<g id="Group">
<g id="9">
<path id="Vector" d="M64 32C64 14.3269 49.6731 0 32 0C14.3269 0 0 14.3269 0 32C0 49.6731 14.3269 64 32 64C49.6731 64 64 49.6731 64 32Z" fill="url(#paint0_linear_321_295)"/>
<path id="Vector_2" d="M45.2326 34.4325C45.2326 39.8312 42.8688 50.75 30.3663 50.75C26.5763 50.75 23.5038 47.6775 23.5038 43.8875V30.4537H18.7676V25.5912H23.5038V21.0713C23.5038 21.0713 23.6813 19.3037 21.4301 19.3037H19.1776V13.2513H21.4301C26.8613 13.2513 30.3663 14.0175 30.3663 21.0713V25.5912H35.1026V30.4537H30.3663V44.59C34.7751 44.59 36.7888 41.5412 37.7088 38.785C36.2038 37.9175 35.1913 36.295 35.1913 34.4337C35.1913 31.6613 37.4401 29.4137 40.2113 29.4137C43.3113 29.4137 45.2313 31.875 45.2313 34.4337L45.2326 34.4325Z" fill="white"/>
</g>
</g>
</g>
<defs>
<linearGradient id="paint0_linear_321_295" x1="9.3725" y1="9.3725" x2="54.6275" y2="54.6275" gradientUnits="userSpaceOnUse">
<stop stop-color="#38ACFF"/>
<stop offset="1" stop-color="#0051B5"/>
</linearGradient>
<clipPath id="clip0_321_295">
<rect width="64" height="64" fill="white"/>
</clipPath>
</defs>
</svg>
