<svg width="400" height="300" viewBox="0 0 400 300" fill="none" xmlns="http://www.w3.org/2000/svg">
<g clip-path="url(#clip0_389_12)">
<path d="M214.489 232.347H309.63C315.975 232.347 321.118 227.207 321.118 220.868V28.7985C321.118 22.459 315.975 17.3198 309.63 17.3198H214.489C208.144 17.3198 203.001 22.459 203.001 28.7985L203.001 220.868C203.001 227.207 208.144 232.347 214.489 232.347Z" fill="white"/>
<path d="M309.632 232.666H214.489C207.977 232.666 202.681 227.374 202.681 220.868V28.7985C202.681 22.2924 207.977 17 214.489 17H309.632C316.143 17 321.439 22.2924 321.439 28.7985V220.869C321.439 227.375 316.143 232.668 309.632 232.668V232.666ZM214.489 17.6396C208.331 17.6396 203.321 22.6456 203.321 28.7985V220.869C203.321 227.022 208.331 232.028 214.489 232.028H309.632C315.789 232.028 320.799 227.022 320.799 220.869V28.7985C320.799 22.6456 315.789 17.6396 309.632 17.6396H214.489Z" fill="black"/>
<path d="M219.367 225.521H304.75C310.59 225.521 315.323 220.791 315.323 214.956V34.117C315.323 28.2825 310.59 23.5526 304.75 23.5526H219.367C213.528 23.5526 208.794 28.2825 208.794 34.117L208.794 214.956C208.794 220.791 213.528 225.521 219.367 225.521Z" fill="white"/>
<path d="M304.751 225.84H219.368C213.361 225.84 208.475 220.958 208.475 214.956V34.117C208.475 28.1153 213.361 23.2328 219.368 23.2328H304.751C310.757 23.2328 315.644 28.1153 315.644 34.117V214.956C315.644 220.958 310.757 225.84 304.751 225.84ZM219.368 23.8724C213.715 23.8724 209.115 28.4685 209.115 34.117V214.956C209.115 220.605 213.715 225.201 219.368 225.201H304.751C310.404 225.201 315.004 220.605 315.004 214.956V34.117C315.004 28.4685 310.404 23.8724 304.751 23.8724H219.368Z" fill="black"/>
<path d="M273.128 29.9569H249.653C249.477 29.9569 249.333 29.8145 249.333 29.6372C249.333 29.4598 249.476 29.3174 249.653 29.3174H273.128C273.304 29.3174 273.448 29.4598 273.448 29.6372C273.448 29.8145 273.305 29.9569 273.128 29.9569Z" fill="black"/>
<path d="M70.4479 23.3694H60.4118C60.2358 23.3694 60.0918 23.227 60.0918 23.0496C60.0918 22.8723 60.2344 22.7299 60.4118 22.7299H70.4479C70.624 22.7299 70.768 22.8723 70.768 23.0496C70.768 23.227 70.6254 23.3694 70.4479 23.3694Z" fill="black"/>
<path d="M46.6796 23.3694H1.32004C1.14402 23.3694 1 23.227 1 23.0496C1 22.8723 1.14256 22.7299 1.32004 22.7299H46.6796C46.8556 22.7299 46.9996 22.8723 46.9996 23.0496C46.9996 23.227 46.8571 23.3694 46.6796 23.3694Z" fill="black"/>
<path d="M70.4483 37.0619H31.4255C31.2495 37.0619 31.1055 36.9195 31.1055 36.7421C31.1055 36.5648 31.248 36.4224 31.4255 36.4224H70.4483C70.6243 36.4224 70.7684 36.5648 70.7684 36.7421C70.7684 36.9195 70.6258 37.0619 70.4483 37.0619Z" fill="black"/>
<path d="M22.2243 37.0619H1.32004C1.14402 37.0619 1 36.918 1 36.7421C1 36.5663 1.14256 36.4224 1.32004 36.4224H22.2243C22.4004 36.4224 22.5444 36.5648 22.5444 36.7421C22.5444 36.9195 22.4018 37.0619 22.2243 37.0619Z" fill="black"/>
<path d="M233.625 133.376H26.9229L69.4413 282.68H276.142L233.625 133.376Z" fill="white"/>
<path d="M276.142 283H69.4416C69.299 283 69.1725 282.906 69.1332 282.768L26.6147 133.463C26.5871 133.367 26.6074 133.262 26.6671 133.182C26.7282 133.103 26.8227 133.056 26.9216 133.056H233.624C233.767 133.056 233.893 133.151 233.932 133.289L276.451 282.593C276.478 282.689 276.458 282.794 276.398 282.874C276.339 282.954 276.243 283 276.144 283H276.142ZM69.6831 282.361H275.719L233.384 133.696H27.3464L69.6816 282.361H69.6831Z" fill="black"/>
<path d="M91.3849 192.266H63.063L55.0039 163.967H83.3258L91.3849 192.266Z" fill="#E2EAFF"/>
<path d="M126.295 192.266H97.9732L89.9141 163.967H118.236L126.295 192.266Z" fill="white"/>
<path d="M126.295 192.586H97.9734C97.8309 192.586 97.7043 192.492 97.665 192.354L89.6059 164.054C89.5783 163.959 89.5986 163.854 89.6583 163.774C89.7194 163.694 89.8139 163.647 89.9128 163.647H118.235C118.377 163.647 118.504 163.742 118.543 163.88L126.602 192.179C126.63 192.275 126.61 192.38 126.55 192.46C126.49 192.54 126.394 192.586 126.295 192.586ZM98.2149 191.947H125.872L117.995 164.287H90.3376L98.2149 191.947Z" fill="black"/>
<path d="M161.205 192.266H132.883L124.824 163.967H153.146L161.205 192.266Z" fill="white"/>
<path d="M161.205 192.586H132.884C132.741 192.586 132.614 192.492 132.575 192.354L124.516 164.054C124.488 163.959 124.509 163.854 124.568 163.774C124.63 163.694 124.724 163.647 124.823 163.647H153.145C153.287 163.647 153.414 163.742 153.453 163.88L161.512 192.179C161.54 192.275 161.52 192.38 161.46 192.46C161.399 192.54 161.304 192.586 161.205 192.586ZM133.125 191.947H160.782L152.905 164.287H125.248L133.125 191.947Z" fill="black"/>
<path d="M196.115 192.266H167.793L159.734 163.967H188.056L196.115 192.266Z" fill="white"/>
<path d="M196.116 192.586H167.794C167.651 192.586 167.525 192.492 167.485 192.354L159.426 164.054C159.399 163.959 159.419 163.854 159.479 163.774C159.54 163.694 159.634 163.647 159.733 163.647H188.055C188.198 163.647 188.324 163.742 188.363 163.88L196.423 192.179C196.45 192.275 196.43 192.38 196.37 192.46C196.309 192.54 196.215 192.586 196.116 192.586ZM168.035 191.947H195.692L187.815 164.287H160.158L168.035 191.947Z" fill="black"/>
<path d="M231.026 192.266H202.704L194.645 163.967H222.966L231.026 192.266Z" fill="white"/>
<path d="M231.026 192.586H202.704C202.561 192.586 202.435 192.492 202.396 192.354L194.336 164.054C194.309 163.959 194.329 163.854 194.389 163.774C194.45 163.694 194.544 163.647 194.643 163.647H222.965C223.108 163.647 223.234 163.742 223.274 163.88L231.333 192.179C231.36 192.275 231.34 192.38 231.28 192.46C231.219 192.54 231.125 192.586 231.026 192.586ZM202.945 191.947H230.602L222.725 164.287H195.068L202.945 191.947Z" fill="black"/>
<path d="M100.932 226.112H72.6102C72.4676 226.112 72.341 226.018 72.3018 225.88L64.2426 197.581C64.215 197.485 64.2353 197.38 64.295 197.3C64.3561 197.22 64.4506 197.174 64.5496 197.174H92.8715C93.014 197.174 93.1406 197.268 93.1799 197.406L101.239 225.705C101.267 225.801 101.246 225.906 101.187 225.986C101.127 226.066 101.031 226.112 100.932 226.112ZM72.8516 225.473H100.509L92.6314 197.813H64.9743L72.8516 225.473Z" fill="black"/>
<path d="M100.932 225.793H72.6099L64.5508 197.493H92.8727L100.932 225.793Z" fill="white"/>
<path d="M100.932 226.112H72.6102C72.4676 226.112 72.341 226.018 72.3018 225.88L64.2426 197.581C64.215 197.485 64.2353 197.38 64.295 197.3C64.3561 197.22 64.4506 197.174 64.5496 197.174H92.8715C93.014 197.174 93.1406 197.268 93.1799 197.406L101.239 225.705C101.267 225.801 101.246 225.906 101.187 225.986C101.127 226.066 101.031 226.112 100.932 226.112ZM72.8516 225.473H100.509L92.6314 197.813H64.9743L72.8516 225.473Z" fill="black"/>
<path d="M135.842 225.793H107.52L99.4609 197.493H127.783L135.842 225.793Z" fill="white"/>
<path d="M135.842 226.112H107.52C107.378 226.112 107.251 226.018 107.212 225.88L99.1528 197.581C99.1251 197.485 99.1455 197.38 99.2052 197.3C99.2663 197.22 99.3608 197.174 99.4597 197.174H127.782C127.924 197.174 128.051 197.268 128.09 197.406L136.149 225.705C136.177 225.801 136.156 225.906 136.097 225.986C136.036 226.066 135.941 226.112 135.842 226.112ZM107.762 225.473H135.419L127.542 197.813H99.8845L107.762 225.473Z" fill="black"/>
<path d="M170.752 225.793H142.43L134.371 197.493H162.693L170.752 225.793Z" fill="white"/>
<path d="M170.752 226.112H142.43C142.288 226.112 142.161 226.018 142.122 225.88L134.063 197.581C134.035 197.485 134.056 197.38 134.115 197.3C134.176 197.22 134.271 197.174 134.37 197.174H162.692C162.834 197.174 162.961 197.268 163 197.406L171.059 225.705C171.087 225.801 171.067 225.906 171.007 225.986C170.946 226.066 170.851 226.112 170.752 226.112ZM142.672 225.473H170.329L162.452 197.813H134.795L142.672 225.473Z" fill="black"/>
<path d="M205.663 225.793H177.341L169.282 197.493H197.604L205.663 225.793Z" fill="white"/>
<path d="M205.663 226.112H177.342C177.199 226.112 177.072 226.018 177.033 225.88L168.974 197.581C168.946 197.485 168.967 197.38 169.026 197.3C169.088 197.22 169.182 197.174 169.281 197.174H197.603C197.745 197.174 197.872 197.268 197.911 197.406L205.97 225.705C205.998 225.801 205.978 225.906 205.918 225.986C205.857 226.066 205.762 226.112 205.663 226.112ZM177.583 225.473H205.24L197.363 197.813H169.706L177.583 225.473Z" fill="black"/>
<path d="M240.573 225.793H212.252L204.192 197.493H232.514L240.573 225.793Z" fill="white"/>
<path d="M240.574 226.112H212.252C212.109 226.112 211.983 226.018 211.943 225.88L203.884 197.581C203.857 197.485 203.877 197.38 203.937 197.3C203.998 197.22 204.092 197.174 204.191 197.174H232.513C232.656 197.174 232.782 197.268 232.821 197.406L240.881 225.705C240.908 225.801 240.888 225.906 240.828 225.986C240.767 226.066 240.673 226.112 240.574 226.112ZM212.493 225.473H240.15L232.273 197.813H204.616L212.493 225.473Z" fill="black"/>
<path d="M110.48 259.319H82.1578L74.0986 231.02H102.421L110.48 259.319Z" fill="white"/>
<path d="M110.48 259.639H82.158C82.0154 259.639 81.8889 259.544 81.8496 259.406L73.7905 231.107C73.7628 231.011 73.7832 230.906 73.8428 230.826C73.9039 230.746 73.9985 230.7 74.0974 230.7H102.419C102.562 230.7 102.688 230.794 102.728 230.932L110.787 259.232C110.814 259.328 110.794 259.432 110.734 259.512C110.673 259.592 110.579 259.639 110.48 259.639ZM82.3995 258.999H110.057L102.179 231.339H74.5222L82.3995 258.999Z" fill="black"/>
<path d="M110.48 259.319H82.1578L74.0986 231.02H102.421L110.48 259.319Z" fill="white"/>
<path d="M110.48 259.639H82.158C82.0154 259.639 81.8889 259.544 81.8496 259.406L73.7905 231.107C73.7628 231.011 73.7832 230.906 73.8428 230.826C73.9039 230.746 73.9985 230.7 74.0974 230.7H102.419C102.562 230.7 102.688 230.794 102.728 230.932L110.787 259.232C110.814 259.328 110.794 259.432 110.734 259.512C110.673 259.592 110.579 259.639 110.48 259.639ZM82.3995 258.999H110.057L102.179 231.339H74.5222L82.3995 258.999Z" fill="black"/>
<path d="M145.39 259.319H117.068L109.009 231.02H137.331L145.39 259.319Z" fill="white"/>
<path d="M145.39 259.639H117.068C116.926 259.639 116.799 259.544 116.76 259.406L108.701 231.107C108.673 231.011 108.693 230.906 108.753 230.826C108.814 230.746 108.909 230.7 109.008 230.7H137.329C137.472 230.7 137.599 230.794 137.638 230.932L145.697 259.232C145.725 259.328 145.704 259.432 145.645 259.512C145.584 259.592 145.489 259.639 145.39 259.639ZM117.31 258.999H144.967L137.089 231.339H109.432L117.31 258.999Z" fill="black"/>
<path d="M180.301 259.319H151.979L143.92 231.02H172.242L180.301 259.319Z" fill="#E2EAFF"/>
<path d="M64.551 283H1.32028C1.22572 283 1.13698 282.958 1.07588 282.887C1.01479 282.814 0.988601 282.72 1.0046 282.626L26.6076 133.322C26.6382 133.148 26.8026 133.031 26.9771 133.06C27.1517 133.091 27.2681 133.255 27.239 133.43L1.69996 282.36H64.551C64.7271 282.36 64.8711 282.503 64.8711 282.68C64.8711 282.858 64.7285 283 64.551 283Z" fill="black"/>
<path d="M379.791 283H254.236C254.06 283 253.916 282.858 253.916 282.68C253.916 282.503 254.059 282.361 254.236 282.361H379.791C379.967 282.361 380.111 282.503 380.111 282.68C380.111 282.858 379.969 283 379.791 283Z" fill="black"/>
<path d="M300.265 181.083H351.849C358.089 181.083 363.153 186.144 363.153 192.377V243.92C363.153 250.154 358.087 255.214 351.849 255.214H300.265C294.026 255.214 288.962 250.153 288.962 243.92V192.377C288.962 186.143 294.027 181.083 300.265 181.083Z" fill="#5479F7"/>
<path d="M300.134 218.148C300.134 220.949 302.406 223.22 305.211 223.22C305.42 223.22 305.624 223.204 305.826 223.179C306.332 225.214 307.135 227.133 308.191 228.881C308.031 229.006 307.874 229.14 307.727 229.287C305.745 231.267 305.745 234.478 307.727 236.459C309.71 238.438 312.924 238.438 314.906 236.459C315.055 236.312 315.187 236.155 315.314 235.995C317.065 237.049 318.985 237.851 321.022 238.357C320.997 238.559 320.981 238.764 320.981 238.972C320.981 241.773 323.254 244.043 326.058 244.043C328.863 244.043 331.135 241.773 331.135 238.972C331.135 238.763 331.119 238.559 331.095 238.357C333.133 237.853 335.051 237.05 336.803 235.995C336.928 236.155 337.062 236.312 337.21 236.459C339.193 238.438 342.406 238.438 344.389 236.459C346.372 234.479 346.372 231.268 344.389 229.287C344.241 229.14 344.085 229.006 343.925 228.881C344.981 227.131 345.784 225.214 346.291 223.179C346.493 223.204 346.698 223.22 346.906 223.22C349.709 223.22 351.983 220.949 351.983 218.148C351.983 215.347 349.711 213.077 346.906 213.077C346.696 213.077 346.493 213.093 346.291 213.118C345.784 211.083 344.981 209.164 343.925 207.415C344.085 207.29 344.242 207.157 344.389 207.01C346.372 205.03 346.372 201.819 344.389 199.838C342.406 197.858 339.193 197.858 337.21 199.838C337.062 199.985 336.929 200.142 336.803 200.302C335.051 199.248 333.131 198.445 331.095 197.94C331.119 197.738 331.135 197.533 331.135 197.325C331.135 194.524 328.863 192.253 326.058 192.253C323.254 192.253 320.981 194.524 320.981 197.325C320.981 197.534 320.997 197.738 321.022 197.94C318.984 198.444 317.065 199.246 315.314 200.302C315.189 200.142 315.055 199.985 314.906 199.838C312.924 197.858 309.71 197.858 307.727 199.838C305.745 201.818 305.745 205.029 307.727 207.01C307.876 207.157 308.031 207.29 308.191 207.415C307.135 209.165 306.332 211.083 305.826 213.118C305.624 213.093 305.419 213.077 305.211 213.077C302.407 213.077 300.134 215.347 300.134 218.148ZM316.629 218.148C316.629 212.948 320.85 208.731 326.057 208.731C331.263 208.731 335.485 212.948 335.485 218.148C335.485 223.349 331.263 227.566 326.057 227.566C320.85 227.566 316.629 223.349 316.629 218.148Z" fill="white"/>
<path d="M101.088 52.0671L95.0708 69.6449C94.6868 70.7685 93.7296 71.5999 92.5644 71.8266L89.8848 72.347C89.8848 72.347 96.85 87.4552 108.59 84.9246C120.329 82.394 117.747 72.347 117.747 72.347L115.264 72.1464C113.777 72.0258 112.757 70.5955 113.131 69.1521L115.923 58.3493C115.923 58.3493 104.547 49.1876 101.089 52.0656L101.088 52.0671Z" fill="white"/>
<path d="M105.98 85.5278C95.7371 85.5278 89.6593 72.6232 89.5938 72.4807C89.5531 72.3921 89.5545 72.2889 89.5996 72.2016C89.6447 72.1144 89.7276 72.0519 89.8236 72.033L92.5032 71.5127C93.5535 71.3092 94.422 70.5533 94.7682 69.5402L100.785 51.9624C100.804 51.9072 100.837 51.8577 100.882 51.8199C104.502 48.8111 115.649 57.7199 116.122 58.1007C116.219 58.1792 116.263 58.3086 116.231 58.4292L113.44 69.232C113.285 69.828 113.402 70.4588 113.76 70.9603C114.117 71.4618 114.675 71.7787 115.288 71.8281L117.772 72.0287C117.908 72.0403 118.022 72.1362 118.055 72.2685C118.099 72.4386 119.1 76.4751 116.828 80.1482C115.252 82.6963 112.501 84.41 108.655 85.2385C107.734 85.4377 106.841 85.5293 105.978 85.5293L105.98 85.5278ZM90.3561 72.581C91.5198 74.8587 98.1868 86.8404 108.521 84.6121C112.188 83.8213 114.798 82.2079 116.281 79.8168C118.121 76.8472 117.651 73.5215 117.484 72.6464L115.238 72.4647C114.435 72.3993 113.706 71.9865 113.239 71.331C112.772 70.6754 112.619 69.8527 112.82 69.0721L115.559 58.4699C112.351 55.919 104.06 50.2239 101.36 52.2575L95.3719 69.7466C94.9515 70.9748 93.8983 71.892 92.6225 72.1391L90.3546 72.5796L90.3561 72.581Z" fill="black"/>
<path d="M126.44 30.2114C127.469 35.2828 123.518 39.8804 120.099 40.7278C119.978 40.7584 119.856 40.7845 119.738 40.8107C119.666 41.0621 119.575 41.3136 119.462 41.5607C118.118 44.4998 114.27 45.9301 111.039 45.6365C110.102 46.638 108.882 48.0319 107.589 49.7951C103.457 55.4247 100.524 52.8926 96.2316 47.3197C95.6599 46.5769 94.8365 45.6307 94.4089 44.0594C93.5593 40.9386 95.0286 38.1289 95.2148 37.7844C96.6157 35.1956 98.4181 35.2915 102.381 32.633C108.405 28.5907 108.509 25.5004 113.688 23.7547C115.059 23.2925 116.784 22.7343 118.938 23.1282C122.072 23.7024 125.629 26.2068 126.44 30.2128V30.2114Z" fill="black"/>
<path d="M105.188 54.7996C105.188 54.7996 108.103 61.5252 115.739 60.2824C123.375 59.0396 123.568 49.3357 122.886 39.0242C122.122 39.998 120.414 40.7481 119.065 41.3222C113.573 43.6552 108.634 40.5969 107.907 40.2045C109.215 41.8106 109.218 43.991 108.115 45.4678C107.507 46.2832 106.631 46.8704 104.603 46.9053C104.603 46.9053 103.365 43.6755 100.485 45.5506C97.6045 47.4257 98.6752 55.3359 105.187 54.7996H105.188Z" fill="white"/>
<path d="M113.916 60.7548C108.195 60.7548 105.526 56.1718 104.995 55.1339C102.143 55.2895 99.9219 53.8374 99.0229 51.2181C98.2097 48.843 98.7625 46.292 100.31 45.2847C101.241 44.6785 102.12 44.5027 102.923 44.7643C103.994 45.1117 104.592 46.135 104.808 46.5827C106.682 46.51 107.383 45.9155 107.857 45.2789C108.918 43.8573 108.835 41.8543 107.657 40.408C107.561 40.2903 107.561 40.1202 107.658 40.0025C107.756 39.8847 107.923 39.8527 108.057 39.9254L108.207 40.0083C112.889 42.6319 116.626 42.0113 118.938 41.0301C120.113 40.5301 121.891 39.7757 122.633 38.8294C122.714 38.7248 122.853 38.6812 122.979 38.7204C123.106 38.7597 123.196 38.873 123.205 39.0053C123.849 48.7645 123.862 59.2867 115.79 60.6007C115.132 60.7083 114.507 60.7563 113.916 60.7563V60.7548ZM105.188 54.4798C105.315 54.4798 105.431 54.5554 105.482 54.6717C105.597 54.9363 108.394 61.1531 115.688 59.967C123.042 58.7707 123.192 49.0305 122.614 39.7597C121.756 40.4909 120.465 41.0752 119.191 41.6159C116.901 42.5883 113.292 43.2293 108.806 41.0403C109.506 42.5534 109.37 44.3239 108.374 45.6597C107.578 46.7266 106.452 47.1946 104.612 47.2266C104.485 47.2295 104.356 47.1467 104.308 47.0217C104.302 47.0086 103.79 45.7135 102.725 45.3704C102.117 45.1742 101.422 45.3254 100.662 45.8196C99.3735 46.6583 98.9211 48.9389 99.631 51.0102C100.025 52.1585 101.355 54.7967 105.163 54.4813C105.172 54.4813 105.181 54.4813 105.189 54.4813L105.188 54.4798Z" fill="black"/>
<path d="M104.739 52.0801C104.607 52.0801 104.482 51.9972 104.437 51.8635C104.272 51.3809 104.101 50.8838 103.811 50.4797C103.517 50.0698 103.108 49.8096 102.719 49.7835C102.543 49.7718 102.409 49.6192 102.422 49.4419C102.433 49.266 102.586 49.1337 102.764 49.1454C103.35 49.1861 103.922 49.5364 104.332 50.1076C104.677 50.5887 104.872 51.1571 105.043 51.6586C105.1 51.8257 105.011 52.0074 104.844 52.0641C104.809 52.0757 104.774 52.0815 104.741 52.0815L104.739 52.0801Z" fill="black"/>
<path d="M106.584 44.0797C106.584 44.0797 107.828 49.4767 110.521 51.737C113.214 53.9973 117.154 49.1061 123.29 49.0668C123.29 49.0668 123.459 58.5745 122.092 60.6662C120.365 63.3073 106.666 64.2099 105.06 55.0293C105.06 55.0293 106.518 50.612 104.477 47.1351L106.583 44.0782L106.584 44.0797Z" fill="black"/>
<path d="M144.001 76.8951C140.528 72.2074 120.836 71.5083 116.207 71.2713C115.952 72.1042 115.596 72.9095 115.133 73.6697C113.792 75.8762 111.69 77.5739 109.349 78.6278C107.007 79.683 104.384 80.1598 101.824 79.8516C99.3174 79.5493 96.9317 78.4824 95.1991 76.6175C93.7866 75.0971 92.0918 73.2598 91.6583 71.267C87.4586 71.5054 77.5258 71.8527 73.5835 72.4691C66.0611 73.6464 59.5818 78.199 55.4737 84.6048C46.5097 98.5792 36.542 113.334 36.542 130.352C36.542 149.702 83.0319 148.022 83.0319 148.022H128.358L134.34 132.633C134.34 132.633 156.057 93.1647 144.001 76.8951Z" fill="#5479F7"/>
<path d="M189.942 83.1571C190.278 87.0512 190.962 90.9103 192.131 94.6431C192.745 96.6054 193.467 98.54 194.38 100.385C195.276 102.194 196.331 103.924 197.474 105.588C197.786 106.042 198.104 106.491 198.427 106.936C213.264 95.5951 224.622 82.6876 224.622 82.6876C233.023 81.0451 230.473 76.9839 230.473 76.9839C233.275 73.5084 230.246 71.6886 230.246 71.6886C231.497 66.5154 226.374 66.5285 226.374 66.5285C232.164 63.0545 237.68 55.5527 222.862 61.2855C214.105 64.6737 201.246 72.5302 189.724 79.5087C189.769 80.7268 189.836 81.9434 189.94 83.1586L189.942 83.1571Z" fill="white"/>
<path d="M199.604 106.347C199.533 106.347 199.463 106.324 199.404 106.276C199.265 106.165 199.245 105.963 199.356 105.827C199.757 105.328 200.211 105.075 200.692 104.806C200.838 104.725 200.988 104.642 201.143 104.548C210.263 96.8422 217.895 89.605 224.474 82.423C224.521 82.3721 224.583 82.3373 224.65 82.3242C226.486 81.9753 228.222 81.6454 229.47 80.4113C230.085 79.7572 231.006 78.4432 230.18 77.0957C230.103 76.9693 230.121 76.805 230.228 76.7004C231.477 75.4663 231.483 73.3136 230.242 71.8993C229.835 71.5199 229.972 70.9589 230.091 70.4632C230.162 70.1667 230.236 69.8614 230.196 69.6027C229.71 67.341 227.584 66.9034 226.361 66.8453C226.333 66.8453 226.307 66.8395 226.282 66.8322H226.278C226.243 66.8191 226.21 66.8017 226.181 66.7799C226.152 66.7566 226.127 66.7305 226.106 66.6985C226.089 66.6694 226.076 66.6389 226.067 66.6055C226.06 66.5793 226.057 66.5517 226.057 66.5255V66.5226V66.5197C226.057 66.4863 226.064 66.4528 226.074 66.4209C226.089 66.3787 226.111 66.3409 226.141 66.3089C226.16 66.2886 226.181 66.2711 226.204 66.2566L226.719 65.9267C229.062 64.4295 231.716 62.7332 232.017 59.954C231.925 59.8232 231.684 59.704 231.553 59.6415C229.484 59.3072 227.487 59.9133 225.555 60.4991C225.296 60.5776 225.039 60.6561 224.783 60.7302C214.637 64.6025 205.922 69.9588 196.695 75.6277C194.959 76.6946 193.166 77.7964 191.382 78.8749C191.231 78.9665 191.035 78.9185 190.943 78.7673C190.851 78.6162 190.899 78.4199 191.051 78.3284C192.831 77.2513 194.625 76.1495 196.359 75.084C205.612 69.3977 214.352 64.0283 224.576 60.1255C224.854 60.0427 225.11 59.9656 225.367 59.8871C227.382 59.2767 229.467 58.6444 231.698 59.0179C231.726 59.0223 231.754 59.031 231.78 59.0426C232.011 59.1487 232.491 59.3711 232.642 59.7825C232.658 59.8276 232.666 59.8741 232.661 59.922C232.401 62.8219 229.873 64.6504 227.624 66.104C227.589 66.1607 227.499 66.2377 227.382 66.3206C229.249 66.6738 230.456 67.7741 230.823 69.4864C230.887 69.8876 230.792 70.2728 230.711 70.6129C230.606 71.0432 230.549 71.315 230.699 71.4545C232.123 73.0738 232.159 75.4867 230.844 76.9751C231.454 78.1772 231.127 79.577 229.927 80.8546C228.558 82.2079 226.69 82.5829 224.873 82.9289C218.286 90.1109 210.651 97.3466 201.536 105.048C201.525 105.058 201.51 105.068 201.497 105.075C201.327 105.18 201.162 105.271 201.004 105.36C200.56 105.607 200.178 105.822 199.853 106.223C199.791 106.302 199.697 106.343 199.604 106.343V106.347Z" fill="black"/>
<path d="M211.479 80.1584C210.891 80.1584 210.298 80.013 209.774 79.6467C209.63 79.545 209.594 79.3459 209.696 79.202C209.797 79.058 209.997 79.0232 210.141 79.1235C211.133 79.8183 212.478 79.4912 213.329 78.9999C214.153 78.5246 214.845 77.808 215.514 77.1161C215.689 76.9359 215.864 76.7542 216.041 76.5783C216.854 75.7658 217.964 74.8035 219.34 74.5651C219.994 74.4517 220.647 74.5113 221.28 74.568C221.557 74.5927 221.845 74.6189 222.123 74.6291C222.845 74.6538 223.817 74.5491 224.355 73.9008C225.039 73.0752 224.627 71.6871 223.802 70.9952C222.906 70.2452 221.653 70.0271 220.436 69.9036C217.059 69.562 214.012 69.7989 211.374 70.6086C211.206 70.6609 211.027 70.5649 210.974 70.3963C210.922 70.2277 211.018 70.0489 211.187 69.9966C213.906 69.1623 217.04 68.9166 220.501 69.2669C221.822 69.4006 223.185 69.6434 224.215 70.5054C225.273 71.3906 225.792 73.1697 224.849 74.3078C224.147 75.1553 222.97 75.2992 222.103 75.2672C221.808 75.257 221.511 75.2294 221.224 75.2047C220.606 75.148 220.023 75.0957 219.452 75.1945C218.252 75.4024 217.243 76.2847 216.496 77.0289C216.322 77.2033 216.15 77.3807 215.977 77.5594C215.277 78.2833 214.553 79.0319 213.652 79.5523C213.068 79.8895 212.281 80.1584 211.482 80.1584H211.479Z" fill="black"/>
<path d="M221.352 77.5972C220.835 77.5972 220.255 77.5129 219.747 77.2033C219.017 76.757 218.544 75.7337 219.004 74.9227C219.091 74.7686 219.286 74.7148 219.44 74.802C219.595 74.8892 219.648 75.084 219.561 75.2381C219.296 75.7061 219.616 76.3733 220.082 76.6567C220.53 76.9315 221.134 77.0129 221.979 76.9169C224.938 76.5782 227.655 74.741 229.069 72.1217C229.154 71.9661 229.347 71.908 229.503 71.9923C229.658 72.0766 229.717 72.2699 229.632 72.4255C228.121 75.2264 225.216 77.1916 222.052 77.5521C221.845 77.5754 221.605 77.5957 221.352 77.5957V77.5972Z" fill="black"/>
<path d="M224.523 79.6089C224.454 79.6089 224.384 79.6089 224.314 79.606C223.523 79.5842 222.938 79.4287 222.475 79.1176C221.837 78.6874 221.508 77.9315 221.675 77.2774C221.719 77.1059 221.893 77.0027 222.065 77.0478C222.237 77.0914 222.34 77.2658 222.295 77.4373C222.181 77.8792 222.48 78.3501 222.833 78.5885C223.191 78.8284 223.667 78.949 224.331 78.9679C226.195 79.0173 228.045 78.3225 229.411 77.0565C229.541 76.9358 229.743 76.9446 229.864 77.0739C229.984 77.2033 229.976 77.4053 229.846 77.526C228.41 78.8574 226.48 79.6104 224.523 79.6104V79.6089Z" fill="black"/>
<path d="M225.173 82.1294C224.5 82.1294 223.839 81.7297 223.53 81.1323C223.217 80.529 223.272 79.7543 223.668 79.2019C223.771 79.058 223.97 79.0261 224.114 79.1278C224.258 79.231 224.29 79.4301 224.189 79.574C223.93 79.9345 223.893 80.4418 224.098 80.8372C224.304 81.2311 224.728 81.4985 225.184 81.4898H225.187C225.363 81.4898 225.505 81.6308 225.507 81.8067C225.508 81.9826 225.365 82.1279 225.189 82.1294H225.175H225.173Z" fill="black"/>
<path d="M191.216 78.6046L179.202 85.4682C172.516 89.2882 164.419 89.7388 157.35 86.6834L142.005 75.2018C138.523 73.1901 125.131 78.8822 124.449 81.6265C123.594 85.0685 122.932 88.5585 122.506 92.0804C122.117 95.2826 121.866 98.5008 122.031 101.726C122.127 103.593 122.332 105.443 122.605 107.285C126.836 109.792 154.298 125.407 174.452 120.92C188.327 117.83 204.461 102.465 204.461 102.465C204.461 102.465 204.357 85.2909 191.215 78.6075L191.216 78.6046Z" fill="#5479F7"/>
<path d="M78.8975 144.875C78.5557 147.183 83.0304 148.66 83.0304 148.66H96.8982L117.551 145.368C117.551 145.368 119.163 118.779 89.965 121.992C89.965 121.992 81.1538 129.65 78.8975 144.873V144.875Z" fill="white"/>
<path d="M102.34 145.792C102.324 145.792 102.31 145.792 102.294 145.789C102.119 145.763 101.997 145.602 102.023 145.427C102.237 143.966 101.892 142.34 101.054 140.85C100.349 139.596 99.3042 138.411 97.8611 137.229C97.5906 137.008 97.2996 136.78 96.9767 136.638C96.8152 136.566 96.741 136.379 96.8123 136.216C96.8836 136.055 97.0727 135.981 97.2341 136.052C97.6313 136.226 97.9761 136.495 98.2685 136.733C99.7755 137.966 100.869 139.21 101.614 140.536C102.521 142.149 102.892 143.918 102.657 145.519C102.634 145.677 102.497 145.792 102.342 145.792H102.34Z" fill="black"/>
<path d="M109.016 145.41C108.859 145.41 108.722 145.295 108.7 145.135C108.451 143.376 108.092 141.321 107.325 139.399C106.535 137.42 105.376 135.805 103.972 134.729C103.833 134.622 103.806 134.421 103.914 134.281C104.022 134.142 104.222 134.116 104.362 134.223C105.856 135.37 107.085 137.078 107.919 139.164C108.712 141.148 109.078 143.251 109.333 145.046C109.358 145.221 109.235 145.384 109.061 145.408C109.046 145.411 109.03 145.411 109.016 145.411V145.41Z" fill="black"/>
<path d="M114.364 145.41C114.351 145.41 114.337 145.41 114.326 145.407C114.15 145.387 114.025 145.227 114.046 145.051C114.941 137.565 110.04 132.912 109.991 132.866C109.861 132.745 109.854 132.543 109.975 132.414C110.095 132.284 110.298 132.277 110.427 132.398C110.479 132.446 115.615 137.321 114.682 145.126C114.663 145.289 114.525 145.408 114.365 145.408L114.364 145.41Z" fill="black"/>
<path d="M167.983 149.401H92.6521C92.2055 149.401 91.7604 149.286 91.3923 149.034C90.5311 148.442 90.2315 147.382 90.5719 146.472C91.4607 144.61 93.2965 143.956 96.0111 143.956H172.926L171.928 146.667C171.313 148.311 169.741 149.401 167.983 149.401Z" fill="black"/>
<path d="M168.41 149.401C169.917 149.401 171.271 148.484 171.828 147.086L185.163 113.644C185.517 112.757 185.408 111.751 184.871 110.961C184.334 110.17 183.441 109.696 182.485 109.696H136.188C133.397 109.696 130.91 111.452 129.979 114.08L117.461 149.4H168.41V149.401Z" fill="black"/>
<path d="M169.494 144.603H123.592C123.416 144.603 123.271 144.461 123.271 144.283C123.271 144.106 123.414 143.964 123.592 143.964H169.494C169.67 143.964 169.814 144.106 169.814 144.283C169.814 144.461 169.671 144.603 169.494 144.603Z" fill="white"/>
<path d="M54.7722 122.795C54.5977 122.795 54.4566 122.656 54.4522 122.481C54.4493 122.306 54.5889 122.159 54.7664 122.156L88.4475 121.518C88.6206 121.512 88.7704 121.654 88.7734 121.832C88.7763 122.008 88.6366 122.154 88.4591 122.157L54.778 122.795H54.7722Z" fill="black"/>
<path d="M66.0203 120.886C65.9898 120.886 65.9592 120.881 65.9287 120.872C65.7599 120.822 65.6639 120.643 65.7148 120.474C66.9426 116.388 68.6374 112.436 70.7511 108.729C71.1962 107.947 71.9192 106.914 73.0175 106.949C73.1935 106.955 73.3332 107.103 73.3274 107.279C73.3215 107.455 73.1746 107.591 72.9971 107.588C72.4211 107.568 71.8857 108.033 71.3082 109.046C69.2192 112.712 67.5434 116.618 66.3287 120.659C66.2865 120.797 66.16 120.887 66.0232 120.887L66.0203 120.886Z" fill="black"/>
<path d="M234.836 64.2332C237.865 64.2332 240.32 61.7798 240.32 58.7533C240.32 55.7269 237.865 53.2734 234.836 53.2734C231.807 53.2734 229.352 55.7269 229.352 58.7533C229.352 61.7798 231.807 64.2332 234.836 64.2332Z" fill="#5479F7"/>
<path d="M364.018 106.934H252.194V164.216H364.018V106.934Z" fill="white"/>
<path d="M364.018 164.536H252.194C252.018 164.536 251.874 164.393 251.874 164.216V106.934C251.874 106.758 252.017 106.614 252.194 106.614H364.018C364.194 106.614 364.338 106.757 364.338 106.934V164.216C364.338 164.392 364.196 164.536 364.018 164.536ZM252.514 163.896H363.698V107.254H252.514V163.896Z" fill="black"/>
<path d="M366.275 111.48C383.207 94.5624 383.207 67.1336 366.275 50.216C349.344 33.2984 321.893 33.2984 304.962 50.216C288.031 67.1336 288.031 94.5624 304.962 111.48C321.893 128.398 349.344 128.398 366.275 111.48Z" fill="white"/>
<path d="M335.618 124.489C311.535 124.489 291.943 104.912 291.943 80.8486C291.943 56.7851 311.535 37.2086 335.618 37.2086C359.701 37.2086 379.293 56.7851 379.293 80.8486C379.293 104.912 359.701 124.489 335.618 124.489ZM335.618 37.8482C311.889 37.8482 292.583 57.1383 292.583 80.8486C292.583 104.559 311.889 123.849 335.618 123.849C359.348 123.849 378.653 104.559 378.653 80.8486C378.653 57.1383 359.348 37.8482 335.618 37.8482Z" fill="black"/>
<path d="M335.619 55.083C335.443 55.083 335.299 54.9406 335.299 54.7632V46.132C335.299 45.9562 335.441 45.8123 335.619 45.8123C335.796 45.8123 335.939 45.9547 335.939 46.132V54.7632C335.939 54.9391 335.796 55.083 335.619 55.083Z" fill="black"/>
<path d="M335.619 115.885C335.443 115.885 335.299 115.743 335.299 115.565V106.934C335.299 106.758 335.441 106.614 335.619 106.614C335.796 106.614 335.939 106.757 335.939 106.934V115.565C335.939 115.741 335.796 115.885 335.619 115.885Z" fill="black"/>
<path d="M309.512 81.1685H300.874C300.698 81.1685 300.554 81.026 300.554 80.8487C300.554 80.6714 300.696 80.5289 300.874 80.5289H309.512C309.688 80.5289 309.832 80.6714 309.832 80.8487C309.832 81.026 309.689 81.1685 309.512 81.1685Z" fill="black"/>
<path d="M370.362 81.1685H361.724C361.548 81.1685 361.404 81.026 361.404 80.8487C361.404 80.6714 361.547 80.5289 361.724 80.5289H370.362C370.538 80.5289 370.682 80.6714 370.682 80.8487C370.682 81.026 370.54 81.1685 370.362 81.1685Z" fill="black"/>
<path d="M368.917 64.9686C365.14 57.0758 358.632 50.7427 350.618 47.1727L335.618 80.8472L368.917 64.9686Z" fill="#E2EAFF"/>
<path d="M328.547 97.1707C328.504 97.1707 328.46 97.1619 328.418 97.143C328.256 97.0718 328.184 96.8829 328.255 96.7215L335.326 80.7194C335.338 80.6917 335.354 80.667 335.373 80.6452L355.195 56.7358C355.307 56.6006 355.509 56.5802 355.646 56.6936C355.782 56.807 355.801 57.0076 355.688 57.1442L335.895 81.0202L328.843 96.9817C328.79 97.1009 328.672 97.1721 328.55 97.1721L328.547 97.1707Z" fill="black"/>
<path d="M268.77 52.9623H262.06V157.102H268.77V52.9623Z" fill="#E2EAFF"/>
<path d="M279.719 157.422C279.543 157.422 279.399 157.279 279.399 157.102V91.573C279.399 91.3971 279.542 91.2532 279.719 91.2532C279.897 91.2532 280.039 91.3956 280.039 91.573V157.102C280.039 157.278 279.897 157.422 279.719 157.422Z" fill="#E2EAFF"/>
<path d="M292.024 157.422C291.848 157.422 291.704 157.279 291.704 157.102V113.915C291.704 113.74 291.847 113.596 292.024 113.596C292.202 113.596 292.344 113.738 292.344 113.915V157.102C292.344 157.278 292.202 157.422 292.024 157.422Z" fill="#E2EAFF"/>
<path d="M304.327 157.422C304.151 157.422 304.007 157.279 304.007 157.102V122.476C304.007 122.3 304.149 122.156 304.327 122.156C304.504 122.156 304.647 122.298 304.647 122.476V157.102C304.647 157.278 304.504 157.422 304.327 157.422Z" fill="#E2EAFF"/>
<path d="M316.631 157.422C316.455 157.422 316.311 157.279 316.311 157.102V140.908C316.311 140.732 316.453 140.588 316.631 140.588C316.808 140.588 316.951 140.731 316.951 140.908V157.102C316.951 157.278 316.808 157.422 316.631 157.422Z" fill="#E2EAFF"/>
<path d="M328.933 157.422C328.757 157.422 328.613 157.279 328.613 157.102V132.435C328.613 132.259 328.756 132.115 328.933 132.115C329.111 132.115 329.253 132.258 329.253 132.435V157.102C329.253 157.278 329.111 157.422 328.933 157.422Z" fill="#E2EAFF"/>
<path d="M341.237 157.422C341.061 157.422 340.917 157.279 340.917 157.102V140.252C340.917 140.077 341.06 139.933 341.237 139.933C341.415 139.933 341.557 140.075 341.557 140.252V157.102C341.557 157.278 341.415 157.422 341.237 157.422Z" fill="#E2EAFF"/>
<path d="M353.54 157.422C353.364 157.422 353.22 157.279 353.22 157.102V134.482C353.22 134.306 353.362 134.162 353.54 134.162C353.717 134.162 353.86 134.305 353.86 134.482V157.102C353.86 157.278 353.717 157.422 353.54 157.422Z" fill="#E2EAFF"/>
<path d="M256.908 59.073H245.08C244.904 59.073 244.76 58.9306 244.76 58.7533C244.76 58.5759 244.902 58.4335 245.08 58.4335H256.908C257.084 58.4335 257.228 58.5759 257.228 58.7533C257.228 58.9306 257.086 59.073 256.908 59.073Z" fill="black"/>
<path d="M26.9231 115.885H1.32004C1.14402 115.885 1 115.743 1 115.565V47.1743C1 46.9984 1.14256 46.8545 1.32004 46.8545C1.49751 46.8545 1.64008 46.9969 1.64008 47.1743V115.247H26.9231C27.0991 115.247 27.2431 115.389 27.2431 115.567C27.2431 115.744 27.1005 115.887 26.9231 115.887V115.885Z" fill="black"/>
<path d="M399.68 218.468H367.324C367.148 218.468 367.004 218.326 367.004 218.148C367.004 217.971 367.146 217.829 367.324 217.829H399.36V81.1685H384.059C383.883 81.1685 383.739 81.026 383.739 80.8487C383.739 80.6714 383.882 80.5289 384.059 80.5289H399.68C399.856 80.5289 400 80.6714 400 80.8487V218.15C400 218.326 399.857 218.47 399.68 218.47V218.468Z" fill="black"/>
</g>
<defs>
<clipPath id="clip0_389_12">
<rect width="399" height="266" fill="white" transform="translate(1 17)"/>
</clipPath>
</defs>
</svg>
