<svg width="224" height="200" viewBox="0 0 224 200" fill="none" xmlns="http://www.w3.org/2000/svg">
<g clip-path="url(#clip0_1641_1707)">
<path d="M204.019 14.1723C200.451 14.1723 197.551 11.2757 197.551 7.71693C197.551 4.15818 200.453 1.2616 204.019 1.2616C207.584 1.2616 210.486 4.15818 210.486 7.71693C210.486 11.2757 207.584 14.1723 204.019 14.1723ZM204.019 2.37443C201.067 2.37443 198.666 4.77075 198.666 7.71693C198.666 10.6631 201.067 13.0594 204.019 13.0594C206.97 13.0594 209.371 10.6631 209.371 7.71693C209.371 4.77075 206.97 2.37443 204.019 2.37443Z" fill="#3399FF"/>
<path d="M24.7677 34.972C24.9036 36.6274 23.6688 38.08 22.0102 38.2157C20.3516 38.3513 18.8961 37.1189 18.7602 35.4635C18.6243 33.8081 19.8591 32.3554 21.5177 32.2198C23.1763 32.0841 24.6318 33.3166 24.7677 34.972Z" fill="#FF0066"/>
<path d="M6.02503 60.7262C4.77561 60.6299 3.59195 60.1457 2.61726 59.3202C1.39561 58.2847 0.65034 56.8364 0.520284 55.2422C0.249942 51.9518 2.71371 49.0553 6.01042 48.7854C9.30713 48.5156 12.2093 50.9746 12.4796 54.265C12.75 57.5554 10.2862 60.452 6.98949 60.7218C6.66508 60.7481 6.3436 60.7495 6.02503 60.7247V60.7262ZM6.8799 49.8939C6.62563 49.8749 6.36552 49.8749 6.10248 49.8953C3.41806 50.1141 1.41314 52.4725 1.63234 55.1518C1.73901 56.4499 2.34546 57.6283 3.33915 58.4713C4.33284 59.3144 5.59833 59.7198 6.89889 59.6133C9.58332 59.3946 11.5882 57.0362 11.369 54.3569C11.1703 51.9402 9.22968 50.0747 6.8799 49.8939Z" fill="#3399FF"/>
<path d="M46.0299 190.619C44.1521 190.619 42.625 189.095 42.625 187.221C42.625 185.346 44.1521 183.822 46.0299 183.822C47.9076 183.822 49.4347 185.346 49.4347 187.221C49.4347 189.095 47.9076 190.619 46.0299 190.619ZM46.0299 184.713C44.6445 184.713 43.5179 185.838 43.5179 187.221C43.5179 188.603 44.6445 189.728 46.0299 189.728C47.4152 189.728 48.5418 188.603 48.5418 187.221C48.5418 185.838 47.4152 184.713 46.0299 184.713Z" fill="#FF0066"/>
<path d="M46.7687 44.442C31.65 55.8081 18.9878 69.5808 14.313 86.2894C8.42252 107.35 15.3579 130.225 29.0021 147.301C54.2185 178.859 102.776 190.861 141.593 175.131C180.769 159.255 203.316 116.883 208.398 78.2443C210.494 62.3116 208.211 45.4615 199.131 32.1716C188.139 16.0829 168.113 6.94977 147.938 5.67941C127.763 4.40906 107.515 10.2795 89.3994 19.2697C75.878 25.9803 60.334 34.2442 46.7672 44.4435L46.7687 44.442Z" fill="#E2F1FF"/>
<path d="M150.64 199.999C150.463 200.012 150.306 199.883 150.284 199.705C150.262 199.522 150.392 199.355 150.576 199.333C151.12 199.268 151.638 199.116 152.115 198.881C152.28 198.8 152.481 198.868 152.563 199.033C152.645 199.198 152.576 199.399 152.411 199.481C151.866 199.749 151.276 199.923 150.656 199.997C150.65 199.997 150.646 199.997 150.64 199.999ZM153.668 198.498C153.577 198.505 153.484 198.474 153.414 198.407C153.279 198.28 153.273 198.069 153.401 197.935C153.526 197.802 153.646 197.659 153.756 197.512L153.76 197.506C154.006 197.189 154.264 196.893 154.529 196.625C154.659 196.494 154.871 196.492 155.002 196.621C155.134 196.75 155.135 196.962 155.007 197.093C154.761 197.343 154.521 197.618 154.292 197.913C154.166 198.081 154.03 198.243 153.887 198.394C153.827 198.457 153.748 198.492 153.67 198.498H153.668ZM156.122 196.101C156.003 196.11 155.885 196.056 155.816 195.95C155.715 195.795 155.759 195.588 155.914 195.487C156.342 195.21 156.795 194.978 157.261 194.8C157.353 194.765 157.446 194.732 157.538 194.701C157.713 194.643 157.903 194.738 157.961 194.913C158.02 195.088 157.925 195.277 157.749 195.336C157.668 195.363 157.583 195.393 157.501 195.425C157.079 195.587 156.668 195.797 156.278 196.049C156.228 196.081 156.174 196.099 156.12 196.101H156.122ZM161.083 195.098C161.07 195.098 161.056 195.098 161.042 195.098C160.906 195.092 160.769 195.083 160.622 195.073C160.242 195.048 159.81 195.021 159.35 195.041C159.165 195.05 159.009 194.907 159 194.723C158.992 194.539 159.133 194.383 159.319 194.375C159.817 194.351 160.269 194.382 160.666 194.408C160.809 194.417 160.944 194.426 161.072 194.433C161.257 194.442 161.4 194.598 161.391 194.781C161.384 194.952 161.248 195.086 161.081 195.099L161.083 195.098ZM162.79 194.936C162.63 194.948 162.48 194.843 162.44 194.682C162.396 194.503 162.506 194.322 162.686 194.278C163.206 194.151 163.696 193.952 164.185 193.667C164.344 193.574 164.549 193.628 164.642 193.788C164.736 193.947 164.682 194.151 164.521 194.245C163.976 194.561 163.428 194.784 162.845 194.927C162.826 194.932 162.809 194.935 162.79 194.936ZM165.757 193.265C165.658 193.272 165.557 193.235 165.484 193.155C165.36 193.018 165.37 192.807 165.508 192.684C165.874 192.352 166.259 191.958 166.681 191.477C166.802 191.338 167.014 191.323 167.153 191.446C167.292 191.567 167.306 191.778 167.184 191.917C166.744 192.417 166.342 192.83 165.956 193.179C165.899 193.231 165.828 193.259 165.756 193.265H165.757ZM168.062 190.708C167.98 190.714 167.895 190.69 167.827 190.634C167.683 190.517 167.662 190.307 167.778 190.164L167.862 190.062C168.192 189.655 168.534 189.235 168.883 188.829C169.003 188.689 169.215 188.673 169.355 188.793C169.495 188.912 169.512 189.124 169.392 189.264C169.05 189.662 168.711 190.079 168.382 190.483L168.299 190.587C168.239 190.661 168.153 190.704 168.063 190.709L168.062 190.708ZM190.671 187.509C190.182 187.546 189.673 187.544 189.159 187.506C188.975 187.493 188.836 187.333 188.849 187.149C188.862 186.965 189.023 186.827 189.207 186.84C189.776 186.881 190.335 186.875 190.871 186.821H190.882C191.061 186.806 191.221 186.939 191.238 187.12C191.257 187.304 191.123 187.467 190.939 187.486C190.851 187.495 190.76 187.504 190.67 187.509H190.671ZM184.341 187.928C183.897 187.96 183.47 187.959 183.037 187.925C182.853 187.91 182.716 187.749 182.731 187.565C182.745 187.381 182.907 187.244 183.091 187.259C183.49 187.291 183.884 187.292 184.293 187.261C184.439 187.251 184.586 187.237 184.746 187.218C184.752 187.218 184.756 187.218 184.762 187.216C184.939 187.203 185.096 187.331 185.118 187.509C185.14 187.693 185.01 187.859 184.826 187.881C184.658 187.902 184.499 187.916 184.342 187.928H184.341ZM192.616 187.137C192.466 187.149 192.323 187.057 192.274 186.907C192.217 186.732 192.314 186.544 192.489 186.486C192.838 186.372 193.173 186.232 193.483 186.07C193.63 185.993 193.797 185.898 193.977 185.788C194.135 185.692 194.341 185.742 194.437 185.899C194.534 186.057 194.484 186.262 194.326 186.359C194.133 186.475 193.955 186.577 193.794 186.662C193.451 186.841 193.082 186.996 192.697 187.121C192.67 187.13 192.644 187.135 192.618 187.137H192.616ZM186.504 187.562C186.347 187.574 186.2 187.473 186.157 187.315C186.116 187.167 186.184 187.013 186.312 186.939C186.111 186.873 185.91 186.802 185.712 186.726C185.539 186.661 185.453 186.467 185.519 186.294C185.584 186.122 185.779 186.036 185.951 186.102C186.435 186.287 186.933 186.442 187.434 186.561C187.613 186.491 187.788 186.416 187.959 186.337C188.127 186.258 188.326 186.331 188.403 186.499C188.481 186.666 188.409 186.865 188.241 186.942C188.058 187.027 187.871 187.107 187.681 187.183C187.632 187.221 187.572 187.244 187.509 187.248C187.202 187.362 186.888 187.464 186.568 187.55C186.547 187.556 186.526 187.559 186.505 187.56L186.504 187.562ZM181.391 187.636C181.355 187.639 181.317 187.636 181.281 187.626C180.748 187.488 180.232 187.304 179.609 187.032C179.44 186.958 179.362 186.761 179.437 186.593C179.511 186.424 179.709 186.347 179.877 186.421C180.466 186.678 180.951 186.85 181.45 186.98C181.629 187.027 181.737 187.209 181.69 187.387C181.654 187.528 181.529 187.626 181.391 187.635V187.636ZM170.336 188.118C170.241 188.125 170.143 188.091 170.071 188.017C169.943 187.884 169.946 187.673 170.079 187.544C170.542 187.098 170.989 186.728 171.446 186.413C171.598 186.308 171.807 186.347 171.911 186.499C172.016 186.65 171.977 186.859 171.825 186.962C171.398 187.256 170.979 187.603 170.542 188.024C170.483 188.081 170.409 188.112 170.334 188.118H170.336ZM189.609 186.102C189.498 186.111 189.384 186.063 189.314 185.966C189.204 185.818 189.238 185.609 189.387 185.5C189.837 185.173 190.248 184.801 190.611 184.395C190.734 184.258 190.946 184.245 191.083 184.369C191.221 184.492 191.234 184.703 191.11 184.84C190.715 185.282 190.268 185.685 189.78 186.041C189.727 186.079 189.667 186.099 189.607 186.103L189.609 186.102ZM195.605 185.446C195.492 185.454 195.38 185.406 195.308 185.309C195.2 185.158 195.233 184.95 195.384 184.842C195.841 184.512 196.291 184.162 196.724 183.799C196.866 183.681 197.076 183.698 197.196 183.84C197.314 183.981 197.297 184.191 197.155 184.311C196.709 184.684 196.246 185.046 195.776 185.384C195.723 185.422 195.665 185.443 195.605 185.447V185.446ZM184.293 186.02C184.23 186.025 184.164 186.012 184.106 185.978C183.796 185.804 183.492 185.616 183.205 185.421C183.032 185.301 182.834 185.167 182.628 185.015C182.479 184.906 182.447 184.697 182.557 184.549C182.666 184.4 182.875 184.368 183.024 184.477C183.223 184.623 183.416 184.754 183.585 184.871C183.856 185.056 184.141 185.233 184.433 185.396C184.594 185.486 184.652 185.689 184.562 185.851C184.505 185.953 184.402 186.013 184.294 186.022L184.293 186.02ZM178.198 186.35C178.146 186.354 178.092 186.346 178.043 186.324C177.442 186.067 176.958 185.915 176.476 185.831C176.295 185.799 176.172 185.625 176.204 185.444C176.236 185.263 176.41 185.141 176.592 185.173C177.126 185.268 177.655 185.432 178.304 185.71C178.474 185.783 178.553 185.978 178.481 186.147C178.43 186.265 178.319 186.34 178.198 186.348V186.35ZM173.175 186.213C173.032 186.223 172.893 186.141 172.839 186.001C172.772 185.829 172.856 185.635 173.029 185.57C173.494 185.389 173.982 185.256 174.479 185.176C174.578 185.16 174.679 185.145 174.777 185.133C174.961 185.11 175.127 185.241 175.149 185.425C175.171 185.609 175.041 185.775 174.857 185.797C174.768 185.807 174.677 185.82 174.587 185.835C174.137 185.908 173.694 186.029 173.273 186.192C173.241 186.205 173.209 186.211 173.177 186.214L173.175 186.213ZM198.242 183.232C198.147 183.239 198.049 183.205 197.978 183.131C197.849 182.998 197.852 182.787 197.984 182.658C198.391 182.262 198.774 181.861 199.157 181.43C199.28 181.292 199.492 181.28 199.629 181.401C199.768 181.524 199.78 181.735 199.658 181.872C199.265 182.316 198.871 182.728 198.451 183.137C198.393 183.194 198.318 183.226 198.242 183.23V183.232ZM191.896 183.557C191.83 183.561 191.761 183.547 191.7 183.51C191.541 183.415 191.49 183.21 191.585 183.052C191.877 182.565 192.112 182.062 192.283 181.559C192.343 181.384 192.533 181.29 192.707 181.35C192.882 181.41 192.976 181.6 192.916 181.773C192.729 182.322 192.475 182.867 192.159 183.395C192.1 183.493 192.001 183.55 191.896 183.557ZM181.554 183.946C181.456 183.954 181.355 183.917 181.284 183.84C180.866 183.389 180.512 182.896 180.233 182.374C180.145 182.211 180.208 182.009 180.371 181.922C180.533 181.836 180.736 181.897 180.824 182.059C181.075 182.53 181.395 182.976 181.775 183.385C181.901 183.52 181.892 183.732 181.757 183.857C181.699 183.911 181.627 183.94 181.554 183.945V183.946ZM200.605 180.722C200.509 180.729 200.409 180.694 200.338 180.618C200.211 180.484 200.217 180.272 200.35 180.145C200.732 179.784 201.181 179.399 201.684 179.005C201.828 178.891 202.039 178.916 202.154 179.06C202.27 179.205 202.243 179.415 202.099 179.53C201.612 179.912 201.18 180.283 200.811 180.63C200.753 180.685 200.68 180.716 200.605 180.72V180.722ZM192.974 180.318C192.958 180.318 192.941 180.318 192.925 180.318C192.741 180.304 192.602 180.144 192.616 179.959C192.638 179.663 192.64 179.362 192.616 179.068C192.603 178.881 192.58 178.691 192.548 178.506C192.537 178.449 192.527 178.392 192.517 178.337C192.48 178.156 192.599 177.98 192.78 177.945C192.961 177.91 193.138 178.026 193.173 178.207C193.185 178.27 193.196 178.332 193.208 178.395C193.243 178.602 193.268 178.812 193.284 179.019C193.307 179.348 193.307 179.68 193.284 180.01C193.271 180.177 193.138 180.306 192.976 180.318H192.974ZM179.941 180.945C179.782 180.956 179.633 180.853 179.592 180.692C179.489 180.288 179.424 179.879 179.394 179.476C179.38 179.283 179.374 179.091 179.377 178.903C179.38 178.719 179.532 178.57 179.716 178.573C179.9 178.576 180.049 178.728 180.046 178.912C180.043 179.081 180.049 179.254 180.062 179.428C180.089 179.792 180.15 180.163 180.242 180.53C180.287 180.71 180.178 180.891 179.999 180.936C179.98 180.94 179.961 180.943 179.942 180.945H179.941ZM203.304 178.576C203.19 178.585 203.076 178.535 203.006 178.435C202.9 178.283 202.938 178.076 203.088 177.969C203.532 177.659 204.017 177.333 204.532 177.002C204.687 176.902 204.894 176.947 204.995 177.102C205.096 177.256 205.051 177.463 204.896 177.564C204.389 177.891 203.909 178.211 203.472 178.518C203.421 178.554 203.363 178.573 203.306 178.578L203.304 178.576ZM206.201 176.7C206.079 176.709 205.958 176.652 205.891 176.541C205.794 176.384 205.844 176.178 206.002 176.082C206.55 175.748 207.06 175.446 207.488 175.195C207.647 175.102 207.852 175.154 207.947 175.313C208.04 175.472 207.988 175.677 207.829 175.771C207.403 176.022 206.895 176.323 206.351 176.654C206.304 176.683 206.253 176.698 206.202 176.702L206.201 176.7ZM192.315 176.98C192.184 176.991 192.054 176.921 191.991 176.795C191.748 176.308 191.434 175.84 191.083 175.439C190.962 175.3 190.975 175.089 191.114 174.968C191.253 174.847 191.465 174.86 191.586 174.998C191.975 175.442 192.323 175.961 192.59 176.498C192.672 176.663 192.605 176.864 192.439 176.945C192.4 176.966 192.358 176.976 192.315 176.979V176.98ZM180.014 177.548C179.972 177.551 179.929 177.546 179.885 177.532C179.71 177.475 179.614 177.287 179.671 177.11C179.692 177.045 179.714 176.979 179.739 176.913C179.923 176.41 180.178 175.93 180.495 175.491C180.603 175.341 180.812 175.308 180.962 175.415C181.113 175.523 181.146 175.732 181.038 175.882C180.756 176.273 180.531 176.698 180.368 177.144C180.346 177.202 180.325 177.26 180.306 177.319C180.262 177.452 180.144 177.539 180.013 177.548H180.014ZM209.164 174.928C209.047 174.937 208.929 174.883 208.86 174.778C208.759 174.624 208.802 174.416 208.957 174.316C209.411 174.018 209.847 173.67 210.25 173.28C210.383 173.152 210.595 173.156 210.723 173.289C210.852 173.422 210.848 173.633 210.715 173.762C210.281 174.18 209.813 174.555 209.323 174.876C209.274 174.908 209.22 174.925 209.164 174.93V174.928ZM190.062 174.427C189.992 174.432 189.919 174.415 189.854 174.373C189.406 174.08 188.91 173.842 188.381 173.665C188.206 173.607 188.111 173.417 188.17 173.242C188.228 173.067 188.418 172.972 188.593 173.031C189.176 173.225 189.724 173.489 190.221 173.813C190.376 173.913 190.418 174.12 190.318 174.275C190.258 174.365 190.163 174.418 190.062 174.425V174.427ZM181.985 174.785C181.879 174.793 181.769 174.749 181.697 174.659C181.583 174.513 181.608 174.304 181.754 174.19C182.221 173.826 182.742 173.515 183.302 173.267C183.471 173.193 183.669 173.269 183.743 173.438C183.818 173.607 183.742 173.804 183.572 173.878C183.062 174.103 182.589 174.386 182.166 174.715C182.112 174.758 182.048 174.781 181.985 174.785ZM211.641 172.558C211.564 172.564 211.485 172.542 211.417 172.493C211.27 172.383 211.239 172.173 211.349 172.026C211.669 171.596 211.974 171.122 212.256 170.617C212.345 170.455 212.55 170.398 212.711 170.487C212.873 170.576 212.93 170.78 212.841 170.941C212.546 171.472 212.224 171.971 211.885 172.424C211.825 172.506 211.735 172.551 211.641 172.558ZM186.827 173.33C186.808 173.33 186.79 173.33 186.771 173.33C186.276 173.285 185.921 173.304 185.824 173.309H185.817C185.595 173.327 185.367 173.355 185.142 173.395C184.961 173.428 184.787 173.308 184.753 173.126C184.721 172.945 184.841 172.77 185.023 172.738C185.272 172.692 185.522 172.662 185.769 172.643H185.776C185.918 172.633 186.302 172.614 186.834 172.663C187.018 172.681 187.152 172.843 187.136 173.026C187.122 173.191 186.989 173.317 186.828 173.328L186.827 173.33ZM213.326 169.565C213.275 169.57 213.222 169.561 213.171 169.539C213.002 169.468 212.921 169.271 212.994 169.102C213.206 168.604 213.406 168.07 213.589 167.516C213.646 167.341 213.836 167.246 214.011 167.303C214.187 167.36 214.283 167.55 214.225 167.725C214.036 168.297 213.83 168.846 213.611 169.363C213.56 169.482 213.449 169.557 213.327 169.565H213.326ZM214.41 166.303C214.375 166.306 214.339 166.303 214.304 166.293C214.124 166.247 214.016 166.065 214.062 165.887C214.198 165.358 214.323 164.799 214.435 164.226C214.47 164.045 214.647 163.927 214.828 163.962C215.009 163.997 215.128 164.173 215.093 164.354C214.977 164.939 214.85 165.509 214.711 166.052C214.675 166.195 214.551 166.293 214.412 166.303H214.41ZM215.08 162.928C215.055 162.929 215.031 162.928 215.005 162.925C214.822 162.897 214.697 162.728 214.723 162.546C214.748 162.379 214.771 162.21 214.795 162.04C214.819 161.857 214.987 161.729 215.172 161.754C215.354 161.779 215.483 161.946 215.458 162.13C215.435 162.304 215.41 162.476 215.385 162.645C215.362 162.802 215.231 162.918 215.078 162.929L215.08 162.928Z" fill="#FF0066"/>
<path d="M214.603 161.563C219.517 161.563 223.5 157.587 223.5 152.683C223.5 147.779 219.517 143.804 214.603 143.804C209.69 143.804 205.707 147.779 205.707 152.683C205.707 157.587 209.69 161.563 214.603 161.563Z" fill="#FF0066"/>
<path d="M212.205 154.092L213.303 157.482L214.854 154.757L220.332 147.94L215.01 150.964C215.01 150.964 212.498 152.918 212.409 153.121C212.32 153.325 212.203 154.091 212.203 154.091L212.205 154.092Z" fill="#EBEBEB"/>
<path d="M208.816 153.287L220.333 147.94L212.205 154.092L208.816 153.287Z" fill="white"/>
<path d="M217.467 155.608L213.309 154.641L220.333 147.94L217.467 155.608Z" fill="white"/>
<path d="M167.11 169.635L90.006 184.954C87.9762 185.357 86.0152 184.101 85.6265 182.146L53.1328 19.1282L133.912 3.07889L167.11 169.635Z" fill="white"/>
<path d="M54.1901 45.6832C53.9504 45.6832 53.721 45.6351 53.5179 45.5432C53.1847 45.39 52.9582 45.1202 52.8954 44.8052L51.909 39.8565C51.7833 39.2249 52.3152 38.6036 53.119 38.4446L53.5924 38.3513L55.0274 45.5548L54.5554 45.6482C54.4327 45.673 54.3114 45.6847 54.1901 45.6847V45.6832ZM53.0897 39.1126C52.739 39.2322 52.4921 39.4977 52.5388 39.7296L53.5252 44.6783C53.5559 44.8314 53.702 44.9204 53.7882 44.9598C53.9256 45.0225 54.0966 45.0502 54.2719 45.0385L53.0912 39.1126H53.0897Z" fill="#003049"/>
<path d="M149.257 58.2249L145.09 37.3085L145.433 37.2399C145.902 37.1466 146.37 37.1728 146.751 37.3129C147.185 37.4718 147.478 37.7737 147.551 38.1398L151.213 56.514C151.354 57.2272 150.647 57.9477 149.602 58.1548L149.259 58.2234L149.257 58.2249ZM145.918 37.886L149.803 57.376C150.31 57.1864 150.565 56.8553 150.524 56.6526L146.862 38.2784C146.838 38.1559 146.709 38.0436 146.509 37.9706C146.339 37.9079 146.135 37.8802 145.917 37.8875L145.918 37.886Z" fill="#003049"/>
<path d="M57.9682 64.0399C57.7023 64.0399 57.4451 63.9874 57.2215 63.8838C56.8547 63.7147 56.6048 63.42 56.5362 63.0744L54.4538 52.6271C54.315 51.93 54.9053 51.2459 55.7997 51.068L56.1153 51.0053L58.6931 63.9378L58.3789 64.0005C58.243 64.0282 58.1056 64.0414 57.9712 64.0414L57.9682 64.0399ZM55.6155 51.7929C55.259 51.9518 55.031 52.2377 55.0822 52.5002L57.1645 62.9475C57.204 63.1429 57.3852 63.2523 57.4889 63.3004C57.6161 63.3588 57.768 63.3923 57.9273 63.3967L55.6141 51.7929H55.6155Z" fill="#003049"/>
<path d="M61.1167 79.834C60.8507 79.834 60.5935 79.7815 60.37 79.6779C60.0032 79.5088 59.7533 79.2141 59.6846 78.8685L57.6022 68.4212C57.4634 67.7241 58.0538 67.04 58.9481 66.8621L59.2637 66.7994L61.8415 79.7319L61.5273 79.7946C61.3914 79.8223 61.254 79.8355 61.1196 79.8355L61.1167 79.834ZM58.764 67.587C58.4074 67.7459 58.1795 68.0318 58.2306 68.2943L60.313 78.7416C60.3524 78.937 60.5336 79.0464 60.6374 79.0945C60.7645 79.1529 60.9165 79.1864 61.0758 79.1908L58.7625 67.587H58.764Z" fill="#003049"/>
<path d="M80.9939 176.855C82.3821 183.822 89.3745 188.304 96.6109 186.866L159.159 174.44C167.904 172.125 171.506 165.975 169.748 159.222L140.14 10.6689C138.752 3.70313 131.76 -0.778843 124.523 0.65924L61.975 13.0857C54.7386 14.5238 49.9966 21.3364 51.3863 28.3022L80.9954 176.855H80.9939Z" fill="white" stroke="#003049" stroke-width="5.34" stroke-miterlimit="10"/>
<path d="M164.897 159.751C165.739 163.978 162.816 168.616 158.425 169.488L95.3811 182.014C90.9899 182.886 86.7229 179.795 85.8812 175.57L56.145 26.3785C55.3018 22.1517 58.6906 18.5186 63.0833 17.6464L70.2949 16.2142L70.2919 16.2025L119.833 6.35906V6.37073L125.703 5.20539C130.095 4.3332 134.47 7.09415 135.313 11.3209L164.897 159.753V159.751Z" stroke="#003049" stroke-width="5.34" stroke-miterlimit="10"/>
<path d="M157.147 54.914H89.6753C84.7741 54.914 80.8008 59.4208 80.8008 64.9806V102.021C80.8008 107.581 84.7741 112.087 89.6753 112.087H106.179C107.182 112.087 108.151 112.493 108.913 113.232L120.73 126.465C122.274 127.963 124.549 127.963 126.094 126.465L137.91 113.232C138.672 112.493 139.642 112.087 140.644 112.087H157.148C162.049 112.087 166.023 107.581 166.023 102.021V64.9806C166.023 59.4208 162.049 54.914 157.148 54.914H157.147Z" fill="#3399FF"/>
<path d="M180.83 64.387L169.543 58.9031L185.138 56.1902L180.83 64.387Z" fill="#3399FF"/>
<path d="M181.933 47.976L168.66 54.3394L177.763 39.6785L181.933 47.976Z" fill="#3399FF"/>
<path d="M166.75 42.8931L164.964 52.5571L159.938 41.9611L166.75 42.8931Z" fill="#3399FF"/>
<path d="M101.394 68.7917C101.225 68.7917 101.054 68.834 100.9 68.92C100.582 69.098 100.383 69.4349 100.383 69.7995V99.5748C100.383 99.9395 100.58 100.276 100.9 100.454C101.054 100.54 101.223 100.583 101.394 100.583C101.578 100.583 101.761 100.533 101.923 100.434L119.482 89.676C121.234 88.6025 122.279 86.7371 122.279 84.6865C122.279 82.6358 121.233 80.7704 119.482 79.6969L101.923 68.939C101.761 68.8398 101.578 68.7902 101.394 68.7902V68.7917Z" fill="#FFDF66"/>
<path d="M101.393 100.785C101.185 100.785 100.98 100.731 100.801 100.631C100.418 100.416 100.18 100.012 100.18 99.5748V69.7995C100.18 69.362 100.418 68.9565 100.801 68.7436C100.982 68.6429 101.187 68.589 101.393 68.589C101.616 68.589 101.837 68.6502 102.027 68.7684L119.586 79.5263C121.398 80.6362 122.481 82.5658 122.481 84.6879C122.481 86.81 121.399 88.7396 119.586 89.851L102.027 100.609C101.835 100.726 101.616 100.788 101.393 100.788V100.785ZM101.393 68.993C101.255 68.993 101.118 69.028 100.998 69.0951C100.744 69.238 100.584 69.5064 100.584 69.7981V99.5734C100.584 99.8651 100.742 100.135 100.998 100.276C101.118 100.343 101.255 100.378 101.393 100.378C101.542 100.378 101.688 100.338 101.815 100.259L119.374 89.501C121.065 88.4654 122.074 86.6642 122.074 84.6835C122.074 82.7029 121.065 80.9016 119.374 79.8661L101.815 69.1082C101.688 69.0309 101.542 68.9886 101.393 68.9886V68.993Z" fill="#003149"/>
<path d="M145.737 68.7917C145.552 68.7917 145.37 68.8413 145.208 68.9405L127.648 79.6984C125.896 80.7718 124.852 82.6372 124.852 84.6879C124.852 86.7386 125.898 88.604 127.648 89.6774L145.208 100.435C145.37 100.535 145.552 100.584 145.737 100.584C145.906 100.584 146.077 100.542 146.23 100.456C146.549 100.278 146.748 99.9409 146.748 99.5763V69.801C146.748 69.4363 146.551 69.0994 146.23 68.9215C146.077 68.8354 145.908 68.7931 145.737 68.7931V68.7917Z" fill="#FFDF66"/>
<path d="M145.737 100.785C145.513 100.785 145.294 100.724 145.102 100.606L127.543 89.8481C125.731 88.7382 124.648 86.8086 124.648 84.685C124.648 82.5614 125.73 80.6333 127.543 79.5233L145.102 68.7654C145.294 68.6488 145.513 68.586 145.737 68.586C145.944 68.586 146.149 68.64 146.328 68.7406C146.711 68.955 146.949 69.359 146.949 69.7966V99.5719C146.949 100.009 146.711 100.415 146.328 100.628C146.147 100.729 145.943 100.782 145.737 100.782V100.785ZM145.737 68.993C145.588 68.993 145.441 69.0338 145.314 69.1126L127.755 79.8705C126.064 80.906 125.055 82.7073 125.055 84.6879C125.055 86.6686 126.064 88.4698 127.755 89.5053L145.314 100.263C145.441 100.341 145.588 100.383 145.737 100.383C145.874 100.383 146.01 100.348 146.131 100.281C146.385 100.138 146.545 99.8695 146.545 99.5778V69.8024C146.545 69.5107 146.387 69.2409 146.131 69.0994C146.011 69.0323 145.874 68.9973 145.737 68.9973V68.993Z" fill="#003149"/>
<path d="M101.56 100.079C101.347 100.079 101.157 99.9453 101.084 99.7455C101.012 99.5442 101.075 99.3211 101.24 99.1854L122.936 81.4821C123.16 81.2998 123.443 81.1992 123.733 81.1992C124.022 81.1992 124.306 81.2998 124.529 81.4821L146.225 99.1854C146.39 99.3196 146.453 99.5442 146.382 99.7455C146.31 99.9468 146.12 100.079 145.905 100.079H101.559H101.56Z" fill="#FFDA47"/>
<path d="M145.905 100.282H101.559C101.261 100.282 100.992 100.094 100.893 99.8126C100.792 99.5325 100.881 99.216 101.112 99.0279L122.808 81.3246C123.068 81.1117 123.397 80.995 123.733 80.995C124.069 80.995 124.398 81.1117 124.658 81.3246L146.354 99.0279C146.585 99.216 146.673 99.5311 146.573 99.8126C146.472 100.093 146.205 100.282 145.907 100.282H145.905ZM123.733 81.4004C123.49 81.4004 123.252 81.485 123.065 81.6382L101.369 99.3415C101.27 99.4217 101.233 99.5559 101.276 99.6769C101.318 99.7965 101.433 99.8767 101.56 99.8767H145.907C146.034 99.8767 146.149 99.7965 146.192 99.6769C146.234 99.5573 146.198 99.4231 146.098 99.3415L124.402 81.6382C124.214 81.485 123.977 81.4004 123.734 81.4004H123.733Z" fill="#003149"/>
<path d="M123.731 80.6931C123.324 80.6931 122.928 80.8345 122.614 81.0912L100.918 98.7945C100.588 99.0644 100.462 99.5121 100.605 99.9132C100.749 100.314 101.13 100.583 101.557 100.583H145.903C146.33 100.583 146.711 100.314 146.854 99.9132C146.998 99.5121 146.873 99.0644 146.542 98.7945L124.846 81.0912C124.531 80.8345 124.135 80.6931 123.729 80.6931H123.731Z" fill="#FFDA47"/>
<path d="M145.903 100.785H101.557C101.046 100.785 100.587 100.463 100.414 99.9818C100.242 99.5005 100.392 98.9608 100.788 98.6385L122.484 80.9352C122.835 80.6493 123.277 80.4918 123.73 80.4918C124.183 80.4918 124.624 80.6493 124.975 80.9352L146.671 98.6385C147.067 98.9623 147.217 99.5019 147.045 99.9818C146.872 100.463 146.413 100.785 145.902 100.785H145.903ZM123.731 80.8958C123.372 80.8958 123.021 81.0212 122.743 81.2473L101.047 98.9506C100.784 99.165 100.683 99.5253 100.797 99.8447C100.911 100.164 101.217 100.38 101.557 100.38H145.903C146.244 100.38 146.549 100.166 146.663 99.8447C146.777 99.5253 146.678 99.165 146.413 98.9506L124.717 81.2473C124.44 81.0198 124.089 80.8958 123.73 80.8958H123.731Z" fill="#003149"/>
<path d="M123.565 88.1679C123.972 88.1679 124.368 88.0264 124.682 87.7697L146.378 70.0664C146.708 69.7966 146.834 69.3488 146.69 68.9478C146.547 68.5467 146.166 68.2783 145.739 68.2783H101.393C100.966 68.2783 100.585 68.5467 100.442 68.9478C100.298 69.3488 100.423 69.7966 100.754 70.0664L122.45 87.7697C122.764 88.0264 123.16 88.1679 123.567 88.1679H123.565Z" fill="#FFDA47"/>
<path d="M146.904 68.8705C147.079 69.362 146.926 69.9133 146.521 70.2429L124.825 87.9462C124.47 88.2364 124.023 88.3954 123.564 88.3954C123.105 88.3954 122.658 88.2364 122.303 87.9462L100.607 70.2429C100.202 69.9133 100.049 69.3605 100.224 68.8705C100.399 68.3789 100.868 68.0493 101.392 68.0493H145.738C146.261 68.0493 146.73 68.3789 146.906 68.8705H146.904ZM124.536 87.5932L146.232 69.8899C146.486 69.6814 146.584 69.3343 146.473 69.0251C146.362 68.7159 146.067 68.5073 145.738 68.5073H101.392C101.063 68.5073 100.766 68.7159 100.657 69.0251C100.546 69.3343 100.643 69.6828 100.898 69.8899L122.594 87.5932C122.867 87.8164 123.212 87.9389 123.566 87.9389C123.919 87.9389 124.264 87.8164 124.537 87.5932H124.536Z" fill="#003149"/>
</g>
<defs>
<clipPath id="clip0_1641_1707">
<rect width="223" height="200" fill="white" transform="translate(0.5)"/>
</clipPath>
</defs>
</svg>
