<svg width="56" height="56" viewBox="0 0 56 56" fill="none" xmlns="http://www.w3.org/2000/svg">
<path d="M32.476 25.3138H14.5424C15.9142 19.0955 21.2311 14.4065 27.6781 14.0876C26.3844 13.718 25.0268 13.5078 23.6336 13.5078C15.502 13.5078 8.91992 20.2116 8.91992 28.4954C8.91992 36.7792 15.502 43.4902 23.6265 43.4902C25.0268 43.4902 26.3773 43.2728 27.6639 42.9105C21.224 42.5916 15.9071 37.9025 14.5353 31.6843H32.4689V25.3138H32.476Z" fill="#F55353"/>
<path d="M42.2365 25.3142H47.994C46.48 15.0157 37.7869 7.10156 27.2598 7.10156C22.1563 7.10156 17.4792 8.95689 13.8398 12.0515C16.6973 10.2832 20.0381 9.23954 23.6347 9.23954C32.9889 9.23954 40.7438 16.197 42.2365 25.3142ZM23.6347 47.7594C20.0381 47.7594 16.6902 46.7158 13.8398 44.9402C17.4863 48.0348 22.1634 49.8901 27.267 49.8901C37.794 49.8901 46.4871 41.976 48.0011 31.6774H42.2436C40.7509 40.7947 32.996 47.7521 23.6418 47.7521L23.6347 47.7594Z" fill="#F55353"/>
</svg>
