<svg width="72" height="72" viewBox="0 0 72 72" fill="none" xmlns="http://www.w3.org/2000/svg">
<path d="M36 2.25C29.3249 2.25 22.7997 4.2294 17.2495 7.9379C11.6994 11.6464 7.37354 16.9174 4.81908 23.0844C2.26462 29.2514 1.59626 36.0374 2.89851 42.5843C4.20076 49.1312 7.41514 55.1448 12.1352 59.8649C16.8552 64.5849 22.8689 67.7992 29.4157 69.1015C35.9626 70.4038 42.7486 69.7354 48.9156 67.1809C55.0826 64.6265 60.3536 60.3007 64.0621 54.7505C67.7706 49.2003 69.75 42.6751 69.75 36C69.739 27.0523 66.1797 18.4743 59.8527 12.1473C53.5257 5.82035 44.9477 2.26102 36 2.25ZM25.7063 19.1138C25.7063 17.9412 26.1721 16.8166 27.0012 15.9875C27.8304 15.1583 28.9549 14.6925 30.1275 14.6925H41.8725C43.0451 14.6925 44.1697 15.1583 44.9988 15.9875C45.828 16.8166 46.2938 17.9412 46.2938 19.1138V21.555H41.535V19.5637C41.5325 19.5358 41.5195 19.5099 41.4986 19.4911C41.4778 19.4723 41.4506 19.4621 41.4225 19.4625H30.5775C30.5507 19.4625 30.5249 19.4732 30.5059 19.4922C30.4869 19.5111 30.4763 19.5369 30.4763 19.5637V21.555H25.7063V19.1138ZM58.5 54.09C58.5 54.9433 58.161 55.7617 57.5576 56.3651C56.9542 56.9685 56.1358 57.3075 55.2825 57.3075H16.7175C16.2955 57.3075 15.8777 57.2242 15.4879 57.0624C15.0982 56.9005 14.7442 56.6634 14.4464 56.3644C14.1485 56.0655 13.9126 55.7107 13.7521 55.3204C13.5916 54.9301 13.5098 54.512 13.5113 54.09V32.9175C16.8188 39.9938 23.67 43.1888 31.2638 42.6488C31.4533 43.5535 31.9478 44.3657 32.6646 44.9493C33.3814 45.533 34.2769 45.8527 35.2013 45.855H36.81C37.3725 45.8565 37.9288 45.7389 38.4426 45.5101C38.9564 45.2814 39.416 44.9465 39.7913 44.5275C40.2683 43.9953 40.5979 43.3476 40.7475 42.6488C48.3413 43.1775 55.1813 39.9938 58.5 32.9288V54.09ZM32.7938 41.8387V40.23C32.7964 39.5923 33.0509 38.9815 33.5019 38.5306C33.9528 38.0797 34.5636 37.8252 35.2013 37.8225H36.81C37.4472 37.8269 38.057 38.082 38.5075 38.5325C38.958 38.9831 39.2131 39.5929 39.2175 40.23C39.4313 43.515 38.4975 44.46 35.2013 44.2463C34.8849 44.2468 34.5716 44.185 34.2793 44.0642C33.9869 43.9434 33.7213 43.7661 33.4976 43.5424C33.2739 43.3188 33.0966 43.0531 32.9758 42.7608C32.855 42.4684 32.7932 42.1551 32.7938 41.8387ZM43.2338 41.04H40.8263V40.23C40.8257 39.165 40.4023 38.1438 39.6493 37.3907C38.8962 36.6377 37.875 36.2143 36.81 36.2137H35.2013C34.6057 36.225 34.0195 36.3643 33.4826 36.6222C32.9457 36.8801 32.4706 37.2506 32.0895 37.7085C31.7085 38.1664 31.4305 38.7009 31.2744 39.2757C31.1184 39.8506 31.0879 40.4523 31.185 41.04H28.7663C24.722 41.0284 20.8469 39.4159 17.9882 36.5551C15.1295 33.6943 13.5199 29.818 13.5113 25.7738C13.4859 25.4416 13.5293 25.1077 13.6386 24.793C13.748 24.4784 13.921 24.1896 14.1469 23.9447C14.3728 23.6998 14.6467 23.5041 14.9515 23.3697C15.2564 23.2354 15.5856 23.1653 15.9188 23.1637H56.0925C56.7302 23.1664 57.341 23.4209 57.7919 23.8718C58.2428 24.3228 58.4974 24.9336 58.5 25.5712C58.5193 27.591 58.1391 29.5946 57.3812 31.4668C56.6234 33.3391 55.5028 35.043 54.084 36.4806C52.6652 37.9182 50.9762 39.0611 49.1141 39.8436C47.252 40.6261 45.2536 41.0327 43.2338 41.04Z" fill="url(#paint0_linear_263_4847)"/>
<defs>
<linearGradient id="paint0_linear_263_4847" x1="2.25002" y1="36" x2="69.75" y2="36" gradientUnits="userSpaceOnUse">
<stop stop-color="#FC6736"/>
<stop offset="1" stop-color="#FC6736"/>
</linearGradient>
</defs>
</svg>
