<svg width="48" height="48" viewBox="0 0 48 48" fill="none" xmlns="http://www.w3.org/2000/svg">
<path d="M46.5 17.25H25.5C25.05 17.25 24.75 17.55 24.75 18V23.025L22.875 22.575L20.85 20.55C23.1 18.45 23.25 14.025 23.25 12.75C26.025 12.75 27.975 12 28.725 10.65C29.025 10.05 29.25 9.075 28.425 7.8C27.6 6.6 26.55 6 25.125 6H22.425C22.2 4.65 21.3 1.8 17.775 0.975C17.025 0.825 15.975 0.75 15.75 0.75C7.95 0.75 6.75 4.5 6.75 6.75V10.5C6.75 11.025 6.975 11.625 7.425 12.075C7.05 12.525 6.75 13.275 6.75 14.25C6.75 16.125 8.025 16.95 9.15 17.175C9.525 18.3 10.05 19.125 10.575 19.8L7.8 22.575C7.2 23.25 7.95 23.925 7.95 23.925L4.725 27.15C4.425 27.525 1.5 30.525 1.5 33C1.5 33.15 1.5 33.225 1.575 33.3L5.325 40.8C5.4 41.025 5.625 41.1 5.775 41.175C5.85 41.175 6.525 41.4 7.5 41.4C7.5 41.475 7.425 45.675 7.425 45.675C7.425 46.125 7.725 46.425 8.175 46.425C8.625 46.425 8.925 46.125 8.925 45.675V43.575C10.05 44.925 11.85 46.425 14.175 46.425C16.5 46.425 20.775 44.925 24.525 43.575C25.2 43.35 25.8 43.125 26.4 42.9C26.55 42.825 26.7 42.825 26.925 42.75V45.75C26.925 46.2 27.225 46.5 27.675 46.5C28.125 46.5 28.425 46.2 28.425 45.75V42.375C29.775 42.075 31.05 41.925 32.175 42H37.425C38.7 42 40.425 41.55 40.95 40.2C41.1 39.825 41.175 39.45 41.175 39H46.425C46.875 39 47.175 38.7 47.175 38.25V18C47.25 17.55 46.95 17.25 46.5 17.25ZM38.25 18.75V22.8L36.3 21.825C36.225 21.75 36.15 21.75 36 21.75C35.85 21.75 35.775 21.75 35.7 21.825L33.75 22.8V18.75H38.25ZM16.35 22.875C16.275 22.725 15.9 22.5 15.9 22.5C16.8 22.5 17.55 22.35 18.3 22.125L18 23.025L17.25 24.975C17.25 24.975 16.425 22.875 16.35 22.875ZM20.025 21.825L21.6 23.4L20.85 24.825L19.575 23.1L20.025 21.825ZM21.375 7.5C20.7 8.025 20.1 8.7 19.65 9.3C18.375 11.175 17.25 11.25 17.25 11.25H13.275C13.575 10.95 13.875 10.575 14.1 10.2C15 8.85 16.65 7.5 18 7.5H21.375ZM27.15 8.7C27.525 9.225 27.6 9.675 27.375 9.975C27.075 10.575 25.8 11.25 23.25 11.25H23.175C23.025 9.9 22.8 8.925 22.65 8.4C23.475 7.875 24.3 7.5 25.125 7.5C25.95 7.5 26.625 7.875 27.15 8.7ZM8.25 6.75C8.25 4.05 10.425 2.925 12.9 2.475C11.625 3.825 11.25 5.55 11.25 6.75C11.25 7.2 11.55 7.5 12 7.5C12.375 7.5 12.75 7.2 12.75 6.75C12.75 6.3 12.9 2.7 16.575 2.325C19.8 2.625 20.7 4.875 20.925 6H18C15.975 6 13.95 7.65 12.9 9.3C11.625 11.175 10.5 11.25 10.5 11.25H9C8.4 11.25 8.25 10.875 8.25 10.5V6.75ZM9.75 15.75C9.525 15.75 8.25 15.675 8.25 14.25C8.25 12.9 8.85 12.75 9 12.75H17.25C17.475 12.75 19.2 12.675 20.85 10.2C21 9.975 21.15 9.75 21.375 9.525C21.525 10.2 21.75 11.325 21.75 12.825C21.75 12.9 22.05 17.025 19.875 19.425C18.9 20.475 17.475 21 15.75 21C15.675 21 11.775 20.925 10.5 16.275C10.35 15.975 10.05 15.75 9.75 15.75ZM11.325 21.225L14.625 23.4L12.6 25.95L9.3 23.25L11.325 21.225ZM3 32.85C3.15 31.275 5.025 29.025 5.775 28.275L9.075 24.975L12.225 27.6C12.375 27.75 12.525 27.75 12.675 27.75H12.75C12.975 27.75 13.125 27.6 13.275 27.45L15.45 24.675L16.5 27.225C16.65 27.525 16.875 27.675 17.175 27.675C17.475 27.675 17.775 27.525 17.85 27.225L18.825 24.75L20.25 26.7C20.4 26.925 20.625 27 20.925 27C21.15 27 21.375 26.85 21.525 26.625L22.725 24.15L24.6 24.6V36.525C23.475 36.9 22.125 37.35 20.7 37.8C19.575 38.175 18.45 38.55 17.4 38.925C16.125 39.375 14.625 38.85 13.95 37.65L11.025 32.625C10.8 32.25 10.35 32.175 9.975 32.4C9.6 32.625 9.525 33.075 9.75 33.45L11.85 36.9C10.65 40.425 7.425 40.125 6.45 39.9L3 32.85ZM39.6 39.6C39.375 40.2 38.325 40.5 37.5 40.5H32.325C29.85 40.35 27.3 41.1 26.025 41.55C25.425 41.775 24.75 42 24.15 42.225C20.625 43.425 16.35 45 14.25 45C11.625 45 9.75 42.3 9.15 41.325C10.425 41.025 11.85 40.35 12.9 38.55C13.725 39.825 15.15 40.575 16.65 40.575C17.1 40.575 17.55 40.5 18 40.35C18.975 40.05 20.1 39.675 21.3 39.225C24.6 38.1 28.65 36.75 29.7 36.75H34.95C35.175 36.75 35.625 36.9 35.7 37.5H33.75C33.3 37.5 33 37.8 33 38.25C33 38.7 33.3 39 33.75 39C33.75 39 39.45 39.075 39.75 39.075C39.75 39.225 39.675 39.45 39.6 39.6ZM45.75 37.5H37.2C37.125 35.85 35.85 35.25 34.95 35.25H29.7C29.025 35.25 27.9 35.55 26.25 36V18.75H32.25V24C32.25 24.225 32.4 24.525 32.625 24.675C32.85 24.825 33.15 24.825 33.375 24.675L36.075 23.325L38.775 24.675C38.775 24.75 38.85 24.75 39 24.75C39.15 24.75 39.3 24.75 39.375 24.675C39.6 24.525 39.75 24.3 39.75 24V18.75H45.75V37.5Z" fill="black"/>
<path d="M32.25 32.25H29.25C28.8 32.25 28.5 32.55 28.5 33C28.5 33.45 28.8 33.75 29.25 33.75H32.25C32.7 33.75 33 33.45 33 33C33 32.55 32.7 32.25 32.25 32.25ZM29.25 31.5H30.75C31.2 31.5 31.5 31.2 31.5 30.75C31.5 30.3 31.2 30 30.75 30H29.25C28.8 30 28.5 30.3 28.5 30.75C28.5 31.2 28.8 31.5 29.25 31.5Z" fill="black"/>
</svg>
