<svg width="48" height="49" viewBox="0 0 48 49" fill="none" xmlns="http://www.w3.org/2000/svg">
<g clip-path="url(#clip0_193_181)">
<path d="M47.0219 20.4766C42.5862 18.7023 40.8778 15.7003 39.5045 13.2888C38.4113 11.3689 37.3786 9.55625 35.2747 9.17441C33.0825 8.77166 30.2453 10.1279 25.4062 13.93V8.67847C27.0396 8.096 28.2187 6.54969 28.2187 4.71875C28.2187 2.39244 26.3263 0.5 24 0.5C21.6737 0.5 19.7812 2.39244 19.7812 4.71875C19.7812 6.54969 20.9604 8.096 22.5937 8.67847V13.9289C17.2477 9.72556 15.4468 8.67481 12.7252 9.17441C10.6214 9.55616 9.58865 11.3689 8.49553 13.2888C7.12228 15.7003 5.41387 18.7023 0.978091 20.4766C0.351841 20.7266 -0.00797174 21.3857 0.118403 22.0477C0.247591 22.7096 0.827153 23.1875 1.5 23.1875H4.3125C4.37297 23.1875 10.4429 23.0996 13.5616 15.6152C13.8609 14.8984 14.6849 14.5715 15.4004 14.8572C16.1172 15.1565 16.4565 15.9805 16.1571 16.6974C14.8777 19.7681 13.1681 21.8093 11.4463 23.1876H14.6145C15.9233 22.0723 16.9687 20.6543 16.9687 18.9688C16.9687 18.1915 17.5977 17.5625 18.375 17.5625C19.1523 17.5625 19.7812 18.1915 19.7812 18.9688C19.7812 20.5842 19.2318 21.9862 18.4028 23.1875H22.5937V26H18.375C16.0487 26 14.1562 27.8924 14.1562 30.2188C14.1562 32.5451 16.0487 34.4375 18.375 34.4375H22.5937V37.25H21.1875C18.8612 37.25 16.9687 39.1424 16.9687 41.4688C16.9687 43.7951 18.8612 45.6875 21.1875 45.6875H22.5937V47.0938C22.5937 47.871 23.2227 48.5 24 48.5C24.7773 48.5 25.4062 47.871 25.4062 47.0938V45.6875H26.8125C27.5898 45.6875 28.2187 45.0585 28.2187 44.2812C28.2187 43.504 27.5898 42.875 26.8125 42.875H25.4062V40.0625H26.8125C29.1388 40.0625 31.0312 38.1701 31.0312 35.8438C31.0312 33.5174 29.1388 31.625 26.8125 31.625H25.4062V28.8125H29.625C31.2149 28.8125 32.5854 27.9179 33.3044 26.6157C32.5153 26.106 31.7167 25.5064 30.9883 24.8053C30.882 25.4758 30.3245 26 29.625 26H25.4062V23.1875H29.5972C28.7683 21.9862 28.2187 20.5842 28.2187 18.9688C28.2187 18.1915 28.8477 17.5625 29.625 17.5625C30.4023 17.5625 31.0312 18.1915 31.0312 18.9688C31.0312 20.6543 32.0767 22.0723 33.3854 23.1875H36.5536C34.8319 21.8092 33.1222 19.768 31.8428 16.6973C31.5435 15.9805 31.8827 15.1564 32.5995 14.8571C33.315 14.5714 34.139 14.8982 34.4383 15.6151C37.5571 23.0997 43.6271 23.1875 43.6875 23.1875H46.5C47.1729 23.1875 47.7524 22.7096 47.8815 22.0477C48.0079 21.3857 47.6482 20.7266 47.0219 20.4766ZM22.5938 42.875H21.1876C20.413 42.875 19.7813 42.2433 19.7813 41.4688C19.7813 40.6942 20.413 40.0625 21.1876 40.0625H22.5938V42.875ZM22.5938 31.625H18.3751C17.6005 31.625 16.9688 30.9933 16.9688 30.2188C16.9688 29.4442 17.6005 28.8125 18.3751 28.8125H22.5938V31.625ZM26.8125 34.4375C27.5871 34.4375 28.2187 35.0692 28.2187 35.8438C28.2187 36.6183 27.5871 37.25 26.8125 37.25H25.4062V34.4375H26.8125Z" fill="black"/>
</g>
<defs>
<clipPath id="clip0_193_181">
<rect width="48" height="48" fill="white" transform="translate(0 0.5)"/>
</clipPath>
</defs>
</svg>
