<svg width="48" height="49" viewBox="0 0 48 49" fill="none" xmlns="http://www.w3.org/2000/svg">
<g clip-path="url(#clip0_3812_1454)">
<path d="M46.5487 12.6734C45.2887 8.03563 40.4653 3.21125 35.8266 1.95125C32.9822 1.2425 29.1722 0.512187 24 0.5C18.8278 0.512187 15.0178 1.2425 12.1734 1.95125C7.53563 3.21125 2.71125 8.03469 1.45125 12.6734C0.7425 15.5178 0.0121875 19.3278 0 24.5C0.0121875 29.6722 0.7425 33.4822 1.45125 36.3266C2.71125 40.9653 7.53563 45.7887 12.1734 47.0487C15.0178 47.7575 18.8297 48.4878 24 48.5C29.1712 48.4878 32.9822 47.7575 35.8266 47.0487C40.4653 45.7887 45.2887 40.9653 46.5487 36.3266C47.2575 33.4822 47.9878 29.6703 48 24.5C47.9878 19.3278 47.2575 15.5178 46.5487 12.6734Z" fill="#F2EEFF"/>
<path d="M39.4069 18.0403C38.9381 15.5147 36.6094 13.3256 34.0772 12.9319C32.5397 12.676 26.8472 12.3535 24 12.3872C21.1528 12.3535 15.4603 12.676 13.9228 12.9319C11.3916 13.3256 9.06094 15.5156 8.59313 18.0403C8.32406 19.5675 8.06906 21.6525 8.0625 24.5006C8.05594 27.3488 8.32125 29.4338 8.59031 30.961C9.05906 33.4866 11.3878 35.6756 13.92 36.0694C15.4575 36.3253 21.15 36.6478 23.9972 36.6141C26.8444 36.6478 32.5369 36.3253 34.0744 36.0694C36.6056 35.6756 38.9362 33.4866 39.4041 30.961C39.6731 29.4338 39.9281 27.3488 39.9319 24.5006C39.9356 21.6525 39.6759 19.5675 39.4069 18.0403Z" fill="url(#paint0_linear_3812_1454)"/>
<path d="M22.7475 31.2096C22.7514 31.3773 22.7217 31.544 22.6603 31.7001C22.5989 31.8561 22.507 31.9984 22.3899 32.1184C22.2728 32.2385 22.1329 32.334 21.9784 32.3993C21.824 32.4645 21.658 32.4984 21.4903 32.4987C19.2659 32.4793 17.04 32.4299 14.8125 32.3506C14.4673 32.3315 14.1406 32.1881 13.8929 31.9468C13.6452 31.7055 13.4933 31.3827 13.4653 31.0381C13.4549 30.8746 13.4792 30.7108 13.5366 30.5575C13.5939 30.4041 13.6831 30.2645 13.7982 30.148C13.9133 30.0315 14.0517 29.9407 14.2044 29.8814C14.357 29.8222 14.5205 29.7959 14.6841 29.8043C16.9397 29.8556 19.1953 29.889 21.4509 29.9046C21.7943 29.9098 22.122 30.0493 22.3637 30.2933C22.6054 30.5372 22.7418 30.8662 22.7438 31.2096H22.7475ZM29.2772 26.3271C29.2723 26.6725 29.132 27.0021 28.8866 27.2451C28.6411 27.4881 28.3101 27.6251 27.9647 27.6265C23.5272 27.6509 19.0897 27.6337 14.6522 27.5749C14.3092 27.5716 13.9806 27.4363 13.7346 27.1971C13.4887 26.958 13.3442 26.6334 13.3313 26.2906C13.3311 26.1221 13.3646 25.9552 13.43 25.7999C13.4953 25.6446 13.5911 25.5039 13.7117 25.3862C13.8323 25.2685 13.9752 25.1761 14.1321 25.1146C14.289 25.053 14.4566 25.0235 14.625 25.0277C19.08 25.0384 23.5347 25.0415 27.9891 25.0371C28.1589 25.036 28.3273 25.0686 28.4845 25.133C28.6416 25.1974 28.7845 25.2923 28.9047 25.4123C29.025 25.5323 29.1202 25.6749 29.1849 25.8319C29.2497 25.989 29.2826 26.1573 29.2819 26.3271H29.2772Z" fill="url(#paint1_linear_3812_1454)"/>
<path d="M13.4831 18.6502C13.5844 17.3873 14.6766 16.3261 15.9375 16.2511C16.1625 16.238 16.4119 16.2267 16.6875 16.2183C16.9631 16.2098 17.2125 16.207 17.4375 16.207C18.6947 16.207 19.6809 17.2308 19.6875 18.5236C19.6875 18.7533 19.6875 19.0092 19.6819 19.2914C19.6763 19.5736 19.6697 19.8286 19.6594 20.0592C19.6327 20.6844 19.3712 21.2766 18.9273 21.7176C18.4833 22.1586 17.8894 22.416 17.2641 22.4386C17.0334 22.4461 16.7775 22.4508 16.4944 22.4536C16.2113 22.4564 15.9553 22.4536 15.7247 22.4536C14.4291 22.4273 13.4006 21.4223 13.4156 20.1595C13.4156 19.9345 13.425 19.6842 13.4372 19.4095C13.4494 19.1348 13.4653 18.8761 13.4831 18.6502Z" fill="url(#paint2_linear_3812_1454)"/>
</g>
<defs>
<linearGradient id="paint0_linear_3812_1454" x1="35.6662" y1="36.1669" x2="12.3338" y2="12.8344" gradientUnits="userSpaceOnUse">
<stop stop-color="#6F2EFE"/>
<stop offset="0.52" stop-color="#6F2EFE"/>
<stop offset="1" stop-color="#AE90FF"/>
</linearGradient>
<linearGradient id="paint1_linear_3812_1454" x1="24.4247" y1="31.7065" x2="15.9094" y2="23.1912" gradientUnits="userSpaceOnUse">
<stop stop-color="#E0DCFF"/>
<stop offset="0.57" stop-color="white"/>
<stop offset="1" stop-color="white"/>
</linearGradient>
<linearGradient id="paint2_linear_3812_1454" x1="19.95" y1="22.7152" x2="12.9909" y2="15.7561" gradientUnits="userSpaceOnUse">
<stop stop-color="#FE7838"/>
<stop offset="0.54" stop-color="#FE7636"/>
<stop offset="1" stop-color="#FFAD8A"/>
</linearGradient>
<clipPath id="clip0_3812_1454">
<rect width="48" height="48" fill="white" transform="translate(0 0.5)"/>
</clipPath>
</defs>
</svg>
