<svg width="48" height="48" viewBox="0 0 48 48" fill="none" xmlns="http://www.w3.org/2000/svg">
<path d="M33.8711 22.8336V26.6975C33.8711 26.8473 33.9306 26.9909 34.0365 27.0968C34.1424 27.2027 34.286 27.2622 34.4358 27.2622H44.0696C44.0089 27.1759 43.9544 27.0854 43.9066 26.9914L42.2277 22.2688H34.4358C34.286 22.2689 34.1424 22.3284 34.0365 22.4343C33.9306 22.5402 33.8711 22.6838 33.8711 22.8336Z" stroke="black" stroke-width="1.40626" stroke-miterlimit="10" stroke-linecap="round" stroke-linejoin="round"/>
<path d="M9.70045 43.9802C12.2684 43.9802 14.3501 41.8985 14.3501 39.3305C14.3501 36.7626 12.2684 34.6809 9.70045 34.6809C7.13251 34.6809 5.05078 36.7626 5.05078 39.3305C5.05078 41.8985 7.13251 43.9802 9.70045 43.9802Z" stroke="black" stroke-width="1.40626" stroke-miterlimit="10" stroke-linecap="round" stroke-linejoin="round"/>
<path d="M9.70045 43.9802C12.2684 43.9802 14.3501 41.8985 14.3501 39.3305C14.3501 36.7626 12.2684 34.6809 9.70045 34.6809C7.13251 34.6809 5.05078 36.7626 5.05078 39.3305C5.05078 41.8985 7.13251 43.9802 9.70045 43.9802Z" stroke="black" stroke-width="1.40626" stroke-miterlimit="10" stroke-linecap="round" stroke-linejoin="round"/>
<path d="M34.5249 30.1993H37.532V31.3865" stroke="black" stroke-width="1.40626" stroke-miterlimit="10" stroke-linecap="round" stroke-linejoin="round"/>
<path d="M39.4172 43.9802C41.9852 43.9802 44.0669 41.8985 44.0669 39.3305C44.0669 36.7626 41.9852 34.6809 39.4172 34.6809C36.8493 34.6809 34.7676 36.7626 34.7676 39.3305C34.7676 41.8985 36.8493 43.9802 39.4172 43.9802Z" stroke="black" stroke-width="1.40626" stroke-miterlimit="10" stroke-linecap="round" stroke-linejoin="round"/>
<path d="M39.4174 41.1699C40.4332 41.1699 41.2567 40.3464 41.2567 39.3306C41.2567 38.3148 40.4332 37.4913 39.4174 37.4913C38.4016 37.4913 37.5781 38.3148 37.5781 39.3306C37.5781 40.3464 38.4016 41.1699 39.4174 41.1699Z" stroke="black" stroke-width="1.40626" stroke-miterlimit="10" stroke-linecap="round" stroke-linejoin="round"/>
<path d="M9.70063 41.1699C10.7164 41.1699 11.5399 40.3464 11.5399 39.3306C11.5399 38.3148 10.7164 37.4913 9.70063 37.4913C8.68481 37.4913 7.86133 38.3148 7.86133 39.3306C7.86133 40.3464 8.68481 41.1699 9.70063 41.1699Z" stroke="black" stroke-width="1.40626" stroke-miterlimit="10" stroke-linecap="round" stroke-linejoin="round"/>
<path d="M30.3388 21.7442C31.2512 20.9651 32.0177 20.0297 32.6022 18.9819H39.7048C40.0653 18.9819 40.4186 19.0823 40.7252 19.2718C41.0318 19.4613 41.2796 19.7324 41.4408 20.0548L43.9067 26.9915C44.0348 27.2477 44.2106 27.477 44.4247 27.6671L46.5415 29.5468C46.779 29.7577 46.9691 30.0166 47.0993 30.3063C47.2295 30.5961 47.2969 30.9101 47.2969 31.2278V37.035C47.2969 37.5864 46.8499 38.0335 46.2983 38.0335H43.8822C43.3206 36.0971 41.5348 34.681 39.4173 34.681C37.2997 34.681 35.5141 36.097 34.9524 38.0335H30.3388V21.7442ZM30.3388 21.7442V31.3865H0.703125V9.72365C0.703125 8.99146 1.29676 8.39783 2.02895 8.39783H15.4985C14.3878 10.0163 13.7373 11.9755 13.7373 14.0868C13.7373 19.6466 18.2444 24.1538 23.8043 24.1538C26.2983 24.1538 28.5802 23.2464 30.3388 21.7442Z" stroke="black" stroke-width="1.40626" stroke-miterlimit="10" stroke-linecap="round" stroke-linejoin="round"/>
<path d="M23.8043 20.8837C27.5581 20.8837 30.6012 17.8406 30.6012 14.0868C30.6012 10.3329 27.5581 7.28986 23.8043 7.28986C20.0504 7.28986 17.0073 10.3329 17.0073 14.0868C17.0073 17.8406 20.0504 20.8837 23.8043 20.8837Z" stroke="black" stroke-width="1.40626" stroke-miterlimit="10" stroke-linecap="round" stroke-linejoin="round"/>
<path d="M23.8045 7.76706V8.82963M23.8045 20.4065V19.3439M17.4847 14.0868H18.5473M30.1242 14.0868H29.0617M23.8045 11.3921V14.0868H21.7388M5.54004 13.0878H10.6605M7.62037 17.6128H10.848M9.7008 22.1377H13.1294" stroke="black" stroke-width="1.40626" stroke-miterlimit="10" stroke-linecap="round" stroke-linejoin="round"/>
<path d="M23.6295 38.0335H30.3388V21.7442C28.5802 23.2464 26.2983 24.1538 23.8043 24.1538C18.2444 24.1538 13.7373 19.6466 13.7373 14.0868C13.7373 11.9755 14.3878 10.0163 15.4985 8.39783H2.02895C1.29676 8.39783 0.703125 8.99146 0.703125 9.72365V36.7077C0.703125 37.4399 1.29676 38.0335 2.02895 38.0335H5.2357C5.79736 36.097 7.58304 34.681 9.70059 34.681C11.8181 34.681 13.6039 36.0971 14.1655 38.0335H20.3483" stroke="black" stroke-width="1.40626" stroke-miterlimit="10" stroke-linecap="round" stroke-linejoin="round"/>
<path d="M33.7375 12.4461C32.954 7.66666 28.8053 4.01974 23.8043 4.01974C18.2444 4.01974 13.7373 8.52691 13.7373 14.0867C13.7373 19.6465 18.2445 24.1537 23.8043 24.1537C28.8053 24.1537 32.954 20.5067 33.7375 15.7274" stroke="black" stroke-width="1.40626" stroke-miterlimit="10" stroke-linecap="round" stroke-linejoin="round"/>
</svg>
