<svg width="64" height="64" viewBox="0 0 64 64" fill="none" xmlns="http://www.w3.org/2000/svg">
<path fill-rule="evenodd" clip-rule="evenodd" d="M28.9975 7.63128C29.5097 6.59919 30.5624 5.94642 31.7146 5.94642C32.8668 5.94642 33.9195 6.59919 34.4317 7.63128L39.7232 18.2934L51.4987 20.0311C52.6385 20.1994 53.5846 20.9988 53.9408 22.0946C54.2967 23.1905 54.0012 24.3933 53.178 25.1995L44.6728 33.5267L46.659 45.2629C46.8511 46.3989 46.3832 47.5457 45.451 48.2231C44.5189 48.9003 43.2835 48.9909 42.2626 48.457L31.7146 42.9415L21.1666 48.457C20.1455 48.9909 18.9101 48.9003 17.978 48.2231C17.0458 47.5457 16.5779 46.3989 16.7702 45.2629L18.7564 33.5267L10.2512 25.1995C9.42786 24.3933 9.13231 23.1905 9.48844 22.0946C9.8444 20.9988 10.7906 20.1994 11.9305 20.0311L23.706 18.2934L28.9975 7.63128Z" fill="url(#paint0_linear_321_220)"/>
<path fill-rule="evenodd" clip-rule="evenodd" d="M31.7139 6.1129C32.866 6.1129 33.9188 6.76566 34.431 7.79775L39.7225 18.4599L51.498 20.1976C52.6377 20.3658 53.5839 21.1653 53.94 22.261C53.9456 22.2786 53.9512 22.2961 53.9566 22.3137L31.7139 29.4828V6.1129Z" fill="url(#paint1_linear_321_220)"/>
<path fill-rule="evenodd" clip-rule="evenodd" d="M31.7144 29.4828L9.47168 22.3137C9.47689 22.2961 9.48247 22.2786 9.48822 22.261C9.84417 21.1653 10.7903 20.3658 11.9303 20.1976L23.7057 18.4599L28.9973 7.79775C29.5094 6.76566 30.5622 6.1129 31.7144 6.1129V29.4828Z" fill="url(#paint2_linear_321_220)"/>
<path fill-rule="evenodd" clip-rule="evenodd" d="M45.4689 48.1643C45.4409 48.1859 45.4125 48.2071 45.3835 48.228C44.4514 48.8994 43.2162 48.9893 42.195 48.46L31.6471 42.9915L21.0991 48.46C20.0956 48.9801 18.8852 48.9023 17.959 48.2621L31.6471 29.4828L45.4689 48.1643Z" fill="url(#paint3_linear_321_220)"/>
<path fill-rule="evenodd" clip-rule="evenodd" d="M30.9648 48.3121V58.5296C30.9648 58.9431 31.3005 59.2787 31.714 59.2787C32.1273 59.2787 32.4629 58.9431 32.4629 58.5296V48.3121C32.4629 47.8988 32.1273 47.5631 31.714 47.5631C31.3005 47.5631 30.9648 47.8988 30.9648 48.3121Z" fill="url(#paint4_radial_321_220)"/>
<path fill-rule="evenodd" clip-rule="evenodd" d="M49.7778 35.5982L59.4345 38.937C59.8251 39.0722 60.2521 38.8645 60.3871 38.4739C60.5223 38.0832 60.3147 37.6563 59.924 37.5213L50.2674 34.1823C49.8767 34.0473 49.4498 34.2547 49.3147 34.6456C49.1795 35.0362 49.3872 35.4632 49.7778 35.5982Z" fill="url(#paint5_radial_321_220)"/>
<path fill-rule="evenodd" clip-rule="evenodd" d="M13.161 34.1823L3.50451 37.5213C3.11368 37.6563 2.90622 38.0832 3.04123 38.4739C3.17642 38.8645 3.60321 39.0722 3.99404 38.937L13.6507 35.5982C14.0413 35.4632 14.2488 35.0362 14.1138 34.6456C13.9786 34.2547 13.5518 34.0473 13.161 34.1823Z" fill="url(#paint6_radial_321_220)"/>
<path fill-rule="evenodd" clip-rule="evenodd" d="M44.4861 13.591L50.2777 5.17357C50.5122 4.83308 50.4259 4.3662 50.0854 4.13195C49.7447 3.89752 49.278 3.98382 49.0436 4.32449L43.2519 12.7419C43.0177 13.0824 43.104 13.5493 43.4445 13.7835C43.7852 14.018 44.2519 13.9317 44.4861 13.591Z" fill="url(#paint7_radial_321_220)"/>
<path fill-rule="evenodd" clip-rule="evenodd" d="M20.9107 12.6849L14.3412 4.85932C14.0753 4.54274 13.6025 4.50139 13.2859 4.76728C12.9692 5.03317 12.928 5.50597 13.1939 5.82256L19.7632 13.6482C20.0291 13.9648 20.5019 14.0059 20.8187 13.7402C21.1353 13.4743 21.1764 13.0015 20.9107 12.6849Z" fill="url(#paint8_radial_321_220)"/>
<defs>
<linearGradient id="paint0_linear_321_220" x1="31.7146" y1="23.1878" x2="31.7146" y2="45.1313" gradientUnits="userSpaceOnUse">
<stop stop-color="#FFB541"/>
<stop offset="1" stop-color="#F59500"/>
</linearGradient>
<linearGradient id="paint1_linear_321_220" x1="30.9647" y1="7.104" x2="46.7648" y2="28.8086" gradientUnits="userSpaceOnUse">
<stop stop-color="#FFD952"/>
<stop offset="1" stop-color="#FFA501"/>
</linearGradient>
<linearGradient id="paint2_linear_321_220" x1="19.554" y1="10.1852" x2="34.415" y2="24.2936" gradientUnits="userSpaceOnUse">
<stop stop-color="#FFDF6C"/>
<stop offset="1" stop-color="#FFA501"/>
</linearGradient>
<linearGradient id="paint3_linear_321_220" x1="31.714" y1="21.6311" x2="31.714" y2="45.0758" gradientUnits="userSpaceOnUse">
<stop stop-color="#FFA841"/>
<stop offset="1" stop-color="#F27B00"/>
</linearGradient>
<radialGradient id="paint4_radial_321_220" cx="0" cy="0" r="1" gradientUnits="userSpaceOnUse" gradientTransform="translate(31.714 29.4828) rotate(18.8508) scale(29.3885 29.3884)">
<stop stop-color="#FFA501"/>
<stop offset="0.57" stop-color="#FFAF0E"/>
<stop offset="1" stop-color="#FFD541"/>
</radialGradient>
<radialGradient id="paint5_radial_321_220" cx="0" cy="0" r="1" gradientUnits="userSpaceOnUse" gradientTransform="translate(31.7142 29.4828) rotate(18.8508) scale(29.3884 29.3884)">
<stop stop-color="#FFA501"/>
<stop offset="0.57" stop-color="#FFAF0E"/>
<stop offset="1" stop-color="#FFD541"/>
</radialGradient>
<radialGradient id="paint6_radial_321_220" cx="0" cy="0" r="1" gradientUnits="userSpaceOnUse" gradientTransform="translate(31.7143 29.4828) rotate(18.8508) scale(29.3884 29.3884)">
<stop stop-color="#FFA501"/>
<stop offset="0.57" stop-color="#FFAF0E"/>
<stop offset="1" stop-color="#FFD541"/>
</radialGradient>
<radialGradient id="paint7_radial_321_220" cx="0" cy="0" r="1" gradientUnits="userSpaceOnUse" gradientTransform="translate(31.714 29.4828) rotate(18.8508) scale(29.3884 29.3884)">
<stop stop-color="#FFA501"/>
<stop offset="0.57" stop-color="#FFAF0E"/>
<stop offset="1" stop-color="#FFD541"/>
</radialGradient>
<radialGradient id="paint8_radial_321_220" cx="0" cy="0" r="1" gradientUnits="userSpaceOnUse" gradientTransform="translate(31.7143 29.4828) rotate(18.8508) scale(29.3884)">
<stop stop-color="#FFA501"/>
<stop offset="0.57" stop-color="#FFAF0E"/>
<stop offset="1" stop-color="#FFD541"/>
</radialGradient>
</defs>
</svg>
