<svg width="287" height="162" viewBox="0 0 287 162" fill="none" xmlns="http://www.w3.org/2000/svg">
<rect width="287" height="162" rx="16" fill="#FFB84C"/>
<g style="mix-blend-mode:overlay">
<path d="M218.08 128.158H181.372C181.095 128.158 180.873 127.933 180.873 127.654C180.873 127.374 181.095 127.15 181.372 127.15H218.08C218.357 127.15 218.579 127.374 218.579 127.654C218.579 127.933 218.357 128.158 218.08 128.158Z" fill="#DFC1FA"/>
</g>
<g style="mix-blend-mode:overlay">
<path d="M232.811 123.737C232.673 123.737 232.534 123.678 232.438 123.568C232.258 123.36 232.275 123.043 232.48 122.856C235.358 120.286 237.172 116.809 237.587 113.07L240.222 91.3389C240.256 91.0636 240.499 90.8646 240.775 90.8985C241.047 90.9324 241.244 91.1822 241.211 91.4574L238.576 113.18C238.136 117.165 236.204 120.866 233.138 123.602C233.041 123.686 232.924 123.729 232.807 123.729L232.811 123.737Z" fill="#DFC1FA"/>
</g>
<g style="mix-blend-mode:overlay">
<path d="M111.432 128.67H64.2659C55.1998 128.67 47.6502 122.234 46.7076 113.701L43.2889 86.3295C43.2554 86.0542 43.4481 85.8001 43.7205 85.7663C43.9928 85.7239 44.2442 85.9272 44.2777 86.2024L47.6963 113.583C48.5845 121.616 55.7067 127.667 64.2659 127.667H111.432C111.708 127.667 111.93 127.891 111.93 128.171C111.93 128.45 111.708 128.674 111.432 128.674V128.67Z" fill="#DFC1FA"/>
</g>
<g style="mix-blend-mode:overlay">
<path d="M40.1463 74.5364C38.4119 74.5364 37 73.1093 37 71.3562C37 69.6032 38.4119 68.1761 40.1463 68.1761C41.8808 68.1761 43.2927 69.6032 43.2927 71.3562C43.2927 73.1093 41.8808 74.5364 40.1463 74.5364ZM40.1463 69.3999C39.078 69.3999 38.2108 70.2765 38.2108 71.3562C38.2108 72.436 39.078 73.3126 40.1463 73.3126C41.2147 73.3126 42.0819 72.436 42.0819 71.3562C42.0819 70.2765 41.2147 69.3999 40.1463 69.3999Z" fill="#DFC1FA"/>
</g>
<g style="mix-blend-mode:overlay">
<path d="M161.714 133.658C159.979 133.658 158.567 132.231 158.567 130.478C158.567 128.725 159.979 127.298 161.714 127.298C163.448 127.298 164.86 128.725 164.86 130.478C164.86 132.231 163.448 133.658 161.714 133.658ZM161.714 128.522C160.645 128.522 159.778 129.399 159.778 130.478C159.778 131.558 160.645 132.435 161.714 132.435C162.782 132.435 163.649 131.558 163.649 130.478C163.649 129.399 162.782 128.522 161.714 128.522Z" fill="#DFC1FA"/>
</g>
<g style="mix-blend-mode:overlay">
<path d="M212.332 22.867C210.597 22.867 209.186 21.4399 209.186 19.6869C209.186 17.9338 210.597 16.5067 212.332 16.5067C214.066 16.5067 215.478 17.9338 215.478 19.6869C215.478 21.4399 214.066 22.867 212.332 22.867ZM212.332 17.7305C211.264 17.7305 210.396 18.6071 210.396 19.6869C210.396 20.7667 211.264 21.6432 212.332 21.6432C213.4 21.6432 214.267 20.7667 214.267 19.6869C214.267 18.6071 213.4 17.7305 212.332 17.7305Z" fill="#DFC1FA"/>
</g>
<path d="M81.1237 18.1413H78.8781V15.8716H77.2651V18.1413H75.0195V19.7715H77.2651V22.0412H78.8781V19.7715H81.1237V18.1413Z" fill="url(#paint0_linear_321_851)"/>
<path d="M230.205 127.006H227.959V124.736H226.346V127.006H224.101V128.636H226.346V130.906H227.959V128.636H230.205V127.006Z" fill="url(#paint1_linear_321_851)"/>
<path d="M250 41.8756H247.754V39.606H246.141V41.8756H243.896V43.5059H246.141V45.7756H247.754V43.5059H250V41.8756Z" fill="url(#paint2_linear_321_851)"/>
<path d="M236.752 42.4346C234.243 39.877 230.665 38.4076 226.936 38.4076H60.0672C56.3344 38.4076 52.7565 39.8727 50.2512 42.4346C47.7416 44.9922 46.5183 48.4264 46.8995 51.8479L53.5106 111.652C54.2019 117.889 59.8326 122.594 66.6155 122.594H130.531L139.425 135.873C140.867 137.779 143.703 137.779 145.148 135.873L154.043 122.594H220.392C227.171 122.594 232.806 117.889 233.497 111.652L240.108 51.8479C240.485 48.4264 239.266 44.9922 236.757 42.4346H236.752Z" fill="url(#paint3_linear_321_851)"/>
<g filter="url(#filter0_d_321_851)">
<path d="M71.4003 115.641C65.0406 115.641 59.7367 110.822 59.0621 104.432L52.5474 42.9258C52.1746 39.39 53.3057 35.8499 55.6561 33.2076C58.0064 30.5653 61.3706 29.0493 64.8856 29.0493H222.115C225.63 29.0493 228.994 30.5653 231.344 33.2076C233.694 35.8499 234.826 39.3942 234.453 42.9258L227.938 104.432C227.259 110.822 221.955 115.641 215.6 115.641H71.4003Z" fill="url(#paint4_linear_321_851)"/>
</g>
<g filter="url(#filter1_d_321_851)">
<path d="M215.6 111.008H71.4007C67.3997 111.008 64.0439 107.959 63.6166 103.937L57.1018 42.4304C56.6075 37.7555 60.2314 33.6777 64.886 33.6777H222.115C226.77 33.6777 230.393 37.7555 229.899 42.4304L223.384 103.937C222.957 107.959 219.601 111.008 215.6 111.008Z" stroke="white" stroke-width="1.09" stroke-miterlimit="10"/>
</g>
<path d="M71.3999 106.38C69.7366 106.38 68.3499 105.118 68.1739 103.45L61.6592 41.9434C61.5251 40.6773 62.1117 39.8092 62.472 39.4027C62.8323 38.9962 63.6283 38.3144 64.8851 38.3144H222.114C223.375 38.3144 224.167 38.9962 224.527 39.4027C224.888 39.8092 225.474 40.6815 225.34 41.9434L218.825 103.45C218.649 105.122 217.263 106.38 215.599 106.38H71.3999Z" fill="#DBDBDB"/>
<path d="M71.4002 104.364C70.7592 104.364 70.223 103.877 70.1517 103.234L63.637 41.7274C63.5868 41.2616 63.7795 40.9356 63.9512 40.745C64.123 40.5545 64.4205 40.3258 64.8855 40.3258H222.114C222.575 40.3258 222.877 40.5545 223.049 40.7493C223.216 40.9398 223.409 41.2659 223.363 41.7317L216.848 103.238C216.781 103.881 216.245 104.368 215.6 104.368H71.4002V104.364Z" fill="url(#paint5_linear_321_851)"/>
<path d="M50.2553 133.582C49.7945 133.718 49.3546 133.959 48.9817 134.306C47.6075 135.572 47.5615 137.783 48.877 139.244C50.1925 140.7 52.3752 140.853 53.7494 139.587C54.0929 139.269 54.3569 138.892 54.5328 138.482C52.7397 137.304 51.6546 135.217 50.2595 133.582H50.2553Z" fill="url(#paint6_linear_321_851)"/>
<path d="M96.7256 123.394C90.6592 124.36 82.632 125.147 73.7628 129.335C68.5301 131.804 63.9886 135.725 60.3228 138.363C57.3817 140.48 53.343 140.04 50.9131 137.347C48.4873 134.662 48.4119 130.572 50.7497 127.806C53.7997 124.203 58.2322 120.248 61.257 114.9C65.9409 106.613 67.3612 98.3935 68.8527 92.5203L96.7298 123.394H96.7256Z" fill="url(#paint7_linear_321_851)"/>
<path d="M75.8112 144.762C75.8196 144.719 75.828 144.673 75.8363 144.631C75.9662 143.932 75.7986 143.288 75.3881 142.708C75.0152 142.179 74.4831 141.768 73.884 141.531C73.3184 141.306 72.6942 141.345 72.1663 141.027C71.9066 140.925 71.6636 140.777 71.4541 140.591L68.115 137.639C67.34 136.932 65.5846 134.989 66.5523 132.782C65.815 133.142 64.3905 134.112 63.6657 134.502C62.92 134.904 62.2497 135.404 61.55 135.882C60.8713 136.348 60.1465 136.746 59.4636 137.212C58.8729 137.614 58.3031 138.042 57.7627 138.512C58.433 139.041 59.0824 139.672 59.9496 139.841C60.8629 140.019 61.5668 139.329 62.4382 139.46C63.1421 139.566 63.6574 140.121 64.1685 140.57C66.1459 142.31 68.0983 144.067 70.0548 145.833C70.1511 145.918 70.2601 145.998 70.348 146.096C72.1998 147.747 75.0152 146.896 75.8028 144.77L75.8112 144.762Z" fill="url(#paint8_linear_321_851)"/>
<g style="mix-blend-mode:multiply" opacity="0.74">
<path d="M73.8883 141.53C73.3227 141.306 72.6985 141.344 72.1706 141.027C71.9109 140.925 71.6679 140.777 71.4584 140.59L69.7281 139.062L67.449 136.936C67.2982 136.754 67.1432 136.546 66.9966 136.322C66.9588 136.267 66.9253 136.208 66.8918 136.148L66.8834 136.136C66.7787 135.958 66.6781 135.767 66.5944 135.568L66.586 135.543C66.5608 135.488 66.5399 135.433 66.5189 135.373C66.5148 135.357 66.5064 135.34 66.5022 135.327C66.4812 135.272 66.4645 135.217 66.4435 135.162C66.4435 135.153 66.4352 135.141 66.4352 135.132C66.4142 135.064 66.3974 134.997 66.3807 134.929C66.3639 134.857 66.3472 134.785 66.3346 134.713C66.3346 134.7 66.3304 134.683 66.3262 134.671C66.3178 134.615 66.3095 134.56 66.3011 134.501C66.3011 134.48 66.2969 134.459 66.2927 134.433C66.2885 134.383 66.2843 134.332 66.2801 134.281C66.2801 134.26 66.2801 134.234 66.2801 134.213C66.2801 134.158 66.2801 134.103 66.2801 134.048C66.2801 134.031 66.2801 134.014 66.2801 133.993C66.2801 133.921 66.2885 133.845 66.2927 133.769C66.2927 133.756 66.2927 133.739 66.2969 133.726C66.3053 133.667 66.3137 133.603 66.322 133.544C66.3262 133.519 66.3304 133.493 66.3388 133.468C66.3472 133.417 66.3597 133.366 66.3723 133.315C66.3807 133.29 66.3849 133.26 66.3933 133.235C66.41 133.18 66.4226 133.129 66.4435 133.074C66.4519 133.049 66.4603 133.023 66.4687 133.002C66.498 132.926 66.5273 132.845 66.5608 132.769C66.5189 132.79 66.477 132.812 66.431 132.837L66.4016 132.854C66.3556 132.879 66.3095 132.905 66.2592 132.93L66.2424 132.939C66.1964 132.964 66.1503 132.989 66.1 133.019L66.0707 133.036C66.0162 133.066 65.9617 133.1 65.9073 133.133L65.8863 133.146C65.8319 133.18 65.7774 133.21 65.7229 133.243L65.7062 133.252C65.6433 133.29 65.5847 133.328 65.5218 133.366L65.5093 133.375C65.2328 133.544 64.9437 133.726 64.6672 133.9C64.2901 134.133 63.9382 134.349 63.6784 134.488C62.9327 134.891 62.2624 135.39 61.5627 135.869C60.884 136.335 60.1592 136.733 59.4763 137.199C58.8856 137.601 58.3158 138.028 57.7754 138.499C58.4457 139.028 59.0993 139.659 59.9623 139.828C60.7332 139.976 61.3574 139.511 62.0613 139.439C62.3127 139.214 62.5724 139.002 62.8363 138.795C63.3098 138.427 63.7999 138.088 64.3027 137.766C64.9814 137.334 65.8612 137.41 66.4561 137.956L66.4645 137.965L69.8035 140.916C71.9025 143.131 73.6914 141.856 74.4916 143.965C74.9776 145.253 73.6998 146.794 72.4555 146.938C73.8841 147.006 75.2918 146.163 75.8155 144.757C75.8281 144.711 75.8365 144.664 75.8448 144.617C75.9747 143.919 75.8071 143.275 75.3966 142.695C75.0237 142.166 74.4916 141.755 73.8925 141.518L73.8883 141.53Z" fill="#C2BDB1"/>
</g>
<path d="M57.2977 120.51C55.0227 123.237 52.6221 125.588 50.7452 127.806C48.4075 130.567 48.4871 134.662 50.9086 137.347C53.3427 140.04 57.3814 140.476 60.3183 138.363C62.8195 136.563 65.7312 134.167 68.9906 132.041C66.1669 131.52 63.2635 129.911 60.93 127.324C59.0573 125.253 57.8381 122.865 57.2935 120.51H57.2977Z" fill="url(#paint9_linear_321_851)"/>
<g style="mix-blend-mode:multiply" opacity="0.74">
<path d="M50.917 137.355C53.3511 140.044 57.3856 140.476 60.3225 138.363C63.9883 135.725 68.5298 131.804 73.7625 129.335C82.6318 125.147 90.6589 124.364 96.7253 123.394L82.7868 107.955C81.2157 112.13 77.4284 120.481 69.0032 127.692C62.0653 133.629 55.0185 136.199 50.917 137.351V137.355Z" fill="#C2BDB1"/>
</g>
<path d="M97.7667 122.575C101.144 119.459 97.5848 109.962 89.818 101.362C82.0512 92.7619 73.0175 88.3157 69.6407 91.4312C66.2638 94.5467 69.8226 104.044 77.5894 112.644C85.3562 121.244 94.3899 125.69 97.7667 122.575Z" fill="url(#paint10_linear_321_851)"/>
<mask id="mask0_321_851" style="mask-type:luminance" maskUnits="userSpaceOnUse" x="71" y="93" width="26" height="28">
<path d="M88.9578 102.378C95.4474 109.564 98.5225 117.411 95.8287 119.896C93.1306 122.382 85.6858 118.575 79.1962 111.385C72.7066 104.195 69.6315 96.3525 72.3254 93.8669C75.0234 91.3812 82.4682 95.188 88.9578 102.378Z" fill="white"/>
</mask>
<g mask="url(#mask0_321_851)">
<path d="M87.8223 103.665C94.249 110.779 97.5587 118.296 95.221 120.451C92.8832 122.606 85.782 118.588 79.3552 111.474C72.9327 104.36 69.6187 96.8437 71.9565 94.6884C74.2943 92.533 81.3955 96.5515 87.8223 103.665Z" fill="url(#paint11_linear_321_851)"/>
<g style="mix-blend-mode:multiply">
<path d="M85.3672 106.46C91.7897 113.574 95.1037 121.09 92.7659 123.246C90.4281 125.401 83.3269 121.383 76.9001 114.269C70.4776 107.155 67.1637 99.6385 69.5014 97.4831C71.8392 95.3278 78.9404 99.3463 85.3672 106.46Z" fill="#D1CDBF"/>
</g>
<path d="M73.3428 105.131C74.5577 107.1 76.1456 109.348 78.1943 111.664C80.5194 114.29 82.8363 116.327 84.843 117.864C85.0232 117.042 85.3667 115.916 86.0454 114.696C86.7786 113.379 87.6291 112.448 88.2659 111.855C85.3709 108.65 82.476 105.444 79.581 102.238C78.8227 102.836 77.7795 103.538 76.443 104.14C75.2783 104.661 74.21 104.961 73.3428 105.139V105.131Z" fill="url(#paint12_linear_321_851)"/>
<g style="mix-blend-mode:multiply">
<path d="M78.1113 111.563C78.1407 111.597 78.17 111.626 78.1951 111.66C80.5203 114.286 82.8371 116.322 84.8439 117.86C85.0241 117.038 85.3676 115.912 86.0463 114.692C86.7795 113.375 87.6299 112.444 88.2668 111.851L83.5116 106.583C83.4991 106.807 83.2812 109.725 80.9016 111.025C79.7662 111.643 78.656 111.618 78.1155 111.563H78.1113Z" fill="#BDB8AC"/>
</g>
<path d="M85.7063 105.376C88.0985 108.027 89.1878 110.957 88.1404 111.927C87.093 112.892 84.3028 111.529 81.9106 108.882C79.5183 106.232 78.4291 103.301 79.4764 102.332C80.5238 101.366 83.3141 102.73 85.7063 105.376Z" fill="url(#paint13_linear_321_851)"/>
<path d="M85.0659 105.855C86.9847 107.976 87.9944 110.199 87.324 110.818C86.6537 111.436 84.5548 110.216 82.6401 108.095C80.7213 105.973 79.7117 103.75 80.382 103.132C81.0523 102.514 83.1513 103.733 85.0659 105.855Z" fill="url(#paint14_linear_321_851)"/>
</g>
<g style="mix-blend-mode:overlay" opacity="0.88">
<path d="M50.729 130.555C52.6394 128.751 54.4786 126.904 56.255 125.02C58.0229 123.132 59.7197 121.192 61.2698 119.172C61.6553 118.668 62.0365 118.16 62.401 117.644C62.5853 117.385 62.7613 117.123 62.9456 116.869C63.1216 116.606 63.3018 116.348 63.4693 116.085C64.1648 115.039 64.8016 113.964 65.3798 112.88C65.4552 112.744 65.518 112.605 65.5934 112.469C65.6647 112.334 65.7359 112.198 65.8029 112.058C65.9412 111.783 66.0668 111.504 66.1967 111.228C66.4439 110.674 66.6743 110.11 66.8838 109.543C67.3028 108.408 67.6002 107.256 67.8097 106.075L67.8181 106.037C67.9396 105.359 68.5806 104.91 69.2509 105.029C69.8332 105.135 70.248 105.639 70.2648 106.215C70.3108 107.659 70.0846 109.094 69.6992 110.458C69.5065 111.139 69.2718 111.804 69.0037 112.456L68.7984 112.939C68.7314 113.1 68.6518 113.257 68.5806 113.413C68.5093 113.57 68.4297 113.727 68.3543 113.883C68.2747 114.04 68.1993 114.197 68.1155 114.345C67.4703 115.573 66.7162 116.725 65.9076 117.817C65.5013 118.363 65.0823 118.897 64.6466 119.409C64.2109 119.926 63.7668 120.434 63.3101 120.925C61.4835 122.894 59.4935 124.673 57.4071 126.299C56.3639 127.112 55.2914 127.883 54.1895 128.611C53.6407 128.975 53.0835 129.327 52.5179 129.665C51.9523 130.004 51.3825 130.334 50.796 130.635C50.7709 130.648 50.7415 130.635 50.729 130.614C50.7206 130.593 50.7248 130.572 50.7373 130.555H50.729Z" fill="white"/>
</g>
<g style="mix-blend-mode:overlay" opacity="0.46">
<path d="M52.7233 132.295C53.7036 131.643 54.6547 130.97 55.5889 130.279C56.5232 129.589 57.4365 128.886 58.3289 128.158C60.1178 126.705 61.8104 125.156 63.4108 123.521C63.8046 123.106 64.2026 122.695 64.5839 122.268L64.8729 121.95L65.0154 121.789L65.1536 121.624C65.338 121.404 65.5265 121.188 65.715 120.972C66.444 120.087 67.1688 119.198 67.8391 118.262C69.2049 116.407 70.3947 114.421 71.5594 112.355C71.572 112.329 71.6013 112.321 71.6265 112.334C71.6474 112.346 71.6558 112.367 71.6516 112.389C71.5846 112.681 71.5092 112.964 71.4379 113.257L71.3206 113.689C71.2829 113.833 71.2326 113.972 71.1866 114.116C71.0944 114.4 70.998 114.684 70.9017 114.967C70.8556 115.111 70.7969 115.247 70.7425 115.387L70.5791 115.802C70.3654 116.361 70.1057 116.898 69.8501 117.445C69.7244 117.716 69.5778 117.978 69.4395 118.245C69.2971 118.507 69.163 118.778 69.0038 119.032L68.543 119.807C68.388 120.061 68.2162 120.311 68.0528 120.561L67.8056 120.938L67.5459 121.302C67.3699 121.544 67.1939 121.789 67.0138 122.031C66.2848 122.983 65.4972 123.894 64.6718 124.758C63.0044 126.477 61.1526 128.014 59.1584 129.314C58.1613 129.962 57.1307 130.555 56.0665 131.075C55.5345 131.338 54.994 131.579 54.4452 131.8C53.8964 132.02 53.3392 132.223 52.7652 132.38C52.7401 132.388 52.7107 132.371 52.7065 132.346C52.7023 132.325 52.7065 132.303 52.7275 132.291L52.7233 132.295Z" fill="white"/>
</g>
<g filter="url(#filter2_d_321_851)">
<path d="M182.184 17.0615H104.816C101.565 17.0615 98.9297 19.725 98.9297 23.0109V38.5643C98.9297 41.8502 101.565 44.5137 104.816 44.5137H137.302L141.86 50.8613C142.501 51.7505 143.804 51.7717 144.47 50.9036L149.372 44.5137H182.184C185.435 44.5137 188.07 41.8502 188.07 38.5643V23.0109C188.07 19.725 185.435 17.0615 182.184 17.0615Z" fill="url(#paint15_linear_321_851)"/>
</g>
<path style="mix-blend-mode:overlay" opacity="0.74" d="M182.184 18.84H145.145L121.499 42.7395H138.194L143.18 49.6798L148.505 42.7395H182.18C184.455 42.7395 186.307 40.8678 186.307 38.5685V23.0109C186.307 20.7116 184.455 18.84 182.18 18.84H182.184Z" fill="url(#paint16_linear_321_851)"/>
<path d="M78.6607 63.353H87.3163C89.3734 63.353 91.0324 63.84 92.2935 64.8182C93.5587 65.7964 94.25 67.397 94.3757 69.6243C94.3757 71.225 94.1327 72.5546 93.6509 73.6048C93.1691 74.6549 92.3437 75.4468 91.179 75.9719C92.0966 76.2217 92.813 76.6113 93.3325 77.1364C93.852 77.6614 94.1117 78.3262 94.1117 79.1266L94.3715 85.2115C94.3715 86.1389 94.4846 86.7656 94.7066 87.0874C94.9287 87.4135 95.1633 87.5744 95.4105 87.5744V88.362H90.1359C89.3692 88.362 88.8748 88.2434 88.6486 88.0063C88.4265 87.7692 88.3134 87.1848 88.3134 86.2617V81.0406C88.3134 80.2148 88.15 79.6008 87.8316 79.1986C87.509 78.8005 86.9015 78.5973 86.0092 78.5973H84.635V88.362H78.6523V63.353H78.6607ZM86.0175 74.168C86.5873 74.168 87.1152 73.9308 87.597 73.4523C88.0788 72.9781 88.3218 72.1989 88.3218 71.1234V70.412C88.0746 68.9595 87.6347 68.1169 87.0021 67.8755C86.3695 67.6384 85.586 67.5198 84.6434 67.5198V74.168H86.0175Z" fill="url(#paint17_linear_321_851)"/>
<path d="M97.3457 63.353H111.129V68.0449H103.291V72.851H110.61V78.0722H103.291V83.4034H111.129V88.362H97.3457V63.353Z" fill="url(#paint18_linear_321_851)"/>
<path d="M112.692 63.353H118.377L119.936 80.2487L122.609 63.353H128.034L130.447 80.2487L132.27 63.353H137.766L133.568 88.362H126.991L125.206 71.1996L123.124 88.362H116.806L112.684 63.353H112.692Z" fill="url(#paint19_linear_321_851)"/>
<path d="M144.566 63.353H151.366L156.9 88.362H150.842L150.063 83.4034H145.605L144.826 88.362H138.881L144.566 63.353ZM149.283 78.8598L147.758 67.7823L146.125 78.8598H149.283Z" fill="url(#paint20_linear_321_851)"/>
<path d="M158.869 63.353H167.525C169.582 63.353 171.241 63.84 172.502 64.8182C173.763 65.7964 174.458 67.397 174.584 69.6243C174.584 71.225 174.341 72.5546 173.859 73.6048C173.377 74.6549 172.552 75.4468 171.387 75.9719C172.305 76.2217 173.021 76.6113 173.541 77.1364C174.06 77.6614 174.32 78.3262 174.32 79.1266L174.58 85.2115C174.58 86.1389 174.693 86.7656 174.915 87.0874C175.137 87.4135 175.372 87.5744 175.623 87.5744V88.362H170.348C169.582 88.362 169.087 88.2434 168.861 88.0063C168.639 87.7692 168.526 87.1848 168.526 86.2617V81.0406C168.526 80.2148 168.363 79.6008 168.044 79.1986C167.722 78.8005 167.114 78.5973 166.226 78.5973H164.852V88.362H158.869V63.353ZM166.226 74.168C166.796 74.168 167.324 73.9308 167.805 73.4523C168.287 72.9781 168.53 72.1989 168.53 71.1234V70.412C168.283 68.9595 167.843 68.1169 167.21 67.8755C166.578 67.6384 165.794 67.5198 164.852 67.5198V74.168H166.226Z" fill="url(#paint21_linear_321_851)"/>
<path d="M177.856 63.353H184.694C187.936 63.353 190.228 63.7214 191.569 64.4625C192.905 65.1993 193.576 66.7491 193.576 69.0993V82.3533C193.576 84.1826 192.993 85.6392 191.829 86.7275C190.664 87.8158 188.72 88.362 185.997 88.362H177.861V63.353H177.856ZM186.495 83.5008C187.174 83.2129 187.518 82.4803 187.518 81.3031V69.8869C187.518 68.9087 187.22 68.2778 186.625 67.9898C186.03 67.7019 185.385 67.5452 184.694 67.5198H183.839V83.9285C184.928 83.9285 185.812 83.7845 186.495 83.4966V83.5008Z" fill="url(#paint22_linear_321_851)"/>
<path d="M200.664 79.6516V79.9523C200.639 80.0031 200.626 80.0582 200.626 80.1217V80.2911C200.601 80.3927 200.584 80.4901 200.572 80.5917C200.559 80.6933 200.555 80.778 200.555 80.8542C200.555 81.9806 200.777 82.8318 201.225 83.4076C201.669 83.9835 202.168 84.2842 202.713 84.3096H202.993C203.056 84.3096 203.111 84.2969 203.161 84.2715C203.605 84.1699 204.007 83.9158 204.367 83.5008C204.728 83.0858 204.908 82.5311 204.908 81.8282C204.908 81.1253 204.665 80.4774 204.183 79.9523C203.701 79.4272 203.098 78.9275 202.382 78.449C202.034 78.1992 201.678 77.9621 201.305 77.7334C200.932 77.509 200.563 77.2592 200.191 76.9839C199.001 76.209 197.911 75.2435 196.923 74.0917C195.93 72.94 195.435 71.3901 195.435 69.4338C195.435 69.4084 195.44 69.383 195.452 69.3576C195.465 69.3322 195.469 69.2941 195.469 69.2432C195.469 69.2178 195.473 69.1924 195.486 69.167C195.498 69.1416 195.502 69.1162 195.502 69.0908C195.502 68.968 195.507 68.841 195.519 68.7139C195.532 68.5911 195.536 68.4641 195.536 68.3371C195.758 66.8592 196.512 65.5169 197.802 64.3016C199.089 63.0863 200.739 62.4807 202.742 62.4807C204.745 62.4807 206.513 63.0947 208.038 64.3227C209.563 65.5508 210.321 67.4902 210.321 70.1452V70.6703H204.895V69.9589C204.895 69.0823 204.724 68.4048 204.376 67.9305C204.028 67.4563 203.647 67.1556 203.224 67.0286C203.123 67.0032 203.039 66.9863 202.964 66.9735C202.889 66.9608 202.817 66.9566 202.742 66.9566H202.629C202.206 66.982 201.816 67.1683 201.46 67.5198C201.1 67.8713 200.92 68.3074 200.92 68.8325C200.92 69.6074 201.183 70.2553 201.72 70.7677C202.252 71.28 202.901 71.7628 203.672 72.2116C203.969 72.4106 204.284 72.6054 204.619 72.7917C204.954 72.9781 205.293 73.1729 205.641 73.3719C206.781 74.0494 207.828 74.9175 208.779 75.9803C209.73 77.0432 210.245 78.5507 210.321 80.507V81.1464C210.321 84.1021 209.533 86.122 207.962 87.2102C206.391 88.2985 204.564 88.8447 202.482 88.8447L201.703 88.8829C199.596 88.7558 197.983 88.0444 196.856 86.7444C195.729 85.4444 195.163 83.6024 195.163 81.2226C195.163 81.0998 195.167 80.9728 195.18 80.8458C195.192 80.723 195.197 80.5959 195.197 80.4689V80.1683C195.222 80.092 195.234 80.0073 195.234 79.9057V79.6432H200.66L200.664 79.6516Z" fill="url(#paint23_linear_321_851)"/>
<path d="M103.161 30.4298C103.161 27.7917 104.636 26.1995 107.011 26.1995C109.387 26.1995 110.807 27.7917 110.807 30.4298C110.807 33.0679 109.366 34.6601 107.011 34.6601C104.657 34.6601 103.161 33.034 103.161 30.4298ZM108.955 30.4298C108.955 28.7656 108.23 27.7832 107.011 27.7832C105.792 27.7832 105.025 28.7656 105.025 30.4298C105.025 32.094 105.771 33.0764 107.011 33.0764C108.251 33.0764 108.955 32.0728 108.955 30.4298Z" fill="url(#paint24_linear_321_851)"/>
<path d="M115.843 29.0875C115.843 29.4304 115.793 29.7099 115.688 29.9259C115.441 29.8751 115.248 29.8539 115.056 29.8539C114.289 29.8539 113.552 30.2901 113.552 31.4376V34.3425C113.325 34.4272 113.028 34.4864 112.663 34.4864C112.345 34.4864 112.06 34.4356 111.792 34.3425V28.537C112.006 28.4523 112.19 28.393 112.609 28.393C112.927 28.393 113.149 28.4565 113.376 28.537V29.5617H113.384C113.669 28.808 114.285 28.2702 115.156 28.2702C115.361 28.2702 115.504 28.2998 115.688 28.3422C115.801 28.5497 115.843 28.8376 115.843 29.0875Z" fill="url(#paint25_linear_321_851)"/>
<path d="M121.993 26.3647V34.3721C121.767 34.4653 121.624 34.5161 121.235 34.5161C120.845 34.5161 120.581 34.4653 120.363 34.3721V33.7708C120.003 34.2874 119.4 34.5881 118.583 34.5881C117.213 34.5881 115.973 33.593 115.973 31.5265C115.973 29.4601 117.108 28.2998 118.725 28.2998C119.349 28.2998 119.861 28.4946 120.242 28.8884V26.3647C120.497 26.2927 120.782 26.2503 121.122 26.2503C121.461 26.2503 121.746 26.2927 121.993 26.3647ZM120.397 31.3699C120.397 30.1588 119.802 29.6633 119.006 29.6633C118.155 29.6633 117.636 30.2223 117.636 31.4842C117.636 32.7461 118.197 33.2415 118.956 33.2415C119.877 33.2415 120.397 32.5259 120.397 31.3699Z" fill="url(#paint26_linear_321_851)"/>
<path d="M128.663 31.8907H124.557C124.599 32.42 124.826 32.7799 125.069 32.9874C125.324 33.1949 125.663 33.3177 126.041 33.3177C126.296 33.3177 126.501 33.2669 126.665 33.1822C126.841 33.0975 126.962 32.9747 127.042 32.8223C127.247 32.7503 127.524 32.6995 127.779 32.6995C128.077 32.6995 128.332 32.7503 128.558 32.8223C128.424 33.3685 128.089 33.8682 127.503 34.2281C127.134 34.4441 126.61 34.6092 125.915 34.6092C125.261 34.6092 124.566 34.3933 124.042 33.9783C123.389 33.4702 122.957 32.6741 122.957 31.5181C122.957 30.523 123.263 29.6337 123.95 29.0155C124.44 28.5708 125.127 28.2914 125.894 28.2914C126.753 28.2914 127.461 28.592 127.943 29.1086C128.525 29.7311 128.709 30.4933 128.709 31.3233C128.709 31.5181 128.68 31.7383 128.659 31.8907H128.663ZM124.989 29.9979C124.826 30.1757 124.65 30.434 124.578 30.8448H127.188C127.168 30.4721 127.067 30.2223 126.891 30.036C126.665 29.7777 126.351 29.6422 125.927 29.6422C125.601 29.6422 125.24 29.7353 124.985 29.9936L124.989 29.9979Z" fill="url(#paint27_linear_321_851)"/>
<path d="M133.757 29.0875C133.757 29.4304 133.707 29.7099 133.602 29.9259C133.355 29.8751 133.162 29.8539 132.97 29.8539C132.203 29.8539 131.466 30.2901 131.466 31.4376V34.3425C131.239 34.4272 130.942 34.4864 130.577 34.4864C130.259 34.4864 129.974 34.4356 129.706 34.3425V28.537C129.92 28.4523 130.104 28.393 130.523 28.393C130.841 28.393 131.063 28.4565 131.29 28.537V29.5617H131.298C131.583 28.808 132.199 28.2702 133.07 28.2702C133.276 28.2702 133.418 28.2998 133.602 28.3422C133.715 28.5497 133.757 28.8376 133.757 29.0875Z" fill="url(#paint28_linear_321_851)"/>
<path d="M142.325 34.0206C142.325 34.1562 142.304 34.2874 142.262 34.4018C142.015 34.5034 141.638 34.5881 141.148 34.5881C140.503 34.5881 140.268 34.3721 140.205 34.0926C140.163 33.991 140.142 33.8978 140.142 33.7115H140.134C139.794 34.1985 139.191 34.6219 138.24 34.6092C136.983 34.6008 136.233 33.9487 136.233 32.818C136.233 31.5477 137.034 31.0819 138.228 30.976L139.179 30.9041C139.79 30.8405 140.058 30.7389 140.058 30.2731C140.058 30.036 139.987 29.8793 139.853 29.765C139.627 29.5702 139.271 29.494 138.931 29.494C138.236 29.494 137.888 29.7819 137.888 30.2265V30.2773C137.746 30.3493 137.469 30.3917 137.201 30.3917C136.895 30.3917 136.648 30.3282 136.514 30.2773C136.493 30.2054 136.485 30.0995 136.485 30.0275C136.485 29.0536 137.302 28.2702 139.024 28.2702C139.966 28.2702 140.67 28.5073 141.102 28.9223C141.449 29.2526 141.697 29.748 141.697 30.6796C141.697 31.2809 141.688 32.3988 141.688 33.1399C141.688 33.521 141.759 33.6268 141.986 33.6268C142.078 33.6268 142.149 33.6184 142.262 33.5972C142.304 33.7115 142.325 33.8343 142.325 34.0122V34.0206ZM140.054 31.9119V31.7679C139.82 31.8399 139.564 31.8611 139.317 31.8822L138.764 31.9119C138.056 31.9627 137.75 32.1702 137.75 32.6275C137.75 33.1145 138.14 33.3516 138.651 33.3516C139.531 33.3516 140.054 32.7503 140.054 31.9119Z" fill="url(#paint29_linear_321_851)"/>
<path d="M148.853 30.5949V34.3594C148.585 34.4314 148.3 34.4822 147.96 34.4822C147.621 34.4822 147.357 34.4399 147.089 34.3594V30.7304C147.089 30.3282 147.005 30.091 146.842 29.9132C146.678 29.748 146.402 29.6633 146.083 29.6633C145.56 29.6633 144.919 29.9513 144.919 30.8109V34.3594C144.671 34.4314 144.395 34.4822 144.047 34.4822C143.7 34.4822 143.415 34.4314 143.146 34.3594V28.5243C143.352 28.4607 143.544 28.4015 143.947 28.4015C144.349 28.4015 144.563 28.465 144.755 28.5243V29.4135L144.785 29.422C145.124 28.7487 145.891 28.2829 146.699 28.2829C147.395 28.2829 147.969 28.5327 148.308 28.935C148.706 29.3923 148.848 29.8751 148.848 30.5907L148.853 30.5949Z" fill="url(#paint30_linear_321_851)"/>
<path d="M155.79 26.3647V34.3721C155.564 34.4653 155.421 34.5161 155.032 34.5161C154.642 34.5161 154.378 34.4653 154.16 34.3721V33.7708C153.804 34.2874 153.197 34.5881 152.38 34.5881C151.01 34.5881 149.77 33.593 149.77 31.5265C149.77 29.4601 150.905 28.2998 152.522 28.2998C153.146 28.2998 153.657 28.4946 154.039 28.8884V26.3647C154.294 26.2927 154.579 26.2503 154.918 26.2503C155.258 26.2503 155.543 26.2927 155.79 26.3647ZM154.194 31.3699C154.194 30.1588 153.599 29.6633 152.803 29.6633C151.952 29.6633 151.433 30.2223 151.433 31.4842C151.433 32.7461 151.994 33.2415 152.752 33.2415C153.674 33.2415 154.194 32.5259 154.194 31.3699Z" fill="url(#paint31_linear_321_851)"/>
<path d="M165.141 31.8907H161.035C161.077 32.42 161.299 32.7799 161.546 32.9874C161.802 33.1949 162.141 33.3177 162.518 33.3177C162.774 33.3177 162.979 33.2669 163.142 33.1822C163.318 33.0975 163.44 32.9747 163.519 32.8223C163.725 32.7503 164.001 32.6995 164.257 32.6995C164.554 32.6995 164.81 32.7503 165.036 32.8223C164.902 33.3685 164.567 33.8682 163.98 34.2281C163.612 34.4441 163.088 34.6092 162.392 34.6092C161.739 34.6092 161.043 34.3933 160.52 33.9783C159.866 33.4702 159.435 32.6741 159.435 31.5181C159.435 30.523 159.74 29.6337 160.427 29.0155C160.918 28.5708 161.605 28.2914 162.371 28.2914C163.23 28.2914 163.938 28.592 164.42 29.1086C165.002 29.7311 165.187 30.4933 165.187 31.3233C165.187 31.5181 165.157 31.7383 165.137 31.8907H165.141ZM161.466 29.9979C161.303 30.1757 161.127 30.434 161.056 30.8448H163.666C163.645 30.4721 163.545 30.2223 163.369 30.036C163.142 29.7777 162.828 29.6422 162.405 29.6422C162.078 29.6422 161.718 29.7353 161.462 29.9936L161.466 29.9979Z" fill="url(#paint32_linear_321_851)"/>
<path d="M172 34.0206C172 34.1562 171.979 34.2874 171.937 34.4018C171.69 34.5034 171.313 34.5881 170.823 34.5881C170.177 34.5881 169.943 34.3721 169.88 34.0926C169.838 33.991 169.817 33.8978 169.817 33.7115H169.809C169.469 34.1985 168.866 34.6219 167.915 34.6092C166.658 34.6008 165.908 33.9487 165.908 32.818C165.908 31.5477 166.708 31.0819 167.902 30.976L168.853 30.9041C169.469 30.8405 169.733 30.7389 169.733 30.2731C169.733 30.036 169.662 29.8793 169.528 29.765C169.302 29.5702 168.946 29.494 168.606 29.494C167.911 29.494 167.563 29.7819 167.563 30.2265V30.2773C167.421 30.3493 167.144 30.3917 166.876 30.3917C166.57 30.3917 166.323 30.3282 166.189 30.2773C166.168 30.2054 166.16 30.0995 166.16 30.0275C166.16 29.0536 166.977 28.2702 168.698 28.2702C169.641 28.2702 170.345 28.5073 170.776 28.9223C171.124 29.2526 171.371 29.748 171.371 30.6796C171.371 31.2809 171.363 32.3988 171.363 33.1399C171.363 33.521 171.434 33.6268 171.66 33.6268C171.753 33.6268 171.824 33.6184 171.937 33.5972C171.979 33.7115 172 33.8343 172 34.0122V34.0206ZM169.729 31.9119V31.7679C169.494 31.8399 169.239 31.8611 168.992 31.8822L168.439 31.9119C167.731 31.9627 167.425 32.1702 167.425 32.6275C167.425 33.1145 167.814 33.3516 168.326 33.3516C169.205 33.3516 169.729 32.7503 169.729 31.9119Z" fill="url(#paint33_linear_321_851)"/>
<path d="M176.88 29.0875C176.88 29.4304 176.829 29.7099 176.725 29.9259C176.477 29.8751 176.285 29.8539 176.092 29.8539C175.325 29.8539 174.588 30.2901 174.588 31.4376V34.3425C174.362 34.4272 174.064 34.4864 173.696 34.4864C173.377 34.4864 173.092 34.4356 172.824 34.3425V28.537C173.038 28.4523 173.222 28.393 173.641 28.393C173.96 28.393 174.182 28.4565 174.408 28.537V29.5617H174.416C174.701 28.808 175.317 28.2702 176.188 28.2702C176.394 28.2702 176.536 28.2998 176.72 28.3422C176.834 28.5497 176.875 28.8376 176.875 29.0875H176.88Z" fill="url(#paint34_linear_321_851)"/>
<path d="M183.265 30.5949V34.3594C182.997 34.4314 182.712 34.4822 182.372 34.4822C182.033 34.4822 181.769 34.4399 181.501 34.3594V30.7304C181.501 30.3282 181.417 30.091 181.254 29.9132C181.09 29.748 180.814 29.6633 180.495 29.6633C179.972 29.6633 179.331 29.9513 179.331 30.8109V34.3594C179.084 34.4314 178.807 34.4822 178.459 34.4822C178.112 34.4822 177.827 34.4314 177.559 34.3594V28.5243C177.764 28.4607 177.957 28.4015 178.359 28.4015C178.761 28.4015 178.975 28.465 179.167 28.5243V29.4135L179.197 29.422C179.536 28.7487 180.303 28.2829 181.111 28.2829C181.807 28.2829 182.381 28.5327 182.72 28.935C183.118 29.3923 183.261 29.8751 183.261 30.5907L183.265 30.5949Z" fill="url(#paint35_linear_321_851)"/>
<defs>
<filter id="filter0_d_321_851" x="48.2775" y="29.0393" width="194.645" height="99.1913" filterUnits="userSpaceOnUse" color-interpolation-filters="sRGB">
<feFlood flood-opacity="0" result="BackgroundImageFix"/>
<feColorMatrix in="SourceAlpha" type="matrix" values="0 0 0 0 0 0 0 0 0 0 0 0 0 0 0 0 0 0 127 0" result="hardAlpha"/>
<feOffset dx="2.1" dy="6.29"/>
<feGaussianBlur stdDeviation="3.15"/>
<feColorMatrix type="matrix" values="0 0 0 0 0.537255 0 0 0 0 0.498039 0 0 0 0 0.447059 0 0 0 0.3 0"/>
<feBlend mode="normal" in2="BackgroundImageFix" result="effect1_dropShadow_321_851"/>
<feBlend mode="normal" in="SourceGraphic" in2="effect1_dropShadow_321_851" result="shape"/>
</filter>
<filter id="filter1_d_321_851" x="56.5117" y="33.1327" width="178.178" height="82.6205" filterUnits="userSpaceOnUse" color-interpolation-filters="sRGB">
<feFlood flood-opacity="0" result="BackgroundImageFix"/>
<feColorMatrix in="SourceAlpha" type="matrix" values="0 0 0 0 0 0 0 0 0 0 0 0 0 0 0 0 0 0 127 0" result="hardAlpha"/>
<feOffset dx="2.1" dy="2.1"/>
<feGaussianBlur stdDeviation="1.05"/>
<feColorMatrix type="matrix" values="0 0 0 0 0.537255 0 0 0 0 0.498039 0 0 0 0 0.447059 0 0 0 0.3 0"/>
<feBlend mode="normal" in2="BackgroundImageFix" result="effect1_dropShadow_321_851"/>
<feBlend mode="normal" in="SourceGraphic" in2="effect1_dropShadow_321_851" result="shape"/>
</filter>
<filter id="filter2_d_321_851" x="94.7297" y="16.0115" width="101.741" height="47.0802" filterUnits="userSpaceOnUse" color-interpolation-filters="sRGB">
<feFlood flood-opacity="0" result="BackgroundImageFix"/>
<feColorMatrix in="SourceAlpha" type="matrix" values="0 0 0 0 0 0 0 0 0 0 0 0 0 0 0 0 0 0 127 0" result="hardAlpha"/>
<feOffset dx="2.1" dy="5.25"/>
<feGaussianBlur stdDeviation="3.15"/>
<feColorMatrix type="matrix" values="0 0 0 0 0.537255 0 0 0 0 0.498039 0 0 0 0 0.447059 0 0 0 0.3 0"/>
<feBlend mode="normal" in2="BackgroundImageFix" result="effect1_dropShadow_321_851"/>
<feBlend mode="normal" in="SourceGraphic" in2="effect1_dropShadow_321_851" result="shape"/>
</filter>
<linearGradient id="paint0_linear_321_851" x1="75.0195" y1="18.9585" x2="81.1237" y2="18.9585" gradientUnits="userSpaceOnUse">
<stop stop-color="#CF2A92"/>
<stop offset="0.99" stop-color="#CF2A92"/>
</linearGradient>
<linearGradient id="paint1_linear_321_851" x1="224.101" y1="127.823" x2="230.205" y2="127.823" gradientUnits="userSpaceOnUse">
<stop stop-color="#CF2A92"/>
<stop offset="0.99" stop-color="#CF2A92"/>
</linearGradient>
<linearGradient id="paint2_linear_321_851" x1="243.896" y1="42.6929" x2="250" y2="42.6929" gradientUnits="userSpaceOnUse">
<stop stop-color="#CF2A92"/>
<stop offset="0.99" stop-color="#CF2A92"/>
</linearGradient>
<linearGradient id="paint3_linear_321_851" x1="143.498" y1="71.5553" x2="143.498" y2="143.19" gradientUnits="userSpaceOnUse">
<stop offset="0.04" stop-color="#FBB03B"/>
<stop offset="0.33" stop-color="#FBB33B"/>
<stop offset="0.62" stop-color="#FBBF3D"/>
<stop offset="0.91" stop-color="#FBD340"/>
<stop offset="1" stop-color="#FBDC42"/>
</linearGradient>
<linearGradient id="paint4_linear_321_851" x1="145.475" y1="134.035" x2="143.567" y2="46.5387" gradientUnits="userSpaceOnUse">
<stop stop-color="#445DD4"/>
<stop offset="0.45" stop-color="#8345BE"/>
<stop offset="0.66" stop-color="#9F36B7"/>
<stop offset="0.77" stop-color="#A235B4"/>
<stop offset="0.86" stop-color="#AC32AC"/>
<stop offset="0.94" stop-color="#BD2E9F"/>
<stop offset="1" stop-color="#CF2A92"/>
</linearGradient>
<linearGradient id="paint5_linear_321_851" x1="143.498" y1="104.487" x2="143.498" y2="68.0787" gradientUnits="userSpaceOnUse">
<stop stop-color="#D6D6D6"/>
<stop offset="0.15" stop-color="#E6E6E6"/>
<stop offset="0.34" stop-color="#F4F4F4"/>
<stop offset="0.59" stop-color="#FCFCFC"/>
<stop offset="1" stop-color="white"/>
</linearGradient>
<linearGradient id="paint6_linear_321_851" x1="47.9176" y1="137.012" x2="54.5328" y2="137.012" gradientUnits="userSpaceOnUse">
<stop offset="0.04" stop-color="#FBB03B"/>
<stop offset="0.43" stop-color="#FBBB3C" stop-opacity="0.97"/>
<stop offset="0.97" stop-color="#FBDA41" stop-opacity="0.9"/>
<stop offset="0.99" stop-color="#FBDC42" stop-opacity="0.9"/>
</linearGradient>
<linearGradient id="paint7_linear_321_851" x1="78.8573" y1="111.91" x2="61.3538" y2="129.14" gradientUnits="userSpaceOnUse">
<stop stop-color="#D6D6D6"/>
<stop offset="0.99" stop-color="#FEFEFE"/>
<stop offset="1" stop-color="white"/>
</linearGradient>
<linearGradient id="paint8_linear_321_851" x1="57.7711" y1="139.867" x2="75.8824" y2="139.867" gradientUnits="userSpaceOnUse">
<stop offset="0.04" stop-color="#FBB03B"/>
<stop offset="0.43" stop-color="#FBBB3C" stop-opacity="0.97"/>
<stop offset="0.97" stop-color="#FBDA41" stop-opacity="0.9"/>
<stop offset="0.99" stop-color="#FBDC42" stop-opacity="0.9"/>
</linearGradient>
<linearGradient id="paint9_linear_321_851" x1="49.0443" y1="130.106" x2="68.9948" y2="130.106" gradientUnits="userSpaceOnUse">
<stop stop-color="#CF2A92"/>
<stop offset="0.27" stop-color="#C72B97"/>
<stop offset="0.68" stop-color="#B330A6"/>
<stop offset="1" stop-color="#9F36B7"/>
</linearGradient>
<linearGradient id="paint10_linear_321_851" x1="89.7615" y1="94.2012" x2="70.8091" y2="133.357" gradientUnits="userSpaceOnUse">
<stop stop-color="#CF2A92"/>
<stop offset="0.27" stop-color="#C72B97"/>
<stop offset="0.68" stop-color="#B330A6"/>
<stop offset="1" stop-color="#9F36B7"/>
</linearGradient>
<linearGradient id="paint11_linear_321_851" x1="95.7656" y1="95.9206" x2="84.526" y2="106.446" gradientUnits="userSpaceOnUse">
<stop offset="0.04" stop-color="#9F36B7"/>
<stop offset="1" stop-color="#653591"/>
</linearGradient>
<linearGradient id="paint12_linear_321_851" x1="74.6331" y1="114.586" x2="82.7655" y2="109.069" gradientUnits="userSpaceOnUse">
<stop stop-color="#FBB03B"/>
<stop offset="0.36" stop-color="#FBB23B"/>
<stop offset="0.61" stop-color="#FBBC3C"/>
<stop offset="0.84" stop-color="#FBCC3F"/>
<stop offset="1" stop-color="#FBDC42"/>
</linearGradient>
<linearGradient id="paint13_linear_321_851" x1="85.501" y1="104.682" x2="77.7409" y2="115.652" gradientUnits="userSpaceOnUse">
<stop offset="0.04" stop-color="#FBB03B"/>
<stop offset="0.43" stop-color="#FBBB3C" stop-opacity="0.97"/>
<stop offset="0.97" stop-color="#FBDA41" stop-opacity="0.9"/>
<stop offset="0.99" stop-color="#FBDC42" stop-opacity="0.9"/>
</linearGradient>
<linearGradient id="paint14_linear_321_851" x1="90.6799" y1="101.239" x2="83.5633" y2="107.089" gradientUnits="userSpaceOnUse">
<stop stop-color="#CF2A92"/>
<stop offset="0.13" stop-color="#C72B97"/>
<stop offset="0.31" stop-color="#B330A6"/>
<stop offset="0.46" stop-color="#9F36B7"/>
<stop offset="0.59" stop-color="#8C2FA1"/>
<stop offset="0.91" stop-color="#622170"/>
</linearGradient>
<linearGradient id="paint15_linear_321_851" x1="143.498" y1="50.1795" x2="143.498" y2="20.3263" gradientUnits="userSpaceOnUse">
<stop offset="0.04" stop-color="#FBB03B"/>
<stop offset="0.23" stop-color="#FBBA3C"/>
<stop offset="0.7" stop-color="#FBD340"/>
<stop offset="1" stop-color="#FBDC42"/>
</linearGradient>
<linearGradient id="paint16_linear_321_851" x1="153.909" y1="48.4603" x2="153.909" y2="21.7575" gradientUnits="userSpaceOnUse">
<stop stop-color="white" stop-opacity="0"/>
<stop offset="0.11" stop-color="white" stop-opacity="0.02"/>
<stop offset="0.24" stop-color="white" stop-opacity="0.07"/>
<stop offset="0.37" stop-color="white" stop-opacity="0.16"/>
<stop offset="0.5" stop-color="white" stop-opacity="0.28"/>
<stop offset="0.64" stop-color="white" stop-opacity="0.43"/>
<stop offset="0.77" stop-color="white" stop-opacity="0.62"/>
<stop offset="0.91" stop-color="white" stop-opacity="0.84"/>
<stop offset="1" stop-color="white"/>
</linearGradient>
<linearGradient id="paint17_linear_321_851" x1="144.491" y1="53.8551" x2="144.491" y2="90.6741" gradientUnits="userSpaceOnUse">
<stop offset="0.02" stop-color="#9F36B7"/>
<stop offset="0.15" stop-color="#9135AE"/>
<stop offset="0.43" stop-color="#79359E"/>
<stop offset="0.69" stop-color="#6A3594"/>
<stop offset="0.91" stop-color="#653591"/>
</linearGradient>
<linearGradient id="paint18_linear_321_851" x1="144.491" y1="53.8551" x2="144.491" y2="90.6741" gradientUnits="userSpaceOnUse">
<stop offset="0.02" stop-color="#9F36B7"/>
<stop offset="0.15" stop-color="#9135AE"/>
<stop offset="0.43" stop-color="#79359E"/>
<stop offset="0.69" stop-color="#6A3594"/>
<stop offset="0.91" stop-color="#653591"/>
</linearGradient>
<linearGradient id="paint19_linear_321_851" x1="144.491" y1="53.8551" x2="144.491" y2="90.6741" gradientUnits="userSpaceOnUse">
<stop offset="0.02" stop-color="#9F36B7"/>
<stop offset="0.15" stop-color="#9135AE"/>
<stop offset="0.43" stop-color="#79359E"/>
<stop offset="0.69" stop-color="#6A3594"/>
<stop offset="0.91" stop-color="#653591"/>
</linearGradient>
<linearGradient id="paint20_linear_321_851" x1="144.491" y1="53.8551" x2="144.491" y2="90.6741" gradientUnits="userSpaceOnUse">
<stop offset="0.02" stop-color="#9F36B7"/>
<stop offset="0.15" stop-color="#9135AE"/>
<stop offset="0.43" stop-color="#79359E"/>
<stop offset="0.69" stop-color="#6A3594"/>
<stop offset="0.91" stop-color="#653591"/>
</linearGradient>
<linearGradient id="paint21_linear_321_851" x1="144.491" y1="53.8551" x2="144.491" y2="90.6741" gradientUnits="userSpaceOnUse">
<stop offset="0.02" stop-color="#9F36B7"/>
<stop offset="0.15" stop-color="#9135AE"/>
<stop offset="0.43" stop-color="#79359E"/>
<stop offset="0.69" stop-color="#6A3594"/>
<stop offset="0.91" stop-color="#653591"/>
</linearGradient>
<linearGradient id="paint22_linear_321_851" x1="144.491" y1="53.8551" x2="144.491" y2="90.6741" gradientUnits="userSpaceOnUse">
<stop offset="0.02" stop-color="#9F36B7"/>
<stop offset="0.15" stop-color="#9135AE"/>
<stop offset="0.43" stop-color="#79359E"/>
<stop offset="0.69" stop-color="#6A3594"/>
<stop offset="0.91" stop-color="#653591"/>
</linearGradient>
<linearGradient id="paint23_linear_321_851" x1="144.491" y1="53.8551" x2="144.491" y2="90.6741" gradientUnits="userSpaceOnUse">
<stop offset="0.02" stop-color="#9F36B7"/>
<stop offset="0.15" stop-color="#9135AE"/>
<stop offset="0.43" stop-color="#79359E"/>
<stop offset="0.69" stop-color="#6A3594"/>
<stop offset="0.91" stop-color="#653591"/>
</linearGradient>
<linearGradient id="paint24_linear_321_851" x1="143.213" y1="23.5064" x2="143.213" y2="34.135" gradientUnits="userSpaceOnUse">
<stop offset="0.04" stop-color="#9F36B7"/>
<stop offset="0.4" stop-color="#8235A4"/>
<stop offset="0.77" stop-color="#6D3596"/>
<stop offset="1" stop-color="#653591"/>
</linearGradient>
<linearGradient id="paint25_linear_321_851" x1="143.213" y1="23.5064" x2="143.213" y2="34.135" gradientUnits="userSpaceOnUse">
<stop offset="0.04" stop-color="#9F36B7"/>
<stop offset="0.4" stop-color="#8235A4"/>
<stop offset="0.77" stop-color="#6D3596"/>
<stop offset="1" stop-color="#653591"/>
</linearGradient>
<linearGradient id="paint26_linear_321_851" x1="143.213" y1="23.5064" x2="143.213" y2="34.135" gradientUnits="userSpaceOnUse">
<stop offset="0.04" stop-color="#9F36B7"/>
<stop offset="0.4" stop-color="#8235A4"/>
<stop offset="0.77" stop-color="#6D3596"/>
<stop offset="1" stop-color="#653591"/>
</linearGradient>
<linearGradient id="paint27_linear_321_851" x1="143.213" y1="23.5064" x2="143.213" y2="34.135" gradientUnits="userSpaceOnUse">
<stop offset="0.04" stop-color="#9F36B7"/>
<stop offset="0.4" stop-color="#8235A4"/>
<stop offset="0.77" stop-color="#6D3596"/>
<stop offset="1" stop-color="#653591"/>
</linearGradient>
<linearGradient id="paint28_linear_321_851" x1="143.213" y1="23.5064" x2="143.213" y2="34.135" gradientUnits="userSpaceOnUse">
<stop offset="0.04" stop-color="#9F36B7"/>
<stop offset="0.4" stop-color="#8235A4"/>
<stop offset="0.77" stop-color="#6D3596"/>
<stop offset="1" stop-color="#653591"/>
</linearGradient>
<linearGradient id="paint29_linear_321_851" x1="143.213" y1="23.5064" x2="143.213" y2="34.135" gradientUnits="userSpaceOnUse">
<stop offset="0.04" stop-color="#9F36B7"/>
<stop offset="0.4" stop-color="#8235A4"/>
<stop offset="0.77" stop-color="#6D3596"/>
<stop offset="1" stop-color="#653591"/>
</linearGradient>
<linearGradient id="paint30_linear_321_851" x1="143.214" y1="23.5064" x2="143.214" y2="34.135" gradientUnits="userSpaceOnUse">
<stop offset="0.04" stop-color="#9F36B7"/>
<stop offset="0.4" stop-color="#8235A4"/>
<stop offset="0.77" stop-color="#6D3596"/>
<stop offset="1" stop-color="#653591"/>
</linearGradient>
<linearGradient id="paint31_linear_321_851" x1="143.213" y1="23.5064" x2="143.213" y2="34.135" gradientUnits="userSpaceOnUse">
<stop offset="0.04" stop-color="#9F36B7"/>
<stop offset="0.4" stop-color="#8235A4"/>
<stop offset="0.77" stop-color="#6D3596"/>
<stop offset="1" stop-color="#653591"/>
</linearGradient>
<linearGradient id="paint32_linear_321_851" x1="143.213" y1="23.5064" x2="143.213" y2="34.135" gradientUnits="userSpaceOnUse">
<stop offset="0.04" stop-color="#9F36B7"/>
<stop offset="0.4" stop-color="#8235A4"/>
<stop offset="0.77" stop-color="#6D3596"/>
<stop offset="1" stop-color="#653591"/>
</linearGradient>
<linearGradient id="paint33_linear_321_851" x1="143.213" y1="23.5064" x2="143.213" y2="34.135" gradientUnits="userSpaceOnUse">
<stop offset="0.04" stop-color="#9F36B7"/>
<stop offset="0.4" stop-color="#8235A4"/>
<stop offset="0.77" stop-color="#6D3596"/>
<stop offset="1" stop-color="#653591"/>
</linearGradient>
<linearGradient id="paint34_linear_321_851" x1="143.213" y1="23.5064" x2="143.213" y2="34.135" gradientUnits="userSpaceOnUse">
<stop offset="0.04" stop-color="#9F36B7"/>
<stop offset="0.4" stop-color="#8235A4"/>
<stop offset="0.77" stop-color="#6D3596"/>
<stop offset="1" stop-color="#653591"/>
</linearGradient>
<linearGradient id="paint35_linear_321_851" x1="143.213" y1="23.5064" x2="143.213" y2="34.135" gradientUnits="userSpaceOnUse">
<stop offset="0.04" stop-color="#9F36B7"/>
<stop offset="0.4" stop-color="#8235A4"/>
<stop offset="0.77" stop-color="#6D3596"/>
<stop offset="1" stop-color="#653591"/>
</linearGradient>
</defs>
</svg>
