<svg width="32" height="32" viewBox="0 0 32 32" fill="none" xmlns="http://www.w3.org/2000/svg">
<g id="Frame" clip-path="url(#clip0_268_347)">
<g id="Group">
<g id="Layer 2">
<g id="Layer 1 copy 4">
<g id="113">
<path id="Vector" d="M16 32C24.8366 32 32 24.8366 32 16C32 7.16344 24.8366 0 16 0C7.16344 0 0 7.16344 0 16C0 24.8366 7.16344 32 16 32Z" fill="url(#paint0_linear_268_347)"/>
<path id="113_2" d="M25.2119 9.1175C25.1867 9.08994 25.1598 9.06405 25.1313 9.04C24.4148 8.37138 23.4712 7.99968 22.4913 8H9.50875C8.52911 7.999 7.58559 8.36979 6.86875 9.0375C6.84022 9.06155 6.81329 9.08744 6.78813 9.115C6.41935 9.47597 6.12648 9.90703 5.92673 10.3828C5.72698 10.8586 5.6244 11.3696 5.625 11.8856V20.1144C5.6255 21.1444 6.03478 22.1322 6.76296 22.8607C7.49114 23.5893 8.4787 23.999 9.50875 24H22.4913C23.5213 23.999 24.5089 23.5893 25.237 22.8607C25.9652 22.1322 26.3745 21.1444 26.375 20.1144V11.8856C26.3753 11.37 26.2725 10.8595 26.0728 10.3842C25.8731 9.90883 25.5804 9.47817 25.2119 9.1175ZM22.4913 9.625C22.7428 9.62497 22.9925 9.66722 23.23 9.75L16 15.625L8.77 9.75C9.00751 9.66722 9.25724 9.62497 9.50875 9.625H22.4913ZM24.75 20.1144C24.7497 20.7135 24.5117 21.288 24.0882 21.7119C23.6647 22.1357 23.0904 22.3742 22.4913 22.375H9.50875C8.90962 22.3742 8.3353 22.1357 7.91183 21.7119C7.48835 21.288 7.25033 20.7135 7.25 20.1144V11.8856C7.2494 11.515 7.34066 11.1499 7.51563 10.8231L15.4881 17.3025C15.6329 17.4199 15.8136 17.484 16 17.484C16.1864 17.484 16.3671 17.4199 16.5119 17.3025L24.485 10.8244C24.66 11.1512 24.7512 11.5162 24.7506 11.8869L24.75 20.1144Z" fill="white"/>
</g>
</g>
</g>
</g>
</g>
<defs>
<linearGradient id="paint0_linear_268_347" x1="16" y1="0.1475" x2="16" y2="30.8669" gradientUnits="userSpaceOnUse">
<stop stop-color="#FC6736"/>
<stop offset="1" stop-color="#FC6736"/>
</linearGradient>
<clipPath id="clip0_268_347">
<rect width="32" height="32" fill="white"/>
</clipPath>
</defs>
</svg>