<svg width="135" height="40" viewBox="0 0 135 40" fill="none" xmlns="http://www.w3.org/2000/svg">
<g clip-path="url(#clip0_3_947)">
<path d="M130 40H5C2.25 40 0 37.75 0 35V5C0 2.25 2.25 0 5 0H130C132.75 0 135 2.25 135 5V35C135 37.75 132.75 40 130 40Z" fill="black"/>
<path d="M47.4201 10.2411C47.4201 11.0811 47.1701 11.7511 46.6701 12.2411C46.1101 12.8311 45.3701 13.1311 44.4701 13.1311C43.6001 13.1311 42.8701 12.8311 42.2601 12.2311C41.6501 11.6311 41.3501 10.8811 41.3501 10.0011C41.3501 9.11109 41.6501 8.37109 42.2601 7.77109C42.8701 7.17109 43.6001 6.87109 44.4701 6.87109C44.9001 6.87109 45.3101 6.95109 45.7001 7.12109C46.0901 7.29109 46.4001 7.51109 46.6401 7.79109L46.1101 8.32109C45.7101 7.85109 45.1701 7.61109 44.4701 7.61109C43.8401 7.61109 43.2901 7.83109 42.8301 8.28109C42.3701 8.72109 42.1401 9.30109 42.1401 10.0111C42.1401 10.7211 42.3701 11.3011 42.8301 11.7411C43.2901 12.1811 43.8401 12.4111 44.4701 12.4111C45.1401 12.4111 45.7001 12.1911 46.1501 11.7411C46.4401 11.4511 46.6101 11.0411 46.6501 10.5211H44.4701V9.79109H47.3801C47.4001 9.95109 47.4201 10.1011 47.4201 10.2411Z" fill="white" stroke="white" stroke-width="0.2" stroke-miterlimit="10"/>
<path d="M52.0303 7.74H49.3003V9.64H51.7603V10.36H49.3003V12.26H52.0303V13H48.5303V7H52.0303V7.74Z" fill="white" stroke="white" stroke-width="0.2" stroke-miterlimit="10"/>
<path d="M55.2801 13H54.5101V7.74H52.8301V7H56.9501V7.74H55.2701V13H55.2801Z" fill="white" stroke="white" stroke-width="0.2" stroke-miterlimit="10"/>
<path d="M59.9399 13V7H60.7099V13H59.9399Z" fill="white" stroke="white" stroke-width="0.2" stroke-miterlimit="10"/>
<path d="M64.1302 13H63.3602V7.74H61.6802V7H65.8002V7.74H64.1202V13H64.1302Z" fill="white" stroke="white" stroke-width="0.2" stroke-miterlimit="10"/>
<path d="M73.6101 12.2211C73.0201 12.8311 72.2901 13.1311 71.4101 13.1311C70.5301 13.1311 69.8001 12.8311 69.2101 12.2211C68.6201 11.6111 68.3301 10.8711 68.3301 10.0011C68.3301 9.13109 68.6201 8.38109 69.2101 7.78109C69.8001 7.17109 70.5301 6.87109 71.4101 6.87109C72.2801 6.87109 73.0101 7.17109 73.6101 7.78109C74.2001 8.39109 74.5001 9.13109 74.5001 10.0011C74.4901 10.8811 74.2001 11.6211 73.6101 12.2211ZM69.7801 11.7211C70.2201 12.1711 70.7701 12.3911 71.4101 12.3911C72.0501 12.3911 72.6001 12.1711 73.0401 11.7211C73.4801 11.2711 73.7101 10.7011 73.7101 10.0011C73.7101 9.30109 73.4901 8.73109 73.0401 8.28109C72.6001 7.83109 72.0501 7.60109 71.4101 7.60109C70.7701 7.60109 70.2201 7.82109 69.7801 8.27109C69.3401 8.73109 69.1101 9.30109 69.1101 10.0011C69.1101 10.7011 69.3401 11.2711 69.7801 11.7211Z" fill="white" stroke="white" stroke-width="0.2" stroke-miterlimit="10"/>
<path d="M75.5801 13V7H76.5201L79.4401 11.67H79.4701L79.4401 10.51V7H80.2101V13H79.4101L76.3601 8.11H76.3301L76.3601 9.27V13H75.5801Z" fill="white" stroke="white" stroke-width="0.2" stroke-miterlimit="10"/>
<path d="M68.1 21.7C65.75 21.7 63.83 23.49 63.83 25.95C63.83 28.4 65.75 30.2 68.1 30.2C70.45 30.2 72.37 28.4 72.37 25.95C72.37 23.49 70.45 21.7 68.1 21.7ZM68.1 28.53C66.81 28.53 65.7 27.47 65.7 25.95C65.7 24.42 66.81 23.37 68.1 23.37C69.39 23.37 70.5 24.42 70.5 25.95C70.5 27.47 69.38 28.53 68.1 28.53ZM58.78 21.7C56.43 21.7 54.51 23.49 54.51 25.95C54.51 28.4 56.43 30.2 58.78 30.2C61.13 30.2 63.05 28.4 63.05 25.95C63.05 23.49 61.13 21.7 58.78 21.7ZM58.78 28.53C57.49 28.53 56.38 27.47 56.38 25.95C56.38 24.42 57.49 23.37 58.78 23.37C60.07 23.37 61.18 24.42 61.18 25.95C61.18 27.47 60.07 28.53 58.78 28.53ZM47.7 23.01V24.81H52.02C51.89 25.82 51.55 26.57 51.04 27.08C50.41 27.71 49.43 28.4 47.71 28.4C45.05 28.4 42.97 26.26 42.97 23.6C42.97 20.94 45.05 18.8 47.71 18.8C49.14 18.8 50.19 19.36 50.96 20.09L52.23 18.82C51.15 17.79 49.72 17 47.7 17C44.06 17 41 19.96 41 23.61C41 27.25 44.06 30.22 47.7 30.22C49.67 30.22 51.15 29.58 52.31 28.37C53.5 27.18 53.87 25.5 53.87 24.15C53.87 23.73 53.84 23.34 53.77 23.02H47.7V23.01ZM93.01 24.41C92.66 23.46 91.58 21.7 89.37 21.7C87.18 21.7 85.36 23.42 85.36 25.95C85.36 28.33 87.16 30.2 89.58 30.2C91.53 30.2 92.66 29.01 93.12 28.32L91.67 27.35C91.19 28.06 90.53 28.53 89.58 28.53C88.63 28.53 87.95 28.09 87.52 27.24L93.21 24.89L93.01 24.41ZM87.21 25.83C87.16 24.19 88.48 23.35 89.43 23.35C90.17 23.35 90.8 23.72 91.01 24.25L87.21 25.83ZM82.59 29.95H84.46V17.45H82.59V29.95ZM79.53 22.65H79.46C79.04 22.15 78.24 21.7 77.22 21.7C75.09 21.7 73.14 23.57 73.14 25.97C73.14 28.35 75.09 30.21 77.22 30.21C78.23 30.21 79.04 29.76 79.46 29.24H79.52V29.85C79.52 31.48 78.65 32.35 77.25 32.35C76.11 32.35 75.4 31.53 75.11 30.84L73.48 31.52C73.95 32.65 75.19 34.03 77.25 34.03C79.44 34.03 81.29 32.74 81.29 29.6V21.96H79.52V22.65H79.53ZM77.38 28.53C76.09 28.53 75.01 27.45 75.01 25.97C75.01 24.47 76.09 23.38 77.38 23.38C78.65 23.38 79.65 24.48 79.65 25.97C79.66 27.45 78.66 28.53 77.38 28.53ZM101.77 17.45H97.3V29.95H99.17V25.21H101.78C103.85 25.21 105.88 23.71 105.88 21.33C105.88 18.95 103.83 17.45 101.77 17.45ZM101.81 23.47H99.16V19.18H101.81C103.21 19.18 104 20.34 104 21.32C104 22.3 103.21 23.47 101.81 23.47ZM113.35 21.68C112 21.68 110.6 22.28 110.02 23.59L111.68 24.28C112.03 23.59 112.69 23.36 113.38 23.36C114.35 23.36 115.33 23.94 115.34 24.97V25.1C115 24.91 114.28 24.62 113.39 24.62C111.6 24.62 109.79 25.6 109.79 27.43C109.79 29.1 111.25 30.18 112.89 30.18C114.14 30.18 114.84 29.62 115.27 28.96H115.33V29.93H117.13V25.14C117.14 22.92 115.48 21.68 113.35 21.68ZM113.12 28.53C112.51 28.53 111.66 28.22 111.66 27.47C111.66 26.51 112.72 26.14 113.64 26.14C114.46 26.14 114.85 26.32 115.34 26.56C115.2 27.71 114.2 28.53 113.12 28.53ZM123.7 21.95L121.56 27.37H121.5L119.28 21.95H117.27L120.6 29.53L118.7 33.74H120.65L125.78 21.95H123.7ZM106.9 29.95H108.77V17.45H106.9V29.95Z" fill="white"/>
<path d="M10.4405 7.53875C10.1505 7.84875 9.98047 8.32875 9.98047 8.93875V31.0588C9.98047 31.6788 10.1505 32.1588 10.4405 32.4587L10.5105 32.5287L22.9005 20.1488V19.9988V19.8488L10.5105 7.46875L10.4405 7.53875Z" fill="url(#paint0_linear_3_947)"/>
<path d="M27.0304 24.2788L22.9004 20.1487V19.9987V19.8488L27.0304 15.7188L27.1204 15.7688L32.0104 18.5487C33.4104 19.3387 33.4104 20.6388 32.0104 21.4388L27.1204 24.2187L27.0304 24.2788Z" fill="url(#paint1_linear_3_947)"/>
<path d="M27.1204 24.23L22.9004 20L10.4404 32.46C10.9004 32.95 11.6604 33.01 12.5204 32.52L27.1204 24.23Z" fill="url(#paint2_linear_3_947)"/>
<path d="M27.1202 15.7795L12.5102 7.4795C11.6502 6.9895 10.8902 7.0495 10.4302 7.5395L22.9002 19.9995L27.1202 15.7795Z" fill="url(#paint3_linear_3_947)"/>
<path opacity="0.2" d="M27.0305 24.1289L12.5105 32.3789C11.7005 32.8389 10.9705 32.8089 10.5105 32.3889L10.4405 32.4589L10.5105 32.5289C10.9805 32.9489 11.7005 32.9789 12.5105 32.5189L27.1205 24.2189L27.0305 24.1289Z" fill="black"/>
<path opacity="0.12" d="M10.4405 32.318C10.1505 32.008 9.98047 31.528 9.98047 30.918V31.068C9.98047 31.688 10.1505 32.168 10.4405 32.468L10.5105 32.398L10.4405 32.318Z" fill="black"/>
<path opacity="0.12" d="M32.01 21.3L27.02 24.13L27.11 24.22L32 21.44C32.7 21.04 33.05 20.52 33.05 20C33 20.47 32.65 20.94 32.01 21.3Z" fill="black"/>
<path opacity="0.25" d="M12.5102 7.61847L32.0102 18.6985C32.6402 19.0585 33.0002 19.5185 33.0602 19.9985C33.0602 19.4785 32.7102 18.9485 32.0102 18.5585L12.5102 7.47847C11.1102 6.68847 9.97021 7.34847 9.97021 8.94847V9.09847C9.97021 7.48847 11.1202 6.82847 12.5102 7.61847Z" fill="white"/>
</g>
<defs>
<linearGradient id="paint0_linear_3_947" x1="21.8001" y1="8.70855" x2="5.01767" y2="25.491" gradientUnits="userSpaceOnUse">
<stop stop-color="#00A0FF"/>
<stop offset="0.00657445" stop-color="#00A1FF"/>
<stop offset="0.2601" stop-color="#00BEFF"/>
<stop offset="0.5122" stop-color="#00D2FF"/>
<stop offset="0.7604" stop-color="#00DFFF"/>
<stop offset="1" stop-color="#00E3FF"/>
</linearGradient>
<linearGradient id="paint1_linear_3_947" x1="33.8347" y1="20.0003" x2="9.63779" y2="20.0003" gradientUnits="userSpaceOnUse">
<stop stop-color="#FFE000"/>
<stop offset="0.4087" stop-color="#FFBD00"/>
<stop offset="0.7754" stop-color="#FFA500"/>
<stop offset="1" stop-color="#FF9C00"/>
</linearGradient>
<linearGradient id="paint2_linear_3_947" x1="24.8273" y1="22.2962" x2="2.06903" y2="45.0545" gradientUnits="userSpaceOnUse">
<stop stop-color="#FF3A44"/>
<stop offset="1" stop-color="#C31162"/>
</linearGradient>
<linearGradient id="paint3_linear_3_947" x1="7.29742" y1="0.175799" x2="17.46" y2="10.3383" gradientUnits="userSpaceOnUse">
<stop stop-color="#32A071"/>
<stop offset="0.0685" stop-color="#2DA771"/>
<stop offset="0.4762" stop-color="#15CF74"/>
<stop offset="0.8009" stop-color="#06E775"/>
<stop offset="1" stop-color="#00F076"/>
</linearGradient>
<clipPath id="clip0_3_947">
<rect width="135" height="40" fill="white"/>
</clipPath>
</defs>
</svg>
