<svg width="32" height="32" viewBox="0 0 32 32" fill="none" xmlns="http://www.w3.org/2000/svg">
<g id="Frame" clip-path="url(#clip0_268_340)">
<g id="Group">
<path id="Vector" fill-rule="evenodd" clip-rule="evenodd" d="M2.95875 23.035C3.02813 23.1044 3.06875 23.1981 3.06875 23.3006C3.06896 23.3498 3.05943 23.3985 3.04072 23.4439C3.02201 23.4893 2.99449 23.5306 2.95974 23.5654C2.92499 23.6001 2.88371 23.6276 2.83827 23.6463C2.79283 23.6651 2.74414 23.6746 2.695 23.6744C2.59063 23.6744 2.49688 23.6337 2.42937 23.5662C2.36187 23.4969 2.31938 23.4031 2.31938 23.3006C2.31938 23.1981 2.36187 23.1037 2.42937 23.035C2.46407 23.0001 2.50532 22.9725 2.55074 22.9536C2.59616 22.9347 2.64487 22.925 2.69406 22.925C2.74325 22.925 2.79196 22.9347 2.83739 22.9536C2.88281 22.9725 2.92405 23.0001 2.95875 23.035ZM5.34688 21.2387C5.37188 21.2637 5.3875 21.2987 5.3875 21.3362V31.13C5.3875 31.1687 5.37125 31.2044 5.34688 31.2294C5.32063 31.2556 5.28687 31.2719 5.2475 31.2719H0.14C0.1025 31.2719 0.0675 31.2556 0.0425 31.2294C0.015625 31.2044 0 31.1687 0 31.13V21.3362C0 21.2987 0.015625 21.2637 0.0425 21.2387C0.0675 21.2119 0.1025 21.1962 0.14 21.1962H5.2475C5.28625 21.1962 5.32 21.2119 5.34688 21.2387ZM4.135 23.3006C4.135 22.9019 3.97375 22.5425 3.71312 22.2819C3.4525 22.0194 3.09125 21.8587 2.69438 21.8587C2.29562 21.8587 1.93625 22.02 1.67375 22.2819C1.41313 22.5425 1.25188 22.9019 1.25188 23.3006C1.25188 23.6994 1.41313 24.0587 1.67375 24.3194C1.93625 24.58 2.29562 24.7425 2.69438 24.7425C3.09125 24.7425 3.4525 24.5794 3.71312 24.3194C3.97375 24.0594 4.135 23.6994 4.135 23.3006ZM16.0881 5.96187C16.4231 6.04687 16.7844 6.11437 17.1706 6.16562C17.64 6.22562 18.1537 6.25937 18.6994 6.25937C19.245 6.25937 19.7569 6.22562 20.2281 6.16562C20.6125 6.11437 20.9756 6.04687 21.3106 5.96187L22.8913 2.30312C23.1425 1.72187 22.9925 1.06625 22.535 0.653749C22.17 0.326249 21.6494 0.281874 21.2344 0.547499L20.8394 0.800624C20.4781 1.03125 20.0406 1.03125 19.6787 0.800624L19.2781 0.543749C18.9169 0.311874 18.4806 0.311874 18.1194 0.543749L17.7169 0.800624C17.3556 1.03125 16.9194 1.03125 16.5581 0.800624L16.1612 0.547499C15.7487 0.281874 15.2256 0.326249 14.8606 0.653749C14.405 1.06625 14.255 1.72187 14.5063 2.30312L16.0881 5.96187ZM8.12813 21.5594C7.78813 20.5531 7.60563 19.4831 7.60563 18.3706C7.60563 13.6737 10.9237 9.24687 15.4044 6.85812C15.4419 6.88125 15.4825 6.89687 15.525 6.90937C15.9787 7.0425 16.4887 7.14687 17.0362 7.21937C17.5694 7.28875 18.1294 7.32562 18.7 7.32562C19.2706 7.32562 19.8288 7.28812 20.3619 7.21937C20.9113 7.14687 21.4212 7.0425 21.875 6.90937C21.9175 6.89687 21.9562 6.88125 21.9937 6.85812C26.4762 9.24625 29.7944 13.6737 29.7944 18.3706C29.7944 20.2112 29.2913 21.9406 28.4106 23.4444L23.06 24.7462C22.75 24.4219 22.3425 24.2075 21.91 24.0819L13.3919 21.5787C12.625 21.3537 11.8438 21.2156 11.0425 21.1906C10.2419 21.1656 9.45125 21.2562 8.67 21.435L8.12813 21.5594ZM16.095 19.6637C16.1856 19.8819 16.29 20.0762 16.405 20.2519C16.8531 20.9375 17.4731 21.3394 18.12 21.515C18.1344 21.5187 18.15 21.5219 18.1663 21.5256V22.5C18.1663 22.7944 18.4056 23.0331 18.6994 23.0331C18.9931 23.0331 19.2325 22.7937 19.2325 22.5V21.5944C19.4981 21.5644 19.7531 21.4969 19.9888 21.3994C20.1356 21.3375 20.2738 21.265 20.4 21.1812C20.5312 21.0962 20.6519 20.9969 20.7594 20.8837C21.0675 20.5681 21.2681 20.1644 21.3244 19.7375C21.3844 19.3019 21.2981 18.8481 21.03 18.4406C20.9456 18.3129 20.8475 18.1947 20.7375 18.0881C20.3156 17.6769 19.735 17.5406 19.12 17.3956C18.5688 17.2662 17.9806 17.1262 17.6388 16.7737C17.55 16.685 17.4862 16.5756 17.4456 16.4531C17.3869 16.285 17.3781 16.095 17.4175 15.9125C17.4562 15.7337 17.545 15.565 17.6831 15.4306C17.7875 15.3281 17.9244 15.2431 18.0944 15.1844C18.1475 15.1669 18.2006 15.1525 18.2519 15.1381C18.3937 15.1044 18.5425 15.0831 18.6912 15.0781H18.6981C18.7088 15.0781 18.7212 15.0781 18.7337 15.0762C18.9762 15.0725 19.2225 15.11 19.4444 15.1931C19.7737 15.3137 20.0487 15.5406 20.1656 15.8894C20.1781 15.9231 20.1869 15.955 20.1956 15.9869C20.265 16.2719 20.5538 16.4456 20.8388 16.3769C21.1238 16.3062 21.2994 16.0187 21.2288 15.7319C21.2125 15.6662 21.195 15.6062 21.1756 15.5475C20.9419 14.8581 20.4263 14.4187 19.8113 14.1919C19.625 14.1225 19.4306 14.075 19.2319 14.0469V13.1275C19.2319 12.8331 18.9925 12.5944 18.6987 12.5944C18.405 12.5944 18.1656 12.8337 18.1656 13.1275V14.07C18.1087 14.0806 18.0537 14.0931 17.9975 14.1056C17.9125 14.1269 17.8312 14.15 17.755 14.1762C17.4275 14.2881 17.1581 14.4581 16.9419 14.6669C16.6462 14.9556 16.46 15.3137 16.3769 15.6875C16.2969 16.0562 16.3181 16.4425 16.4387 16.795C16.5294 17.0625 16.6762 17.3087 16.8762 17.5162C17.4381 18.0937 18.1819 18.2694 18.88 18.4337C19.3475 18.5437 19.7869 18.6481 19.9963 18.85C20.0513 18.905 20.0987 18.9619 20.14 19.0237C20.2587 19.2044 20.2975 19.4062 20.2712 19.5962C20.2444 19.7962 20.1475 19.9894 19.9981 20.1437C19.9469 20.1969 19.8862 20.2462 19.8175 20.2906C19.7422 20.3394 19.6627 20.3814 19.58 20.4162C19.2325 20.5612 18.8075 20.595 18.395 20.4856C17.9838 20.3737 17.5888 20.1137 17.2969 19.6687C17.2156 19.5431 17.1425 19.4062 17.0788 19.2562C17.052 19.1916 17.0127 19.1329 16.9632 19.0835C16.9137 19.0341 16.8549 18.9949 16.7902 18.9683C16.7255 18.9416 16.6562 18.928 16.5862 18.9282C16.5163 18.9284 16.447 18.9424 16.3825 18.9694C16.1112 19.0806 15.9819 19.3925 16.095 19.6637ZM31.9713 24.5269C31.9348 24.4098 31.863 24.307 31.7656 24.2325C31.475 24.0075 30.9312 23.9275 30.0844 24.1331L23.5575 25.7225C23.5981 25.9531 23.5912 26.1887 23.5431 26.415C23.4881 26.6631 23.3819 26.9025 23.2294 27.1169C23.0769 27.3294 22.8819 27.5156 22.6462 27.6644C22.48 27.7669 22.2956 27.8519 22.0938 27.9106C21.695 28.0294 21.2294 28.0525 20.7081 27.9387H20.7062L12.1081 26.0769C11.8212 26.015 11.6388 25.7312 11.7006 25.4425C11.7625 25.1556 12.0463 24.9731 12.3331 25.035L20.9325 26.8987C20.9363 26.8987 20.9412 26.9006 20.945 26.9006C21.0406 26.9219 21.1344 26.9344 21.2231 26.9412C21.2319 26.9412 21.2406 26.9431 21.25 26.9431C21.59 26.9644 21.8719 26.8919 22.0825 26.7587C22.1975 26.6881 22.2919 26.5994 22.3606 26.5C22.43 26.4062 22.4756 26.3 22.5006 26.19C22.5394 26.0025 22.5113 25.8037 22.4013 25.6281L22.3906 25.6125C22.2525 25.4037 21.9975 25.2194 21.6075 25.1037L13.0894 22.6019C12.3756 22.3931 11.6912 22.2775 11.0094 22.2562C10.3237 22.235 9.6325 22.3075 8.90625 22.4744L6.4525 23.0344V29.0919L13.9963 31.2819C14.9619 31.5619 15.9025 31.6731 16.8325 31.615C17.7606 31.5562 18.6806 31.3281 19.6031 30.9275L31.0163 25.9825C31.5513 25.7506 31.8806 25.3412 31.9731 24.9425C32.01 24.7944 32.0081 24.6506 31.9713 24.5269Z" fill="url(#paint0_linear_268_340)"/>
</g>
</g>
<defs>
<linearGradient id="paint0_linear_268_340" x1="-0.000125" y1="16" x2="32.0002" y2="16" gradientUnits="userSpaceOnUse">
<stop stop-color="#FC6736"/>
<stop offset="0.193" stop-color="#FC6736"/>
<stop offset="0.492" stop-color="#FC6736"/>
<stop offset="0.858" stop-color="#FC6736"/>
<stop offset="1" stop-color="#FC6736"/>
</linearGradient>
<clipPath id="clip0_268_340">
<rect width="32" height="32" fill="white"/>
</clipPath>
</defs>
</svg>