<svg width="2204" height="1195" viewBox="0 0 2204 1195" fill="none" xmlns="http://www.w3.org/2000/svg">
<path d="M955.483 1113.02C916.519 1064.25 894.403 991.294 889.132 894.185C883.891 797.627 897.996 722.988 931.451 670.27C964.911 617.564 1015.92 589.337 1084.51 585.614C1153.08 581.892 1206.86 604.432 1245.83 653.206C1284.79 701.993 1306.89 774.667 1312.14 871.225C1317.38 967.795 1303.27 1042.56 1269.83 1095.55C1236.39 1148.54 1185.38 1176.89 1116.8 1180.62C1048.21 1184.34 994.451 1161.81 955.483 1113.02Z" fill="white"/>
<path d="M955.483 1113.02C916.519 1064.25 894.403 991.294 889.132 894.185C883.891 797.627 897.996 722.988 931.451 670.27C964.911 617.564 1015.92 589.337 1084.51 585.614C1153.08 581.892 1206.86 604.432 1245.83 653.206C1284.79 701.993 1306.89 774.667 1312.14 871.225C1317.38 967.795 1303.27 1042.56 1269.83 1095.55C1236.39 1148.54 1185.38 1176.89 1116.8 1180.62C1048.21 1184.34 994.451 1161.81 955.483 1113.02Z" stroke="#FC6736" stroke-width="10" stroke-miterlimit="10"/>
<path d="M1190.97 1041.64C1206.11 1006.43 1211.67 951.515 1207.62 876.898C1203.54 801.738 1192.07 747.743 1173.24 714.924C1154.4 682.105 1126.32 666.71 1089.02 668.735C1051.7 670.76 1025.47 689.244 1010.32 724.178C995.148 759.125 989.597 813.903 993.647 888.512C997.697 963.129 1009.15 1017.13 1028.03 1050.48C1046.89 1083.86 1074.98 1099.52 1112.29 1097.5C1149.59 1095.47 1175.82 1076.86 1190.97 1041.64Z" fill="#FFEEE9"/>
<path d="M1190.97 1041.64C1206.11 1006.43 1211.67 951.515 1207.62 876.898C1203.54 801.738 1192.07 747.743 1173.24 714.924C1154.4 682.105 1126.32 666.71 1089.02 668.735C1051.7 670.76 1025.47 689.244 1010.32 724.178C995.148 759.125 989.597 813.903 993.647 888.512C997.697 963.129 1009.15 1017.13 1028.03 1050.48C1046.89 1083.86 1074.98 1099.52 1112.29 1097.5C1149.59 1095.47 1175.82 1076.86 1190.97 1041.64Z" stroke="#FC6736" stroke-width="10" stroke-miterlimit="10"/>
<path d="M1428.39 885.719H746.442V894.812H1428.39V885.719Z" fill="#FC6736"/>
<path d="M1885.91 894.839H1802.7C1802.29 894.839 1801.95 894.503 1801.95 894.089V888.771C1801.95 888.357 1802.29 888.021 1802.7 888.021H1885.91C1886.32 888.021 1886.66 888.357 1886.66 888.771V894.089C1886.66 894.503 1886.32 894.839 1885.91 894.839Z" fill="#FC6736"/>
<path d="M371.421 894.839H288.214C287.8 894.839 287.464 894.503 287.464 894.089V888.771C287.464 888.357 287.8 888.021 288.214 888.021H371.421C371.835 888.021 372.171 888.357 372.171 888.771V894.089C372.171 894.503 371.835 894.839 371.421 894.839Z" fill="#FC6736"/>
<path d="M1813.06 1033.87H1729.36C1729.08 1033.87 1728.86 1033.65 1728.86 1033.37V1029.83C1728.86 1029.55 1729.08 1029.33 1729.36 1029.33H1813.06C1813.34 1029.33 1813.56 1029.55 1813.56 1029.83V1033.37C1813.56 1033.65 1813.34 1033.87 1813.06 1033.87Z" fill="#C4CEFE"/>
<path d="M412.178 304.658C428.066 304.658 441.88 293.122 444.026 277.379C444.411 274.556 444.61 271.673 444.61 268.744C444.61 233.696 416.198 205.284 381.15 205.284C379.712 205.284 378.289 205.349 376.875 205.443C373.978 170.882 345.027 143.729 309.717 143.729C272.484 143.729 242.302 173.913 242.302 211.146C242.302 212.798 242.382 214.429 242.498 216.051C231.93 210.149 219.619 206.993 206.521 207.594C172.66 209.146 144.835 236.231 142.439 270.044C142.42 270.312 142.403 270.581 142.387 270.849C141.297 289.237 156.164 304.658 174.584 304.658H412.178Z" fill="#FFEEE9"/>
<path d="M2070.95 460.279C2121.13 460.279 2123.91 384.755 2073.79 382.319C2072.42 382.253 2071.04 382.219 2069.66 382.219C2060.71 382.219 2052.1 383.636 2044.01 386.234C2037.3 345.355 2001.83 314.161 1959.05 314.161C1915.33 314.161 1879.25 346.747 1873.7 388.95C1863.33 383.978 1851.71 381.189 1839.44 381.189C1832.58 381.189 1825.93 382.058 1819.58 383.692C1775.7 394.992 1784.91 460.278 1830.22 460.278H2070.95V460.279Z" fill="#FFEEE9"/>
<path d="M1633.13 146.427C1683.3 146.427 1686.07 70.9265 1635.97 68.4915C1634.6 68.4255 1633.22 68.3915 1631.83 68.3915C1622.89 68.3915 1614.28 69.8085 1606.2 72.4055C1599.49 31.5395 1564.03 0.353516 1521.26 0.353516C1477.56 0.353516 1441.49 32.9295 1435.94 75.1205C1425.57 70.1495 1413.95 67.3625 1401.68 67.3625C1394.83 67.3625 1388.18 68.2305 1381.84 69.8645C1337.97 81.1615 1347.18 146.427 1392.48 146.427H1633.13Z" fill="#FFEEE9"/>
<path d="M1611.66 285.157C1637.98 312.947 1645.17 313.142 1672.96 286.817C1645.17 313.141 1644.98 320.334 1671.3 348.124C1644.98 320.334 1637.79 320.139 1610 346.464C1637.79 320.139 1637.98 312.947 1611.66 285.157Z" fill="#FFEEE9"/>
<path d="M649.741 69.9082C676.065 97.6982 683.258 97.8932 711.048 71.5682C683.258 97.8922 683.063 105.085 709.388 132.875C683.064 105.085 675.871 104.89 648.081 131.215C675.871 104.89 676.065 97.6982 649.741 69.9082Z" fill="#FFEEE9"/>
<path d="M389.182 466.925C415.506 494.715 422.7 494.91 450.49 468.585C422.7 494.909 422.504 502.102 448.829 529.892C422.505 502.102 415.312 501.907 387.522 528.232C415.312 501.908 415.506 494.715 389.182 466.925Z" fill="#FFEEE9"/>
<path d="M87.9803 396.445C114.304 424.235 121.497 424.43 149.287 398.105C121.497 424.429 121.302 431.622 147.627 459.412C121.303 431.622 114.11 431.427 86.3203 457.752C114.11 431.428 114.304 424.235 87.9803 396.445Z" fill="#FFEEE9"/>
<path d="M1918.73 604.023C1945.05 631.813 1952.25 632.008 1980.04 605.683C1952.25 632.007 1952.05 639.2 1978.38 666.99C1952.05 639.2 1944.86 639.005 1917.07 665.33C1944.86 639.005 1945.05 631.812 1918.73 604.023Z" fill="#FFEEE9"/>
<path d="M970.4 514.778L1210.73 444.202C1215.23 442.881 1217.81 438.162 1216.49 433.663L1118.4 99.6382C1117.08 95.1392 1112.36 92.5622 1107.86 93.8832L943.312 142.204C941.208 142.822 939.426 144.229 938.336 146.131L883.918 241.15C882.769 243.156 882.488 245.544 883.139 247.762L959.86 509.023C961.182 513.523 965.901 516.099 970.4 514.778Z" fill="white"/>
<path d="M970.4 514.778L1210.73 444.202C1215.23 442.881 1217.81 438.162 1216.49 433.663L1118.4 99.6382C1117.08 95.1392 1112.36 92.5622 1107.86 93.8832L943.312 142.204C941.208 142.822 939.426 144.229 938.336 146.131L883.918 241.15C882.769 243.156 882.488 245.544 883.139 247.762L959.86 509.023C961.182 513.523 965.901 516.099 970.4 514.778Z" stroke="#FC6736" stroke-width="8" stroke-miterlimit="10" stroke-linecap="round" stroke-linejoin="round"/>
<path d="M942.157 147.386L962.221 215.712C963.632 220.516 960.894 225.556 956.096 226.987L884.676 248.294" fill="white"/>
<path d="M942.157 147.386L962.221 215.712C963.632 220.516 960.894 225.556 956.096 226.987L884.676 248.294" stroke="#FC6736" stroke-width="8" stroke-miterlimit="10" stroke-linecap="round" stroke-linejoin="round"/>
<path d="M1007.01 460.223L993.401 464.22C992.341 464.531 991.23 463.924 990.919 462.865L974.112 405.633C973.801 404.573 974.408 403.462 975.467 403.151L989.078 399.154C990.138 398.843 991.249 399.45 991.56 400.509L1008.37 457.741C1008.68 458.8 1008.07 459.912 1007.01 460.223Z" fill="#FFD1C2"/>
<path d="M1076.81 439.727L1063.19 443.724C1062.13 444.035 1061.02 443.428 1060.71 442.369L1049.03 402.586C1048.72 401.526 1049.33 400.415 1050.38 400.104L1063.99 396.107C1065.05 395.796 1066.17 396.403 1066.48 397.462L1078.16 437.245C1078.47 438.305 1077.87 439.416 1076.81 439.727Z" fill="#FFD1C2"/>
<path d="M1111.7 429.479L1098.09 433.476C1097.03 433.787 1095.92 433.18 1095.61 432.121L1078.8 374.889C1078.49 373.829 1079.1 372.718 1080.16 372.407L1093.77 368.41C1094.83 368.099 1095.94 368.706 1096.25 369.765L1113.06 426.997C1113.37 428.057 1112.76 429.168 1111.7 429.479Z" fill="#FFD1C2"/>
<path d="M1041.91 449.974L1028.3 453.971C1027.24 454.282 1026.13 453.675 1025.82 452.616L1003.88 377.936C1003.57 376.876 1004.18 375.765 1005.24 375.454L1018.85 371.457C1019.91 371.146 1021.02 371.753 1021.33 372.812L1043.26 447.492C1043.58 448.551 1042.97 449.663 1041.91 449.974Z" fill="#FFD1C2"/>
<path d="M938.352 283.859L1099.75 236.463" stroke="#FFD1C2" stroke-width="6" stroke-miterlimit="10" stroke-linecap="round" stroke-linejoin="round"/>
<path d="M946.037 310.032L1107.44 262.635" stroke="#FFD1C2" stroke-width="6" stroke-miterlimit="10" stroke-linecap="round" stroke-linejoin="round"/>
<path d="M953.724 336.204L1115.12 288.808" stroke="#FFD1C2" stroke-width="6" stroke-miterlimit="10" stroke-linecap="round" stroke-linejoin="round"/>
<path d="M1298.24 424.625L1304.22 411.891C1305.36 409.465 1304.17 406.584 1301.65 405.678L1221.21 376.791L1217.68 383.158L1291.82 426.613C1294.13 427.965 1297.1 427.045 1298.24 424.625Z" fill="#FC6736"/>
<path d="M1160.85 422.739C1196.84 422.739 1226.02 393.563 1226.02 357.573C1226.02 321.583 1196.84 292.407 1160.85 292.407C1124.86 292.407 1095.69 321.583 1095.69 357.573C1095.69 393.563 1124.86 422.739 1160.85 422.739Z" fill="#FFD1C2"/>
<path d="M1160.85 409.156C1189.34 409.156 1212.44 386.062 1212.44 357.573C1212.44 329.085 1189.34 305.99 1160.85 305.99C1132.37 305.99 1109.27 329.085 1109.27 357.573C1109.27 386.062 1132.37 409.156 1160.85 409.156Z" fill="white"/>
<path d="M1160.85 422.739C1196.84 422.739 1226.02 393.563 1226.02 357.573C1226.02 321.583 1196.84 292.407 1160.85 292.407C1124.86 292.407 1095.69 321.583 1095.69 357.573C1095.69 393.563 1124.86 422.739 1160.85 422.739Z" stroke="#FC6736" stroke-width="8" stroke-linecap="round" stroke-linejoin="round"/>
<path d="M1161.17 332.56L1160.77 364.382" stroke="#FC6736" stroke-width="8" stroke-linecap="round" stroke-linejoin="round"/>
<circle cx="1160.54" cy="382.565" r="4" fill="#FC6736"/>
<path d="M1160.54 382.589C1160.56 382.589 1160.57 382.579 1160.57 382.566C1160.57 382.553 1160.56 382.543 1160.54 382.543C1160.53 382.543 1160.52 382.553 1160.52 382.566C1160.52 382.579 1160.53 382.589 1160.54 382.589Z" stroke="#FC6736" stroke-width="8" stroke-linecap="round" stroke-linejoin="round"/>
<path d="M1853.07 877.91L1788.96 890.792L1814.72 1019.02L1677.45 1046.6L1651.69 918.374L1400.17 968.911L1380.18 869.45L1533.9 476.833L1699.11 443.637L1765.17 772.426L1829.29 759.544L1853.07 877.91ZM1592.07 621.641L1519.41 821.806L1627.9 800.006L1592.07 621.641Z" fill="#FC6736"/>
<path d="M795.149 944.295L730.646 933.543L709.142 1062.55L571.033 1039.53L592.536 910.523L339.48 868.344L356.16 768.276L639.408 455.951L805.633 483.657L750.496 814.453L815 825.205L795.149 944.295ZM642.297 611.979L503.226 773.239L612.385 791.433L642.297 611.979Z" fill="#FC6736"/>
<path d="M2204 895H0V1195H2204V895Z" fill="white"/>
<path d="M397.577 1040.11H313.87C313.594 1040.11 313.37 1039.89 313.37 1039.61V1036.06C313.37 1035.79 313.594 1035.56 313.87 1035.56H397.577C397.853 1035.56 398.077 1035.79 398.077 1036.06V1039.61C398.077 1039.89 397.853 1040.11 397.577 1040.11Z" fill="#FFD1C2"/>
<path d="M627.437 1040.11H543.729C543.453 1040.11 543.229 1039.89 543.229 1039.61V1036.06C543.229 1035.79 543.453 1035.56 543.729 1035.56H627.437C627.713 1035.56 627.937 1035.79 627.937 1036.06V1039.61C627.937 1039.89 627.713 1040.11 627.437 1040.11Z" fill="#FFD1C2"/>
<path d="M836.638 986.122H752.931C752.655 986.122 752.431 985.898 752.431 985.622V982.076C752.431 981.8 752.655 981.576 752.931 981.576H836.638C836.914 981.576 837.138 981.8 837.138 982.076V985.622C837.138 985.898 836.914 986.122 836.638 986.122Z" fill="#FFD1C2"/>
<path d="M955.618 1045.82H871.911C871.635 1045.82 871.411 1045.6 871.411 1045.32V1041.78C871.411 1041.5 871.635 1041.28 871.911 1041.28H955.618C955.894 1041.28 956.118 1041.5 956.118 1041.78V1045.32C956.118 1045.6 955.894 1045.82 955.618 1045.82Z" fill="#FFD1C2"/>
<path d="M1249.18 1045.82H1165.47C1165.19 1045.82 1164.97 1045.6 1164.97 1045.32V1041.78C1164.97 1041.5 1165.19 1041.28 1165.47 1041.28H1249.18C1249.45 1041.28 1249.68 1041.5 1249.68 1041.78V1045.32C1249.68 1045.6 1249.45 1045.82 1249.18 1045.82Z" fill="#FFD1C2"/>
<path d="M1577.6 1042.45H1493.89C1493.62 1042.45 1493.39 1042.23 1493.39 1041.95V1038.4C1493.39 1038.13 1493.62 1037.9 1493.89 1037.9H1577.6C1577.88 1037.9 1578.1 1038.13 1578.1 1038.4V1041.95C1578.1 1042.23 1577.88 1042.45 1577.6 1042.45Z" fill="#FFD1C2"/>
<path d="M534.282 977.373H450.575C450.299 977.373 450.075 977.149 450.075 976.873V973.327C450.075 973.051 450.299 972.827 450.575 972.827H534.282C534.558 972.827 534.782 973.051 534.782 973.327V976.873C534.782 977.149 534.558 977.373 534.282 977.373Z" fill="#FFD1C2"/>
<path d="M1118.77 975.157H1035.06C1034.79 975.157 1034.56 974.933 1034.56 974.657V971.111C1034.56 970.835 1034.79 970.611 1035.06 970.611H1118.77C1119.05 970.611 1119.27 970.835 1119.27 971.111V974.657C1119.27 974.933 1119.05 975.157 1118.77 975.157Z" fill="#FFD1C2"/>
<path d="M1714.29 974.804H1630.58C1630.31 974.804 1630.08 974.58 1630.08 974.304V970.758C1630.08 970.482 1630.31 970.258 1630.58 970.258H1714.29C1714.56 970.258 1714.79 970.482 1714.79 970.758V974.304C1714.79 974.58 1714.56 974.804 1714.29 974.804Z" fill="#FFD1C2"/>
<path d="M1421.17 953.63H1337.46C1337.19 953.63 1336.96 953.406 1336.96 953.13V949.584C1336.96 949.308 1337.19 949.084 1337.46 949.084H1421.17C1421.44 949.084 1421.67 949.308 1421.67 949.584V953.13C1421.67 953.407 1421.44 953.63 1421.17 953.63Z" fill="#FFD1C2"/>
</svg>
