<svg width="48" height="48" viewBox="0 0 48 48" fill="none" xmlns="http://www.w3.org/2000/svg">
<path d="M39.4331 7.77094C35.4159 3.93678 30.1141 1.73712 24.5625 1.60126V6.10126C28.9205 6.23574 33.0785 7.96122 36.2512 10.9519L39.4331 7.77094Z" fill="#2D9596"/>
<path d="M41.8975 23.4375H46.3975C46.2621 17.8861 44.0632 12.5844 40.2297 8.56688L37.0469 11.7488C40.0375 14.9215 41.763 19.0795 41.8975 23.4375Z" fill="#2D9596"/>
<path d="M6.10352 24.5625H1.60352C1.73887 30.1139 3.93785 35.4156 7.77133 39.4331L10.9588 36.2512C7.96646 33.0792 6.23927 28.9211 6.10352 24.5625Z" fill="#2D9596"/>
<path d="M8.56738 40.2291C12.5846 44.0632 17.8864 46.2629 23.438 46.3988V41.8988C19.08 41.7643 14.922 40.0388 11.7493 37.0481L8.56738 40.2291Z" fill="#2D9596"/>
<path d="M24.5625 41.8969V46.3969C30.1141 46.261 35.4159 44.0614 39.4331 40.2272L36.2512 37.0444C33.0788 40.0357 28.9208 41.7619 24.5625 41.8969Z" fill="#2D9596"/>
<path d="M37.0469 36.2512L40.2297 39.4331C44.0638 35.4159 46.2635 30.1141 46.3994 24.5625H41.8994C41.7644 28.9208 40.0382 33.0788 37.0469 36.2512Z" fill="#2D9596"/>
<path d="M10.9541 11.7488L7.77125 8.56688C3.93709 12.5841 1.73743 17.8859 1.60156 23.4375H6.10156C6.23655 19.0792 7.96272 14.9212 10.9541 11.7488Z" fill="#2D9596"/>
<path d="M23.438 6.10313V1.60313C17.8866 1.73849 12.5849 3.93747 8.56738 7.77095L11.7493 10.9584C14.9213 7.96607 19.0794 6.23889 23.438 6.10313Z" fill="#2D9596"/>
<path d="M40.7812 24C40.7812 14.7469 33.2531 7.21875 24 7.21875C14.7469 7.21875 7.21875 14.7469 7.21875 24C7.21875 33.2531 14.7469 40.7812 24 40.7812C33.2531 40.7812 40.7812 33.2531 40.7812 24ZM32.7384 33.2391C33.0231 33.6468 33.1342 34.151 33.0471 34.6406C32.9601 35.1303 32.6821 35.5653 32.2744 35.85C31.8666 36.1347 31.3624 36.2457 30.8728 36.1587C30.3832 36.0717 29.9481 35.7937 29.6634 35.3859L24 27.2756L18.3366 35.3859C18.0519 35.7937 17.6169 36.0717 17.1272 36.1587C16.6376 36.2457 16.1334 36.1347 15.7256 35.85C15.3179 35.5653 15.0399 35.1303 14.9529 34.6406C14.8658 34.151 14.9769 33.6468 15.2616 33.2391L20.4037 25.875H16.7991C16.3018 25.875 15.8249 25.6775 15.4732 25.3258C15.1216 24.9742 14.9241 24.4973 14.9241 24C14.9241 23.5027 15.1216 23.0258 15.4732 22.6742C15.8249 22.3225 16.3018 22.125 16.7991 22.125H20.4037L15.2616 14.7609C14.9769 14.3532 14.8658 13.849 14.9529 13.3594C15.0399 12.8697 15.3179 12.4347 15.7256 12.15C16.1334 11.8653 16.6376 11.7543 17.1272 11.8413C17.6169 11.9283 18.0519 12.2063 18.3366 12.6141L24 20.7244L29.6634 12.6141C29.8044 12.4122 29.9838 12.24 30.1913 12.1074C30.3988 11.9748 30.6303 11.8844 30.8728 11.8413C31.1152 11.7982 31.3638 11.8033 31.6043 11.8562C31.8448 11.9092 32.0725 12.009 32.2744 12.15C32.4763 12.291 32.6484 12.4703 32.781 12.6778C32.9136 12.8853 33.0041 13.1169 33.0471 13.3594C33.0902 13.6018 33.0852 13.8504 33.0322 14.0909C32.9792 14.3313 32.8794 14.559 32.7384 14.7609L27.5962 22.125H31.2009C31.6982 22.125 32.1751 22.3225 32.5268 22.6742C32.8784 23.0258 33.0759 23.5027 33.0759 24C33.0759 24.4973 32.8784 24.9742 32.5268 25.3258C32.1751 25.6775 31.6982 25.875 31.2009 25.875H27.5962L32.7384 33.2391Z" fill="#2D9596"/>
</svg>
