<svg width="48" height="48" viewBox="0 0 48 48" fill="none" xmlns="http://www.w3.org/2000/svg">
<g clip-path="url(#clip0_321_887)">
<path d="M23.9981 11.2494C24.7748 11.2494 25.4044 10.6197 25.4044 9.84306V4.87409C25.4044 4.09743 24.7748 3.46777 23.9981 3.46777C23.2215 3.46777 22.5918 4.09743 22.5918 4.87409V9.84306C22.5918 10.6197 23.2215 11.2494 23.9981 11.2494Z" fill="#2D9596"/>
<path d="M16.2418 13.6384C16.791 14.1876 17.6814 14.1877 18.2307 13.6384C18.7799 13.0892 18.7799 12.1988 18.2307 11.6496L14.7171 8.13598C14.168 7.58677 13.2775 7.58677 12.7283 8.13598C12.1791 8.6852 12.1791 9.57558 12.7283 10.1248L16.2418 13.6384Z" fill="#2D9596"/>
<path d="M30.7605 14.0503C31.1204 14.0503 31.4803 13.913 31.7548 13.6383L35.2684 10.1247C35.8177 9.57549 35.8177 8.68511 35.2684 8.13589C34.7193 7.58668 33.8288 7.58668 33.2796 8.13589L29.766 11.6495C28.8775 12.538 29.5189 14.0503 30.7605 14.0503Z" fill="#2D9596"/>
<path d="M36.2827 29.719L32.8409 18.7053C32.6574 18.1182 32.1137 17.7184 31.4986 17.7184H16.498C15.8828 17.7184 15.3392 18.1182 15.1557 18.7053L11.7139 29.719H36.2827Z" fill="#2D9596"/>
<path d="M44.7559 32.5316C43.0305 32.5316 30.5978 32.5316 28.7826 32.5316C25.1367 44.1983 25.4048 43.2701 25.4048 43.4982C25.4048 44.0692 25.8676 44.5321 26.4386 44.5321H46.5603C47.5765 44.5321 48.2114 43.5893 47.9355 42.7064L44.7559 32.5316Z" fill="#2D9596"/>
<path d="M22.5449 43.1899L19.2142 32.5316C17.2924 32.5316 4.92277 32.5316 3.24082 32.5316L0.0708044 42.6755C-0.231834 43.6439 0.47751 44.5321 1.40352 44.5321H21.5581C22.255 44.5321 22.7528 43.8552 22.5449 43.1899Z" fill="#2D9596"/>
</g>
<defs>
<clipPath id="clip0_321_887">
<rect width="48" height="48" fill="white"/>
</clipPath>
</defs>
</svg>
