<svg width="48" height="48" viewBox="0 0 48 48" fill="none" xmlns="http://www.w3.org/2000/svg">
<g clip-path="url(#clip0_321_895)">
<path d="M35.1574 17.0666L27.4521 42.7509L47.9995 17.0666H35.1574Z" fill="#2D9596"/>
<path d="M12.8422 17.0666H0L20.5474 42.7509L12.8422 17.0666Z" fill="#2D9596"/>
<path d="M47.5274 14.2353L37.2979 4.00575C37.0342 3.74203 36.6765 3.5939 36.3035 3.5939H31.0947L35.0852 14.2353H47.5274Z" fill="#2D9596"/>
<path d="M12.9148 14.2353L16.9052 3.5939H11.6965C11.3236 3.5939 10.9658 3.74203 10.7021 4.00575L0.472656 14.2353H12.9148Z" fill="#2D9596"/>
<path d="M32.2015 17.0666H15.7979L23.9997 44.4061L32.2015 17.0666Z" fill="#2D9596"/>
<path d="M15.9385 14.2353H32.062L28.0714 3.5939H19.929L15.9385 14.2353Z" fill="#2D9596"/>
</g>
<defs>
<clipPath id="clip0_321_895">
<rect width="48" height="48" fill="white"/>
</clipPath>
</defs>
</svg>
