<svg width="49" height="48" viewBox="0 0 49 48" fill="none" xmlns="http://www.w3.org/2000/svg">
<path d="M12.5879 40.8454L20.6405 44.0576L19.3823 39.0987L12.5879 40.8454Z" fill="#2D9596"/>
<path d="M23.1126 32.1192L20.6924 38.2475L22.217 44.25L35.8355 38.2327L31.5871 28.9441L23.1126 32.1192Z" fill="#2D9596"/>
<path d="M35.4942 12.6982L31.6455 14.2821L32.7039 27.8265L36.819 36.8191L40.8749 27.7672L35.4942 12.6982Z" fill="#2D9596"/>
<path d="M30.9649 12.9572L34.5027 11.5066L25.4287 3.97945L25.6286 9.11596L30.9649 12.9572Z" fill="#2D9596"/>
<path d="M23.2085 30.5057L31.1945 27.5082L30.1509 14.2007L25.0885 10.5518L21.9873 15.1776L23.2085 30.5057Z" fill="#2D9596"/>
<path d="M20.8028 14.2821L24.1556 9.28617L23.9409 3.75L16.1104 9.30099L16.6876 14.7187L20.8028 14.2821Z" fill="#2D9596"/>
<path d="M21.7948 31.4309L20.5514 15.7993L16.6361 16.2138L11.2109 39.6686L19.3672 37.574L21.7948 31.4309Z" fill="#2D9596"/>
<path d="M14.8232 11.1883L10.5675 18.1455L8.125 32.7187L10.0568 38.0847L15.2821 15.4959L14.8232 11.1883Z" fill="#2D9596"/>
</svg>
